%TF.GenerationSoftware,KiCad,Pcbnew,7.0.7*%
%TF.CreationDate,2023-10-05T17:02:33-03:00*%
%TF.ProjectId,ILLI_PCB,494c4c49-5f50-4434-922e-6b696361645f,rev?*%
%TF.SameCoordinates,Original*%
%TF.FileFunction,Legend,Top*%
%TF.FilePolarity,Positive*%
%FSLAX46Y46*%
G04 Gerber Fmt 4.6, Leading zero omitted, Abs format (unit mm)*
G04 Created by KiCad (PCBNEW 7.0.7) date 2023-10-05 17:02:33*
%MOMM*%
%LPD*%
G01*
G04 APERTURE LIST*
%ADD10C,0.150000*%
%ADD11C,0.120000*%
G04 APERTURE END LIST*
D10*
X114785713Y-126092800D02*
X114642856Y-126045180D01*
X114642856Y-126045180D02*
X114404761Y-126045180D01*
X114404761Y-126045180D02*
X114309523Y-126092800D01*
X114309523Y-126092800D02*
X114261904Y-126140419D01*
X114261904Y-126140419D02*
X114214285Y-126235657D01*
X114214285Y-126235657D02*
X114214285Y-126330895D01*
X114214285Y-126330895D02*
X114261904Y-126426133D01*
X114261904Y-126426133D02*
X114309523Y-126473752D01*
X114309523Y-126473752D02*
X114404761Y-126521371D01*
X114404761Y-126521371D02*
X114595237Y-126568990D01*
X114595237Y-126568990D02*
X114690475Y-126616609D01*
X114690475Y-126616609D02*
X114738094Y-126664228D01*
X114738094Y-126664228D02*
X114785713Y-126759466D01*
X114785713Y-126759466D02*
X114785713Y-126854704D01*
X114785713Y-126854704D02*
X114738094Y-126949942D01*
X114738094Y-126949942D02*
X114690475Y-126997561D01*
X114690475Y-126997561D02*
X114595237Y-127045180D01*
X114595237Y-127045180D02*
X114357142Y-127045180D01*
X114357142Y-127045180D02*
X114214285Y-126997561D01*
X114357143Y-128954819D02*
X114690476Y-129954819D01*
X114690476Y-129954819D02*
X115023809Y-128954819D01*
X115690476Y-129431009D02*
X115833333Y-129478628D01*
X115833333Y-129478628D02*
X115880952Y-129526247D01*
X115880952Y-129526247D02*
X115928571Y-129621485D01*
X115928571Y-129621485D02*
X115928571Y-129764342D01*
X115928571Y-129764342D02*
X115880952Y-129859580D01*
X115880952Y-129859580D02*
X115833333Y-129907200D01*
X115833333Y-129907200D02*
X115738095Y-129954819D01*
X115738095Y-129954819D02*
X115357143Y-129954819D01*
X115357143Y-129954819D02*
X115357143Y-128954819D01*
X115357143Y-128954819D02*
X115690476Y-128954819D01*
X115690476Y-128954819D02*
X115785714Y-129002438D01*
X115785714Y-129002438D02*
X115833333Y-129050057D01*
X115833333Y-129050057D02*
X115880952Y-129145295D01*
X115880952Y-129145295D02*
X115880952Y-129240533D01*
X115880952Y-129240533D02*
X115833333Y-129335771D01*
X115833333Y-129335771D02*
X115785714Y-129383390D01*
X115785714Y-129383390D02*
X115690476Y-129431009D01*
X115690476Y-129431009D02*
X115357143Y-129431009D01*
X116309524Y-129669104D02*
X116785714Y-129669104D01*
X116214286Y-129954819D02*
X116547619Y-128954819D01*
X116547619Y-128954819D02*
X116880952Y-129954819D01*
X117071429Y-128954819D02*
X117642857Y-128954819D01*
X117357143Y-129954819D02*
X117357143Y-128954819D01*
X114738095Y-123502438D02*
X114642857Y-123454819D01*
X114642857Y-123454819D02*
X114500000Y-123454819D01*
X114500000Y-123454819D02*
X114357143Y-123502438D01*
X114357143Y-123502438D02*
X114261905Y-123597676D01*
X114261905Y-123597676D02*
X114214286Y-123692914D01*
X114214286Y-123692914D02*
X114166667Y-123883390D01*
X114166667Y-123883390D02*
X114166667Y-124026247D01*
X114166667Y-124026247D02*
X114214286Y-124216723D01*
X114214286Y-124216723D02*
X114261905Y-124311961D01*
X114261905Y-124311961D02*
X114357143Y-124407200D01*
X114357143Y-124407200D02*
X114500000Y-124454819D01*
X114500000Y-124454819D02*
X114595238Y-124454819D01*
X114595238Y-124454819D02*
X114738095Y-124407200D01*
X114738095Y-124407200D02*
X114785714Y-124359580D01*
X114785714Y-124359580D02*
X114785714Y-124026247D01*
X114785714Y-124026247D02*
X114595238Y-124026247D01*
X115214286Y-124454819D02*
X115214286Y-123454819D01*
X115214286Y-123454819D02*
X115785714Y-124454819D01*
X115785714Y-124454819D02*
X115785714Y-123454819D01*
X116261905Y-124454819D02*
X116261905Y-123454819D01*
X116261905Y-123454819D02*
X116500000Y-123454819D01*
X116500000Y-123454819D02*
X116642857Y-123502438D01*
X116642857Y-123502438D02*
X116738095Y-123597676D01*
X116738095Y-123597676D02*
X116785714Y-123692914D01*
X116785714Y-123692914D02*
X116833333Y-123883390D01*
X116833333Y-123883390D02*
X116833333Y-124026247D01*
X116833333Y-124026247D02*
X116785714Y-124216723D01*
X116785714Y-124216723D02*
X116738095Y-124311961D01*
X116738095Y-124311961D02*
X116642857Y-124407200D01*
X116642857Y-124407200D02*
X116500000Y-124454819D01*
X116500000Y-124454819D02*
X116261905Y-124454819D01*
X114357143Y-89954819D02*
X114690476Y-90954819D01*
X114690476Y-90954819D02*
X115023809Y-89954819D01*
X115690476Y-90431009D02*
X115833333Y-90478628D01*
X115833333Y-90478628D02*
X115880952Y-90526247D01*
X115880952Y-90526247D02*
X115928571Y-90621485D01*
X115928571Y-90621485D02*
X115928571Y-90764342D01*
X115928571Y-90764342D02*
X115880952Y-90859580D01*
X115880952Y-90859580D02*
X115833333Y-90907200D01*
X115833333Y-90907200D02*
X115738095Y-90954819D01*
X115738095Y-90954819D02*
X115357143Y-90954819D01*
X115357143Y-90954819D02*
X115357143Y-89954819D01*
X115357143Y-89954819D02*
X115690476Y-89954819D01*
X115690476Y-89954819D02*
X115785714Y-90002438D01*
X115785714Y-90002438D02*
X115833333Y-90050057D01*
X115833333Y-90050057D02*
X115880952Y-90145295D01*
X115880952Y-90145295D02*
X115880952Y-90240533D01*
X115880952Y-90240533D02*
X115833333Y-90335771D01*
X115833333Y-90335771D02*
X115785714Y-90383390D01*
X115785714Y-90383390D02*
X115690476Y-90431009D01*
X115690476Y-90431009D02*
X115357143Y-90431009D01*
X116309524Y-90669104D02*
X116785714Y-90669104D01*
X116214286Y-90954819D02*
X116547619Y-89954819D01*
X116547619Y-89954819D02*
X116880952Y-90954819D01*
X117071429Y-89954819D02*
X117642857Y-89954819D01*
X117357143Y-90954819D02*
X117357143Y-89954819D01*
X114214286Y-93407200D02*
X114357143Y-93454819D01*
X114357143Y-93454819D02*
X114595238Y-93454819D01*
X114595238Y-93454819D02*
X114690476Y-93407200D01*
X114690476Y-93407200D02*
X114738095Y-93359580D01*
X114738095Y-93359580D02*
X114785714Y-93264342D01*
X114785714Y-93264342D02*
X114785714Y-93169104D01*
X114785714Y-93169104D02*
X114738095Y-93073866D01*
X114738095Y-93073866D02*
X114690476Y-93026247D01*
X114690476Y-93026247D02*
X114595238Y-92978628D01*
X114595238Y-92978628D02*
X114404762Y-92931009D01*
X114404762Y-92931009D02*
X114309524Y-92883390D01*
X114309524Y-92883390D02*
X114261905Y-92835771D01*
X114261905Y-92835771D02*
X114214286Y-92740533D01*
X114214286Y-92740533D02*
X114214286Y-92645295D01*
X114214286Y-92645295D02*
X114261905Y-92550057D01*
X114261905Y-92550057D02*
X114309524Y-92502438D01*
X114309524Y-92502438D02*
X114404762Y-92454819D01*
X114404762Y-92454819D02*
X114642857Y-92454819D01*
X114642857Y-92454819D02*
X114785714Y-92502438D01*
X114738095Y-95502438D02*
X114642857Y-95454819D01*
X114642857Y-95454819D02*
X114500000Y-95454819D01*
X114500000Y-95454819D02*
X114357143Y-95502438D01*
X114357143Y-95502438D02*
X114261905Y-95597676D01*
X114261905Y-95597676D02*
X114214286Y-95692914D01*
X114214286Y-95692914D02*
X114166667Y-95883390D01*
X114166667Y-95883390D02*
X114166667Y-96026247D01*
X114166667Y-96026247D02*
X114214286Y-96216723D01*
X114214286Y-96216723D02*
X114261905Y-96311961D01*
X114261905Y-96311961D02*
X114357143Y-96407200D01*
X114357143Y-96407200D02*
X114500000Y-96454819D01*
X114500000Y-96454819D02*
X114595238Y-96454819D01*
X114595238Y-96454819D02*
X114738095Y-96407200D01*
X114738095Y-96407200D02*
X114785714Y-96359580D01*
X114785714Y-96359580D02*
X114785714Y-96026247D01*
X114785714Y-96026247D02*
X114595238Y-96026247D01*
X115214286Y-96454819D02*
X115214286Y-95454819D01*
X115214286Y-95454819D02*
X115785714Y-96454819D01*
X115785714Y-96454819D02*
X115785714Y-95454819D01*
X116261905Y-96454819D02*
X116261905Y-95454819D01*
X116261905Y-95454819D02*
X116500000Y-95454819D01*
X116500000Y-95454819D02*
X116642857Y-95502438D01*
X116642857Y-95502438D02*
X116738095Y-95597676D01*
X116738095Y-95597676D02*
X116785714Y-95692914D01*
X116785714Y-95692914D02*
X116833333Y-95883390D01*
X116833333Y-95883390D02*
X116833333Y-96026247D01*
X116833333Y-96026247D02*
X116785714Y-96216723D01*
X116785714Y-96216723D02*
X116738095Y-96311961D01*
X116738095Y-96311961D02*
X116642857Y-96407200D01*
X116642857Y-96407200D02*
X116500000Y-96454819D01*
X116500000Y-96454819D02*
X116261905Y-96454819D01*
X117738095Y-125502438D02*
X117642857Y-125454819D01*
X117642857Y-125454819D02*
X117500000Y-125454819D01*
X117500000Y-125454819D02*
X117357143Y-125502438D01*
X117357143Y-125502438D02*
X117261905Y-125597676D01*
X117261905Y-125597676D02*
X117214286Y-125692914D01*
X117214286Y-125692914D02*
X117166667Y-125883390D01*
X117166667Y-125883390D02*
X117166667Y-126026247D01*
X117166667Y-126026247D02*
X117214286Y-126216723D01*
X117214286Y-126216723D02*
X117261905Y-126311961D01*
X117261905Y-126311961D02*
X117357143Y-126407200D01*
X117357143Y-126407200D02*
X117500000Y-126454819D01*
X117500000Y-126454819D02*
X117595238Y-126454819D01*
X117595238Y-126454819D02*
X117738095Y-126407200D01*
X117738095Y-126407200D02*
X117785714Y-126359580D01*
X117785714Y-126359580D02*
X117785714Y-126026247D01*
X117785714Y-126026247D02*
X117595238Y-126026247D01*
X118214286Y-126454819D02*
X118214286Y-125454819D01*
X118214286Y-125454819D02*
X118785714Y-126454819D01*
X118785714Y-126454819D02*
X118785714Y-125454819D01*
X119261905Y-126454819D02*
X119261905Y-125454819D01*
X119261905Y-125454819D02*
X119500000Y-125454819D01*
X119500000Y-125454819D02*
X119642857Y-125502438D01*
X119642857Y-125502438D02*
X119738095Y-125597676D01*
X119738095Y-125597676D02*
X119785714Y-125692914D01*
X119785714Y-125692914D02*
X119833333Y-125883390D01*
X119833333Y-125883390D02*
X119833333Y-126026247D01*
X119833333Y-126026247D02*
X119785714Y-126216723D01*
X119785714Y-126216723D02*
X119738095Y-126311961D01*
X119738095Y-126311961D02*
X119642857Y-126407200D01*
X119642857Y-126407200D02*
X119500000Y-126454819D01*
X119500000Y-126454819D02*
X119261905Y-126454819D01*
X117738095Y-123002438D02*
X117642857Y-122954819D01*
X117642857Y-122954819D02*
X117500000Y-122954819D01*
X117500000Y-122954819D02*
X117357143Y-123002438D01*
X117357143Y-123002438D02*
X117261905Y-123097676D01*
X117261905Y-123097676D02*
X117214286Y-123192914D01*
X117214286Y-123192914D02*
X117166667Y-123383390D01*
X117166667Y-123383390D02*
X117166667Y-123526247D01*
X117166667Y-123526247D02*
X117214286Y-123716723D01*
X117214286Y-123716723D02*
X117261905Y-123811961D01*
X117261905Y-123811961D02*
X117357143Y-123907200D01*
X117357143Y-123907200D02*
X117500000Y-123954819D01*
X117500000Y-123954819D02*
X117595238Y-123954819D01*
X117595238Y-123954819D02*
X117738095Y-123907200D01*
X117738095Y-123907200D02*
X117785714Y-123859580D01*
X117785714Y-123859580D02*
X117785714Y-123526247D01*
X117785714Y-123526247D02*
X117595238Y-123526247D01*
X118214286Y-123954819D02*
X118214286Y-122954819D01*
X118214286Y-122954819D02*
X118785714Y-123954819D01*
X118785714Y-123954819D02*
X118785714Y-122954819D01*
X119261905Y-123954819D02*
X119261905Y-122954819D01*
X119261905Y-122954819D02*
X119500000Y-122954819D01*
X119500000Y-122954819D02*
X119642857Y-123002438D01*
X119642857Y-123002438D02*
X119738095Y-123097676D01*
X119738095Y-123097676D02*
X119785714Y-123192914D01*
X119785714Y-123192914D02*
X119833333Y-123383390D01*
X119833333Y-123383390D02*
X119833333Y-123526247D01*
X119833333Y-123526247D02*
X119785714Y-123716723D01*
X119785714Y-123716723D02*
X119738095Y-123811961D01*
X119738095Y-123811961D02*
X119642857Y-123907200D01*
X119642857Y-123907200D02*
X119500000Y-123954819D01*
X119500000Y-123954819D02*
X119261905Y-123954819D01*
X117261905Y-120454819D02*
X117880952Y-120454819D01*
X117880952Y-120454819D02*
X117547619Y-120835771D01*
X117547619Y-120835771D02*
X117690476Y-120835771D01*
X117690476Y-120835771D02*
X117785714Y-120883390D01*
X117785714Y-120883390D02*
X117833333Y-120931009D01*
X117833333Y-120931009D02*
X117880952Y-121026247D01*
X117880952Y-121026247D02*
X117880952Y-121264342D01*
X117880952Y-121264342D02*
X117833333Y-121359580D01*
X117833333Y-121359580D02*
X117785714Y-121407200D01*
X117785714Y-121407200D02*
X117690476Y-121454819D01*
X117690476Y-121454819D02*
X117404762Y-121454819D01*
X117404762Y-121454819D02*
X117309524Y-121407200D01*
X117309524Y-121407200D02*
X117261905Y-121359580D01*
X118166667Y-120454819D02*
X118500000Y-121454819D01*
X118500000Y-121454819D02*
X118833333Y-120454819D01*
X119071429Y-120454819D02*
X119690476Y-120454819D01*
X119690476Y-120454819D02*
X119357143Y-120835771D01*
X119357143Y-120835771D02*
X119500000Y-120835771D01*
X119500000Y-120835771D02*
X119595238Y-120883390D01*
X119595238Y-120883390D02*
X119642857Y-120931009D01*
X119642857Y-120931009D02*
X119690476Y-121026247D01*
X119690476Y-121026247D02*
X119690476Y-121264342D01*
X119690476Y-121264342D02*
X119642857Y-121359580D01*
X119642857Y-121359580D02*
X119595238Y-121407200D01*
X119595238Y-121407200D02*
X119500000Y-121454819D01*
X119500000Y-121454819D02*
X119214286Y-121454819D01*
X119214286Y-121454819D02*
X119119048Y-121407200D01*
X119119048Y-121407200D02*
X119071429Y-121359580D01*
X117261905Y-117954819D02*
X117880952Y-117954819D01*
X117880952Y-117954819D02*
X117547619Y-118335771D01*
X117547619Y-118335771D02*
X117690476Y-118335771D01*
X117690476Y-118335771D02*
X117785714Y-118383390D01*
X117785714Y-118383390D02*
X117833333Y-118431009D01*
X117833333Y-118431009D02*
X117880952Y-118526247D01*
X117880952Y-118526247D02*
X117880952Y-118764342D01*
X117880952Y-118764342D02*
X117833333Y-118859580D01*
X117833333Y-118859580D02*
X117785714Y-118907200D01*
X117785714Y-118907200D02*
X117690476Y-118954819D01*
X117690476Y-118954819D02*
X117404762Y-118954819D01*
X117404762Y-118954819D02*
X117309524Y-118907200D01*
X117309524Y-118907200D02*
X117261905Y-118859580D01*
X118166667Y-117954819D02*
X118500000Y-118954819D01*
X118500000Y-118954819D02*
X118833333Y-117954819D01*
X119071429Y-117954819D02*
X119690476Y-117954819D01*
X119690476Y-117954819D02*
X119357143Y-118335771D01*
X119357143Y-118335771D02*
X119500000Y-118335771D01*
X119500000Y-118335771D02*
X119595238Y-118383390D01*
X119595238Y-118383390D02*
X119642857Y-118431009D01*
X119642857Y-118431009D02*
X119690476Y-118526247D01*
X119690476Y-118526247D02*
X119690476Y-118764342D01*
X119690476Y-118764342D02*
X119642857Y-118859580D01*
X119642857Y-118859580D02*
X119595238Y-118907200D01*
X119595238Y-118907200D02*
X119500000Y-118954819D01*
X119500000Y-118954819D02*
X119214286Y-118954819D01*
X119214286Y-118954819D02*
X119119048Y-118907200D01*
X119119048Y-118907200D02*
X119071429Y-118859580D01*
X118238095Y-113050057D02*
X118285714Y-113002438D01*
X118285714Y-113002438D02*
X118380952Y-112954819D01*
X118380952Y-112954819D02*
X118619047Y-112954819D01*
X118619047Y-112954819D02*
X118714285Y-113002438D01*
X118714285Y-113002438D02*
X118761904Y-113050057D01*
X118761904Y-113050057D02*
X118809523Y-113145295D01*
X118809523Y-113145295D02*
X118809523Y-113240533D01*
X118809523Y-113240533D02*
X118761904Y-113383390D01*
X118761904Y-113383390D02*
X118190476Y-113954819D01*
X118190476Y-113954819D02*
X118809523Y-113954819D01*
X119714285Y-112954819D02*
X119238095Y-112954819D01*
X119238095Y-112954819D02*
X119190476Y-113431009D01*
X119190476Y-113431009D02*
X119238095Y-113383390D01*
X119238095Y-113383390D02*
X119333333Y-113335771D01*
X119333333Y-113335771D02*
X119571428Y-113335771D01*
X119571428Y-113335771D02*
X119666666Y-113383390D01*
X119666666Y-113383390D02*
X119714285Y-113431009D01*
X119714285Y-113431009D02*
X119761904Y-113526247D01*
X119761904Y-113526247D02*
X119761904Y-113764342D01*
X119761904Y-113764342D02*
X119714285Y-113859580D01*
X119714285Y-113859580D02*
X119666666Y-113907200D01*
X119666666Y-113907200D02*
X119571428Y-113954819D01*
X119571428Y-113954819D02*
X119333333Y-113954819D01*
X119333333Y-113954819D02*
X119238095Y-113907200D01*
X119238095Y-113907200D02*
X119190476Y-113859580D01*
X118190476Y-110454819D02*
X118809523Y-110454819D01*
X118809523Y-110454819D02*
X118476190Y-110835771D01*
X118476190Y-110835771D02*
X118619047Y-110835771D01*
X118619047Y-110835771D02*
X118714285Y-110883390D01*
X118714285Y-110883390D02*
X118761904Y-110931009D01*
X118761904Y-110931009D02*
X118809523Y-111026247D01*
X118809523Y-111026247D02*
X118809523Y-111264342D01*
X118809523Y-111264342D02*
X118761904Y-111359580D01*
X118761904Y-111359580D02*
X118714285Y-111407200D01*
X118714285Y-111407200D02*
X118619047Y-111454819D01*
X118619047Y-111454819D02*
X118333333Y-111454819D01*
X118333333Y-111454819D02*
X118238095Y-111407200D01*
X118238095Y-111407200D02*
X118190476Y-111359580D01*
X119142857Y-110454819D02*
X119761904Y-110454819D01*
X119761904Y-110454819D02*
X119428571Y-110835771D01*
X119428571Y-110835771D02*
X119571428Y-110835771D01*
X119571428Y-110835771D02*
X119666666Y-110883390D01*
X119666666Y-110883390D02*
X119714285Y-110931009D01*
X119714285Y-110931009D02*
X119761904Y-111026247D01*
X119761904Y-111026247D02*
X119761904Y-111264342D01*
X119761904Y-111264342D02*
X119714285Y-111359580D01*
X119714285Y-111359580D02*
X119666666Y-111407200D01*
X119666666Y-111407200D02*
X119571428Y-111454819D01*
X119571428Y-111454819D02*
X119285714Y-111454819D01*
X119285714Y-111454819D02*
X119190476Y-111407200D01*
X119190476Y-111407200D02*
X119142857Y-111359580D01*
X118238095Y-115550057D02*
X118285714Y-115502438D01*
X118285714Y-115502438D02*
X118380952Y-115454819D01*
X118380952Y-115454819D02*
X118619047Y-115454819D01*
X118619047Y-115454819D02*
X118714285Y-115502438D01*
X118714285Y-115502438D02*
X118761904Y-115550057D01*
X118761904Y-115550057D02*
X118809523Y-115645295D01*
X118809523Y-115645295D02*
X118809523Y-115740533D01*
X118809523Y-115740533D02*
X118761904Y-115883390D01*
X118761904Y-115883390D02*
X118190476Y-116454819D01*
X118190476Y-116454819D02*
X118809523Y-116454819D01*
X119666666Y-115454819D02*
X119476190Y-115454819D01*
X119476190Y-115454819D02*
X119380952Y-115502438D01*
X119380952Y-115502438D02*
X119333333Y-115550057D01*
X119333333Y-115550057D02*
X119238095Y-115692914D01*
X119238095Y-115692914D02*
X119190476Y-115883390D01*
X119190476Y-115883390D02*
X119190476Y-116264342D01*
X119190476Y-116264342D02*
X119238095Y-116359580D01*
X119238095Y-116359580D02*
X119285714Y-116407200D01*
X119285714Y-116407200D02*
X119380952Y-116454819D01*
X119380952Y-116454819D02*
X119571428Y-116454819D01*
X119571428Y-116454819D02*
X119666666Y-116407200D01*
X119666666Y-116407200D02*
X119714285Y-116359580D01*
X119714285Y-116359580D02*
X119761904Y-116264342D01*
X119761904Y-116264342D02*
X119761904Y-116026247D01*
X119761904Y-116026247D02*
X119714285Y-115931009D01*
X119714285Y-115931009D02*
X119666666Y-115883390D01*
X119666666Y-115883390D02*
X119571428Y-115835771D01*
X119571428Y-115835771D02*
X119380952Y-115835771D01*
X119380952Y-115835771D02*
X119285714Y-115883390D01*
X119285714Y-115883390D02*
X119238095Y-115931009D01*
X119238095Y-115931009D02*
X119190476Y-116026247D01*
X118190476Y-107954819D02*
X118809523Y-107954819D01*
X118809523Y-107954819D02*
X118476190Y-108335771D01*
X118476190Y-108335771D02*
X118619047Y-108335771D01*
X118619047Y-108335771D02*
X118714285Y-108383390D01*
X118714285Y-108383390D02*
X118761904Y-108431009D01*
X118761904Y-108431009D02*
X118809523Y-108526247D01*
X118809523Y-108526247D02*
X118809523Y-108764342D01*
X118809523Y-108764342D02*
X118761904Y-108859580D01*
X118761904Y-108859580D02*
X118714285Y-108907200D01*
X118714285Y-108907200D02*
X118619047Y-108954819D01*
X118619047Y-108954819D02*
X118333333Y-108954819D01*
X118333333Y-108954819D02*
X118238095Y-108907200D01*
X118238095Y-108907200D02*
X118190476Y-108859580D01*
X119190476Y-108050057D02*
X119238095Y-108002438D01*
X119238095Y-108002438D02*
X119333333Y-107954819D01*
X119333333Y-107954819D02*
X119571428Y-107954819D01*
X119571428Y-107954819D02*
X119666666Y-108002438D01*
X119666666Y-108002438D02*
X119714285Y-108050057D01*
X119714285Y-108050057D02*
X119761904Y-108145295D01*
X119761904Y-108145295D02*
X119761904Y-108240533D01*
X119761904Y-108240533D02*
X119714285Y-108383390D01*
X119714285Y-108383390D02*
X119142857Y-108954819D01*
X119142857Y-108954819D02*
X119761904Y-108954819D01*
X118261905Y-100431009D02*
X118595238Y-100431009D01*
X118738095Y-100954819D02*
X118261905Y-100954819D01*
X118261905Y-100954819D02*
X118261905Y-99954819D01*
X118261905Y-99954819D02*
X118738095Y-99954819D01*
X119166667Y-100954819D02*
X119166667Y-99954819D01*
X119166667Y-99954819D02*
X119738095Y-100954819D01*
X119738095Y-100954819D02*
X119738095Y-99954819D01*
X118190476Y-105454819D02*
X118809523Y-105454819D01*
X118809523Y-105454819D02*
X118476190Y-105835771D01*
X118476190Y-105835771D02*
X118619047Y-105835771D01*
X118619047Y-105835771D02*
X118714285Y-105883390D01*
X118714285Y-105883390D02*
X118761904Y-105931009D01*
X118761904Y-105931009D02*
X118809523Y-106026247D01*
X118809523Y-106026247D02*
X118809523Y-106264342D01*
X118809523Y-106264342D02*
X118761904Y-106359580D01*
X118761904Y-106359580D02*
X118714285Y-106407200D01*
X118714285Y-106407200D02*
X118619047Y-106454819D01*
X118619047Y-106454819D02*
X118333333Y-106454819D01*
X118333333Y-106454819D02*
X118238095Y-106407200D01*
X118238095Y-106407200D02*
X118190476Y-106359580D01*
X119714285Y-105454819D02*
X119238095Y-105454819D01*
X119238095Y-105454819D02*
X119190476Y-105931009D01*
X119190476Y-105931009D02*
X119238095Y-105883390D01*
X119238095Y-105883390D02*
X119333333Y-105835771D01*
X119333333Y-105835771D02*
X119571428Y-105835771D01*
X119571428Y-105835771D02*
X119666666Y-105883390D01*
X119666666Y-105883390D02*
X119714285Y-105931009D01*
X119714285Y-105931009D02*
X119761904Y-106026247D01*
X119761904Y-106026247D02*
X119761904Y-106264342D01*
X119761904Y-106264342D02*
X119714285Y-106359580D01*
X119714285Y-106359580D02*
X119666666Y-106407200D01*
X119666666Y-106407200D02*
X119571428Y-106454819D01*
X119571428Y-106454819D02*
X119333333Y-106454819D01*
X119333333Y-106454819D02*
X119238095Y-106407200D01*
X119238095Y-106407200D02*
X119190476Y-106359580D01*
X118142857Y-97454819D02*
X118476190Y-98454819D01*
X118476190Y-98454819D02*
X118809523Y-97454819D01*
X119142857Y-98454819D02*
X119142857Y-97454819D01*
X119142857Y-97454819D02*
X119714285Y-98454819D01*
X119714285Y-98454819D02*
X119714285Y-97454819D01*
X118190476Y-102454819D02*
X118809523Y-102454819D01*
X118809523Y-102454819D02*
X118476190Y-102835771D01*
X118476190Y-102835771D02*
X118619047Y-102835771D01*
X118619047Y-102835771D02*
X118714285Y-102883390D01*
X118714285Y-102883390D02*
X118761904Y-102931009D01*
X118761904Y-102931009D02*
X118809523Y-103026247D01*
X118809523Y-103026247D02*
X118809523Y-103264342D01*
X118809523Y-103264342D02*
X118761904Y-103359580D01*
X118761904Y-103359580D02*
X118714285Y-103407200D01*
X118714285Y-103407200D02*
X118619047Y-103454819D01*
X118619047Y-103454819D02*
X118333333Y-103454819D01*
X118333333Y-103454819D02*
X118238095Y-103407200D01*
X118238095Y-103407200D02*
X118190476Y-103359580D01*
X119666666Y-102788152D02*
X119666666Y-103454819D01*
X119428571Y-102407200D02*
X119190476Y-103121485D01*
X119190476Y-103121485D02*
X119809523Y-103121485D01*
X118166667Y-94954819D02*
X118500000Y-95954819D01*
X118500000Y-95954819D02*
X118833333Y-94954819D01*
X119166667Y-95954819D02*
X119166667Y-94954819D01*
X119166667Y-94954819D02*
X119547619Y-94954819D01*
X119547619Y-94954819D02*
X119642857Y-95002438D01*
X119642857Y-95002438D02*
X119690476Y-95050057D01*
X119690476Y-95050057D02*
X119738095Y-95145295D01*
X119738095Y-95145295D02*
X119738095Y-95288152D01*
X119738095Y-95288152D02*
X119690476Y-95383390D01*
X119690476Y-95383390D02*
X119642857Y-95431009D01*
X119642857Y-95431009D02*
X119547619Y-95478628D01*
X119547619Y-95478628D02*
X119166667Y-95478628D01*
X164214286Y-93407200D02*
X164357143Y-93454819D01*
X164357143Y-93454819D02*
X164595238Y-93454819D01*
X164595238Y-93454819D02*
X164690476Y-93407200D01*
X164690476Y-93407200D02*
X164738095Y-93359580D01*
X164738095Y-93359580D02*
X164785714Y-93264342D01*
X164785714Y-93264342D02*
X164785714Y-93169104D01*
X164785714Y-93169104D02*
X164738095Y-93073866D01*
X164738095Y-93073866D02*
X164690476Y-93026247D01*
X164690476Y-93026247D02*
X164595238Y-92978628D01*
X164595238Y-92978628D02*
X164404762Y-92931009D01*
X164404762Y-92931009D02*
X164309524Y-92883390D01*
X164309524Y-92883390D02*
X164261905Y-92835771D01*
X164261905Y-92835771D02*
X164214286Y-92740533D01*
X164214286Y-92740533D02*
X164214286Y-92645295D01*
X164214286Y-92645295D02*
X164261905Y-92550057D01*
X164261905Y-92550057D02*
X164309524Y-92502438D01*
X164309524Y-92502438D02*
X164404762Y-92454819D01*
X164404762Y-92454819D02*
X164642857Y-92454819D01*
X164642857Y-92454819D02*
X164785714Y-92502438D01*
X163238095Y-95002438D02*
X163142857Y-94954819D01*
X163142857Y-94954819D02*
X163000000Y-94954819D01*
X163000000Y-94954819D02*
X162857143Y-95002438D01*
X162857143Y-95002438D02*
X162761905Y-95097676D01*
X162761905Y-95097676D02*
X162714286Y-95192914D01*
X162714286Y-95192914D02*
X162666667Y-95383390D01*
X162666667Y-95383390D02*
X162666667Y-95526247D01*
X162666667Y-95526247D02*
X162714286Y-95716723D01*
X162714286Y-95716723D02*
X162761905Y-95811961D01*
X162761905Y-95811961D02*
X162857143Y-95907200D01*
X162857143Y-95907200D02*
X163000000Y-95954819D01*
X163000000Y-95954819D02*
X163095238Y-95954819D01*
X163095238Y-95954819D02*
X163238095Y-95907200D01*
X163238095Y-95907200D02*
X163285714Y-95859580D01*
X163285714Y-95859580D02*
X163285714Y-95526247D01*
X163285714Y-95526247D02*
X163095238Y-95526247D01*
X163714286Y-95954819D02*
X163714286Y-94954819D01*
X163714286Y-94954819D02*
X164285714Y-95954819D01*
X164285714Y-95954819D02*
X164285714Y-94954819D01*
X164761905Y-95954819D02*
X164761905Y-94954819D01*
X164761905Y-94954819D02*
X165000000Y-94954819D01*
X165000000Y-94954819D02*
X165142857Y-95002438D01*
X165142857Y-95002438D02*
X165238095Y-95097676D01*
X165238095Y-95097676D02*
X165285714Y-95192914D01*
X165285714Y-95192914D02*
X165333333Y-95383390D01*
X165333333Y-95383390D02*
X165333333Y-95526247D01*
X165333333Y-95526247D02*
X165285714Y-95716723D01*
X165285714Y-95716723D02*
X165238095Y-95811961D01*
X165238095Y-95811961D02*
X165142857Y-95907200D01*
X165142857Y-95907200D02*
X165000000Y-95954819D01*
X165000000Y-95954819D02*
X164761905Y-95954819D01*
X162357143Y-89954819D02*
X162690476Y-90954819D01*
X162690476Y-90954819D02*
X163023809Y-89954819D01*
X163690476Y-90431009D02*
X163833333Y-90478628D01*
X163833333Y-90478628D02*
X163880952Y-90526247D01*
X163880952Y-90526247D02*
X163928571Y-90621485D01*
X163928571Y-90621485D02*
X163928571Y-90764342D01*
X163928571Y-90764342D02*
X163880952Y-90859580D01*
X163880952Y-90859580D02*
X163833333Y-90907200D01*
X163833333Y-90907200D02*
X163738095Y-90954819D01*
X163738095Y-90954819D02*
X163357143Y-90954819D01*
X163357143Y-90954819D02*
X163357143Y-89954819D01*
X163357143Y-89954819D02*
X163690476Y-89954819D01*
X163690476Y-89954819D02*
X163785714Y-90002438D01*
X163785714Y-90002438D02*
X163833333Y-90050057D01*
X163833333Y-90050057D02*
X163880952Y-90145295D01*
X163880952Y-90145295D02*
X163880952Y-90240533D01*
X163880952Y-90240533D02*
X163833333Y-90335771D01*
X163833333Y-90335771D02*
X163785714Y-90383390D01*
X163785714Y-90383390D02*
X163690476Y-90431009D01*
X163690476Y-90431009D02*
X163357143Y-90431009D01*
X164309524Y-90669104D02*
X164785714Y-90669104D01*
X164214286Y-90954819D02*
X164547619Y-89954819D01*
X164547619Y-89954819D02*
X164880952Y-90954819D01*
X165071429Y-89954819D02*
X165642857Y-89954819D01*
X165357143Y-90954819D02*
X165357143Y-89954819D01*
X163738095Y-123502438D02*
X163642857Y-123454819D01*
X163642857Y-123454819D02*
X163500000Y-123454819D01*
X163500000Y-123454819D02*
X163357143Y-123502438D01*
X163357143Y-123502438D02*
X163261905Y-123597676D01*
X163261905Y-123597676D02*
X163214286Y-123692914D01*
X163214286Y-123692914D02*
X163166667Y-123883390D01*
X163166667Y-123883390D02*
X163166667Y-124026247D01*
X163166667Y-124026247D02*
X163214286Y-124216723D01*
X163214286Y-124216723D02*
X163261905Y-124311961D01*
X163261905Y-124311961D02*
X163357143Y-124407200D01*
X163357143Y-124407200D02*
X163500000Y-124454819D01*
X163500000Y-124454819D02*
X163595238Y-124454819D01*
X163595238Y-124454819D02*
X163738095Y-124407200D01*
X163738095Y-124407200D02*
X163785714Y-124359580D01*
X163785714Y-124359580D02*
X163785714Y-124026247D01*
X163785714Y-124026247D02*
X163595238Y-124026247D01*
X164214286Y-124454819D02*
X164214286Y-123454819D01*
X164214286Y-123454819D02*
X164785714Y-124454819D01*
X164785714Y-124454819D02*
X164785714Y-123454819D01*
X165261905Y-124454819D02*
X165261905Y-123454819D01*
X165261905Y-123454819D02*
X165500000Y-123454819D01*
X165500000Y-123454819D02*
X165642857Y-123502438D01*
X165642857Y-123502438D02*
X165738095Y-123597676D01*
X165738095Y-123597676D02*
X165785714Y-123692914D01*
X165785714Y-123692914D02*
X165833333Y-123883390D01*
X165833333Y-123883390D02*
X165833333Y-124026247D01*
X165833333Y-124026247D02*
X165785714Y-124216723D01*
X165785714Y-124216723D02*
X165738095Y-124311961D01*
X165738095Y-124311961D02*
X165642857Y-124407200D01*
X165642857Y-124407200D02*
X165500000Y-124454819D01*
X165500000Y-124454819D02*
X165261905Y-124454819D01*
X162357143Y-128954819D02*
X162690476Y-129954819D01*
X162690476Y-129954819D02*
X163023809Y-128954819D01*
X163690476Y-129431009D02*
X163833333Y-129478628D01*
X163833333Y-129478628D02*
X163880952Y-129526247D01*
X163880952Y-129526247D02*
X163928571Y-129621485D01*
X163928571Y-129621485D02*
X163928571Y-129764342D01*
X163928571Y-129764342D02*
X163880952Y-129859580D01*
X163880952Y-129859580D02*
X163833333Y-129907200D01*
X163833333Y-129907200D02*
X163738095Y-129954819D01*
X163738095Y-129954819D02*
X163357143Y-129954819D01*
X163357143Y-129954819D02*
X163357143Y-128954819D01*
X163357143Y-128954819D02*
X163690476Y-128954819D01*
X163690476Y-128954819D02*
X163785714Y-129002438D01*
X163785714Y-129002438D02*
X163833333Y-129050057D01*
X163833333Y-129050057D02*
X163880952Y-129145295D01*
X163880952Y-129145295D02*
X163880952Y-129240533D01*
X163880952Y-129240533D02*
X163833333Y-129335771D01*
X163833333Y-129335771D02*
X163785714Y-129383390D01*
X163785714Y-129383390D02*
X163690476Y-129431009D01*
X163690476Y-129431009D02*
X163357143Y-129431009D01*
X164309524Y-129669104D02*
X164785714Y-129669104D01*
X164214286Y-129954819D02*
X164547619Y-128954819D01*
X164547619Y-128954819D02*
X164880952Y-129954819D01*
X165071429Y-128954819D02*
X165642857Y-128954819D01*
X165357143Y-129954819D02*
X165357143Y-128954819D01*
X165285713Y-126092800D02*
X165142856Y-126045180D01*
X165142856Y-126045180D02*
X164904761Y-126045180D01*
X164904761Y-126045180D02*
X164809523Y-126092800D01*
X164809523Y-126092800D02*
X164761904Y-126140419D01*
X164761904Y-126140419D02*
X164714285Y-126235657D01*
X164714285Y-126235657D02*
X164714285Y-126330895D01*
X164714285Y-126330895D02*
X164761904Y-126426133D01*
X164761904Y-126426133D02*
X164809523Y-126473752D01*
X164809523Y-126473752D02*
X164904761Y-126521371D01*
X164904761Y-126521371D02*
X165095237Y-126568990D01*
X165095237Y-126568990D02*
X165190475Y-126616609D01*
X165190475Y-126616609D02*
X165238094Y-126664228D01*
X165238094Y-126664228D02*
X165285713Y-126759466D01*
X165285713Y-126759466D02*
X165285713Y-126854704D01*
X165285713Y-126854704D02*
X165238094Y-126949942D01*
X165238094Y-126949942D02*
X165190475Y-126997561D01*
X165190475Y-126997561D02*
X165095237Y-127045180D01*
X165095237Y-127045180D02*
X164857142Y-127045180D01*
X164857142Y-127045180D02*
X164714285Y-126997561D01*
X159952381Y-117954819D02*
X160047619Y-117954819D01*
X160047619Y-117954819D02*
X160142857Y-118002438D01*
X160142857Y-118002438D02*
X160190476Y-118050057D01*
X160190476Y-118050057D02*
X160238095Y-118145295D01*
X160238095Y-118145295D02*
X160285714Y-118335771D01*
X160285714Y-118335771D02*
X160285714Y-118573866D01*
X160285714Y-118573866D02*
X160238095Y-118764342D01*
X160238095Y-118764342D02*
X160190476Y-118859580D01*
X160190476Y-118859580D02*
X160142857Y-118907200D01*
X160142857Y-118907200D02*
X160047619Y-118954819D01*
X160047619Y-118954819D02*
X159952381Y-118954819D01*
X159952381Y-118954819D02*
X159857143Y-118907200D01*
X159857143Y-118907200D02*
X159809524Y-118859580D01*
X159809524Y-118859580D02*
X159761905Y-118764342D01*
X159761905Y-118764342D02*
X159714286Y-118573866D01*
X159714286Y-118573866D02*
X159714286Y-118335771D01*
X159714286Y-118335771D02*
X159761905Y-118145295D01*
X159761905Y-118145295D02*
X159809524Y-118050057D01*
X159809524Y-118050057D02*
X159857143Y-118002438D01*
X159857143Y-118002438D02*
X159952381Y-117954819D01*
X160190476Y-115788152D02*
X160190476Y-116454819D01*
X159952381Y-115407200D02*
X159714286Y-116121485D01*
X159714286Y-116121485D02*
X160333333Y-116121485D01*
X160309523Y-113954819D02*
X159738095Y-113954819D01*
X160023809Y-113954819D02*
X160023809Y-112954819D01*
X160023809Y-112954819D02*
X159928571Y-113097676D01*
X159928571Y-113097676D02*
X159833333Y-113192914D01*
X159833333Y-113192914D02*
X159738095Y-113240533D01*
X161166666Y-112954819D02*
X160976190Y-112954819D01*
X160976190Y-112954819D02*
X160880952Y-113002438D01*
X160880952Y-113002438D02*
X160833333Y-113050057D01*
X160833333Y-113050057D02*
X160738095Y-113192914D01*
X160738095Y-113192914D02*
X160690476Y-113383390D01*
X160690476Y-113383390D02*
X160690476Y-113764342D01*
X160690476Y-113764342D02*
X160738095Y-113859580D01*
X160738095Y-113859580D02*
X160785714Y-113907200D01*
X160785714Y-113907200D02*
X160880952Y-113954819D01*
X160880952Y-113954819D02*
X161071428Y-113954819D01*
X161071428Y-113954819D02*
X161166666Y-113907200D01*
X161166666Y-113907200D02*
X161214285Y-113859580D01*
X161214285Y-113859580D02*
X161261904Y-113764342D01*
X161261904Y-113764342D02*
X161261904Y-113526247D01*
X161261904Y-113526247D02*
X161214285Y-113431009D01*
X161214285Y-113431009D02*
X161166666Y-113383390D01*
X161166666Y-113383390D02*
X161071428Y-113335771D01*
X161071428Y-113335771D02*
X160880952Y-113335771D01*
X160880952Y-113335771D02*
X160785714Y-113383390D01*
X160785714Y-113383390D02*
X160738095Y-113431009D01*
X160738095Y-113431009D02*
X160690476Y-113526247D01*
X160309523Y-111454819D02*
X159738095Y-111454819D01*
X160023809Y-111454819D02*
X160023809Y-110454819D01*
X160023809Y-110454819D02*
X159928571Y-110597676D01*
X159928571Y-110597676D02*
X159833333Y-110692914D01*
X159833333Y-110692914D02*
X159738095Y-110740533D01*
X160642857Y-110454819D02*
X161309523Y-110454819D01*
X161309523Y-110454819D02*
X160880952Y-111454819D01*
X159976190Y-107954819D02*
X160071428Y-107954819D01*
X160071428Y-107954819D02*
X160166666Y-108002438D01*
X160166666Y-108002438D02*
X160214285Y-108050057D01*
X160214285Y-108050057D02*
X160261904Y-108145295D01*
X160261904Y-108145295D02*
X160309523Y-108335771D01*
X160309523Y-108335771D02*
X160309523Y-108573866D01*
X160309523Y-108573866D02*
X160261904Y-108764342D01*
X160261904Y-108764342D02*
X160214285Y-108859580D01*
X160214285Y-108859580D02*
X160166666Y-108907200D01*
X160166666Y-108907200D02*
X160071428Y-108954819D01*
X160071428Y-108954819D02*
X159976190Y-108954819D01*
X159976190Y-108954819D02*
X159880952Y-108907200D01*
X159880952Y-108907200D02*
X159833333Y-108859580D01*
X159833333Y-108859580D02*
X159785714Y-108764342D01*
X159785714Y-108764342D02*
X159738095Y-108573866D01*
X159738095Y-108573866D02*
X159738095Y-108335771D01*
X159738095Y-108335771D02*
X159785714Y-108145295D01*
X159785714Y-108145295D02*
X159833333Y-108050057D01*
X159833333Y-108050057D02*
X159880952Y-108002438D01*
X159880952Y-108002438D02*
X159976190Y-107954819D01*
X161214285Y-107954819D02*
X160738095Y-107954819D01*
X160738095Y-107954819D02*
X160690476Y-108431009D01*
X160690476Y-108431009D02*
X160738095Y-108383390D01*
X160738095Y-108383390D02*
X160833333Y-108335771D01*
X160833333Y-108335771D02*
X161071428Y-108335771D01*
X161071428Y-108335771D02*
X161166666Y-108383390D01*
X161166666Y-108383390D02*
X161214285Y-108431009D01*
X161214285Y-108431009D02*
X161261904Y-108526247D01*
X161261904Y-108526247D02*
X161261904Y-108764342D01*
X161261904Y-108764342D02*
X161214285Y-108859580D01*
X161214285Y-108859580D02*
X161166666Y-108907200D01*
X161166666Y-108907200D02*
X161071428Y-108954819D01*
X161071428Y-108954819D02*
X160833333Y-108954819D01*
X160833333Y-108954819D02*
X160738095Y-108907200D01*
X160738095Y-108907200D02*
X160690476Y-108859580D01*
X160309523Y-106454819D02*
X159738095Y-106454819D01*
X160023809Y-106454819D02*
X160023809Y-105454819D01*
X160023809Y-105454819D02*
X159928571Y-105597676D01*
X159928571Y-105597676D02*
X159833333Y-105692914D01*
X159833333Y-105692914D02*
X159738095Y-105740533D01*
X160880952Y-105883390D02*
X160785714Y-105835771D01*
X160785714Y-105835771D02*
X160738095Y-105788152D01*
X160738095Y-105788152D02*
X160690476Y-105692914D01*
X160690476Y-105692914D02*
X160690476Y-105645295D01*
X160690476Y-105645295D02*
X160738095Y-105550057D01*
X160738095Y-105550057D02*
X160785714Y-105502438D01*
X160785714Y-105502438D02*
X160880952Y-105454819D01*
X160880952Y-105454819D02*
X161071428Y-105454819D01*
X161071428Y-105454819D02*
X161166666Y-105502438D01*
X161166666Y-105502438D02*
X161214285Y-105550057D01*
X161214285Y-105550057D02*
X161261904Y-105645295D01*
X161261904Y-105645295D02*
X161261904Y-105692914D01*
X161261904Y-105692914D02*
X161214285Y-105788152D01*
X161214285Y-105788152D02*
X161166666Y-105835771D01*
X161166666Y-105835771D02*
X161071428Y-105883390D01*
X161071428Y-105883390D02*
X160880952Y-105883390D01*
X160880952Y-105883390D02*
X160785714Y-105931009D01*
X160785714Y-105931009D02*
X160738095Y-105978628D01*
X160738095Y-105978628D02*
X160690476Y-106073866D01*
X160690476Y-106073866D02*
X160690476Y-106264342D01*
X160690476Y-106264342D02*
X160738095Y-106359580D01*
X160738095Y-106359580D02*
X160785714Y-106407200D01*
X160785714Y-106407200D02*
X160880952Y-106454819D01*
X160880952Y-106454819D02*
X161071428Y-106454819D01*
X161071428Y-106454819D02*
X161166666Y-106407200D01*
X161166666Y-106407200D02*
X161214285Y-106359580D01*
X161214285Y-106359580D02*
X161261904Y-106264342D01*
X161261904Y-106264342D02*
X161261904Y-106073866D01*
X161261904Y-106073866D02*
X161214285Y-105978628D01*
X161214285Y-105978628D02*
X161166666Y-105931009D01*
X161166666Y-105931009D02*
X161071428Y-105883390D01*
X159738095Y-102550057D02*
X159785714Y-102502438D01*
X159785714Y-102502438D02*
X159880952Y-102454819D01*
X159880952Y-102454819D02*
X160119047Y-102454819D01*
X160119047Y-102454819D02*
X160214285Y-102502438D01*
X160214285Y-102502438D02*
X160261904Y-102550057D01*
X160261904Y-102550057D02*
X160309523Y-102645295D01*
X160309523Y-102645295D02*
X160309523Y-102740533D01*
X160309523Y-102740533D02*
X160261904Y-102883390D01*
X160261904Y-102883390D02*
X159690476Y-103454819D01*
X159690476Y-103454819D02*
X160309523Y-103454819D01*
X160642857Y-102454819D02*
X161261904Y-102454819D01*
X161261904Y-102454819D02*
X160928571Y-102835771D01*
X160928571Y-102835771D02*
X161071428Y-102835771D01*
X161071428Y-102835771D02*
X161166666Y-102883390D01*
X161166666Y-102883390D02*
X161214285Y-102931009D01*
X161214285Y-102931009D02*
X161261904Y-103026247D01*
X161261904Y-103026247D02*
X161261904Y-103264342D01*
X161261904Y-103264342D02*
X161214285Y-103359580D01*
X161214285Y-103359580D02*
X161166666Y-103407200D01*
X161166666Y-103407200D02*
X161071428Y-103454819D01*
X161071428Y-103454819D02*
X160785714Y-103454819D01*
X160785714Y-103454819D02*
X160690476Y-103407200D01*
X160690476Y-103407200D02*
X160642857Y-103359580D01*
X160309523Y-100954819D02*
X159738095Y-100954819D01*
X160023809Y-100954819D02*
X160023809Y-99954819D01*
X160023809Y-99954819D02*
X159928571Y-100097676D01*
X159928571Y-100097676D02*
X159833333Y-100192914D01*
X159833333Y-100192914D02*
X159738095Y-100240533D01*
X160785714Y-100954819D02*
X160976190Y-100954819D01*
X160976190Y-100954819D02*
X161071428Y-100907200D01*
X161071428Y-100907200D02*
X161119047Y-100859580D01*
X161119047Y-100859580D02*
X161214285Y-100716723D01*
X161214285Y-100716723D02*
X161261904Y-100526247D01*
X161261904Y-100526247D02*
X161261904Y-100145295D01*
X161261904Y-100145295D02*
X161214285Y-100050057D01*
X161214285Y-100050057D02*
X161166666Y-100002438D01*
X161166666Y-100002438D02*
X161071428Y-99954819D01*
X161071428Y-99954819D02*
X160880952Y-99954819D01*
X160880952Y-99954819D02*
X160785714Y-100002438D01*
X160785714Y-100002438D02*
X160738095Y-100050057D01*
X160738095Y-100050057D02*
X160690476Y-100145295D01*
X160690476Y-100145295D02*
X160690476Y-100383390D01*
X160690476Y-100383390D02*
X160738095Y-100478628D01*
X160738095Y-100478628D02*
X160785714Y-100526247D01*
X160785714Y-100526247D02*
X160880952Y-100573866D01*
X160880952Y-100573866D02*
X161071428Y-100573866D01*
X161071428Y-100573866D02*
X161166666Y-100526247D01*
X161166666Y-100526247D02*
X161214285Y-100478628D01*
X161214285Y-100478628D02*
X161261904Y-100383390D01*
X159738095Y-97550057D02*
X159785714Y-97502438D01*
X159785714Y-97502438D02*
X159880952Y-97454819D01*
X159880952Y-97454819D02*
X160119047Y-97454819D01*
X160119047Y-97454819D02*
X160214285Y-97502438D01*
X160214285Y-97502438D02*
X160261904Y-97550057D01*
X160261904Y-97550057D02*
X160309523Y-97645295D01*
X160309523Y-97645295D02*
X160309523Y-97740533D01*
X160309523Y-97740533D02*
X160261904Y-97883390D01*
X160261904Y-97883390D02*
X159690476Y-98454819D01*
X159690476Y-98454819D02*
X160309523Y-98454819D01*
X160690476Y-97550057D02*
X160738095Y-97502438D01*
X160738095Y-97502438D02*
X160833333Y-97454819D01*
X160833333Y-97454819D02*
X161071428Y-97454819D01*
X161071428Y-97454819D02*
X161166666Y-97502438D01*
X161166666Y-97502438D02*
X161214285Y-97550057D01*
X161214285Y-97550057D02*
X161261904Y-97645295D01*
X161261904Y-97645295D02*
X161261904Y-97740533D01*
X161261904Y-97740533D02*
X161214285Y-97883390D01*
X161214285Y-97883390D02*
X160642857Y-98454819D01*
X160642857Y-98454819D02*
X161261904Y-98454819D01*
X159714286Y-95050057D02*
X159761905Y-95002438D01*
X159761905Y-95002438D02*
X159857143Y-94954819D01*
X159857143Y-94954819D02*
X160095238Y-94954819D01*
X160095238Y-94954819D02*
X160190476Y-95002438D01*
X160190476Y-95002438D02*
X160238095Y-95050057D01*
X160238095Y-95050057D02*
X160285714Y-95145295D01*
X160285714Y-95145295D02*
X160285714Y-95240533D01*
X160285714Y-95240533D02*
X160238095Y-95383390D01*
X160238095Y-95383390D02*
X159666667Y-95954819D01*
X159666667Y-95954819D02*
X160285714Y-95954819D01*
X145502438Y-88452380D02*
X145454819Y-88547618D01*
X145454819Y-88547618D02*
X145454819Y-88690475D01*
X145454819Y-88690475D02*
X145502438Y-88833332D01*
X145502438Y-88833332D02*
X145597676Y-88928570D01*
X145597676Y-88928570D02*
X145692914Y-88976189D01*
X145692914Y-88976189D02*
X145883390Y-89023808D01*
X145883390Y-89023808D02*
X146026247Y-89023808D01*
X146026247Y-89023808D02*
X146216723Y-88976189D01*
X146216723Y-88976189D02*
X146311961Y-88928570D01*
X146311961Y-88928570D02*
X146407200Y-88833332D01*
X146407200Y-88833332D02*
X146454819Y-88690475D01*
X146454819Y-88690475D02*
X146454819Y-88595237D01*
X146454819Y-88595237D02*
X146407200Y-88452380D01*
X146407200Y-88452380D02*
X146359580Y-88404761D01*
X146359580Y-88404761D02*
X146026247Y-88404761D01*
X146026247Y-88404761D02*
X146026247Y-88595237D01*
X146454819Y-87976189D02*
X145454819Y-87976189D01*
X145454819Y-87976189D02*
X145454819Y-87595237D01*
X145454819Y-87595237D02*
X145502438Y-87499999D01*
X145502438Y-87499999D02*
X145550057Y-87452380D01*
X145550057Y-87452380D02*
X145645295Y-87404761D01*
X145645295Y-87404761D02*
X145788152Y-87404761D01*
X145788152Y-87404761D02*
X145883390Y-87452380D01*
X145883390Y-87452380D02*
X145931009Y-87499999D01*
X145931009Y-87499999D02*
X145978628Y-87595237D01*
X145978628Y-87595237D02*
X145978628Y-87976189D01*
X146454819Y-86976189D02*
X145454819Y-86976189D01*
X145454819Y-86309523D02*
X145454819Y-86119047D01*
X145454819Y-86119047D02*
X145502438Y-86023809D01*
X145502438Y-86023809D02*
X145597676Y-85928571D01*
X145597676Y-85928571D02*
X145788152Y-85880952D01*
X145788152Y-85880952D02*
X146121485Y-85880952D01*
X146121485Y-85880952D02*
X146311961Y-85928571D01*
X146311961Y-85928571D02*
X146407200Y-86023809D01*
X146407200Y-86023809D02*
X146454819Y-86119047D01*
X146454819Y-86119047D02*
X146454819Y-86309523D01*
X146454819Y-86309523D02*
X146407200Y-86404761D01*
X146407200Y-86404761D02*
X146311961Y-86499999D01*
X146311961Y-86499999D02*
X146121485Y-86547618D01*
X146121485Y-86547618D02*
X145788152Y-86547618D01*
X145788152Y-86547618D02*
X145597676Y-86499999D01*
X145597676Y-86499999D02*
X145502438Y-86404761D01*
X145502438Y-86404761D02*
X145454819Y-86309523D01*
X146454819Y-84928571D02*
X146454819Y-85499999D01*
X146454819Y-85214285D02*
X145454819Y-85214285D01*
X145454819Y-85214285D02*
X145597676Y-85309523D01*
X145597676Y-85309523D02*
X145692914Y-85404761D01*
X145692914Y-85404761D02*
X145740533Y-85499999D01*
X145788152Y-84071428D02*
X146454819Y-84071428D01*
X145407200Y-84309523D02*
X146121485Y-84547618D01*
X146121485Y-84547618D02*
X146121485Y-83928571D01*
X143002438Y-88452380D02*
X142954819Y-88547618D01*
X142954819Y-88547618D02*
X142954819Y-88690475D01*
X142954819Y-88690475D02*
X143002438Y-88833332D01*
X143002438Y-88833332D02*
X143097676Y-88928570D01*
X143097676Y-88928570D02*
X143192914Y-88976189D01*
X143192914Y-88976189D02*
X143383390Y-89023808D01*
X143383390Y-89023808D02*
X143526247Y-89023808D01*
X143526247Y-89023808D02*
X143716723Y-88976189D01*
X143716723Y-88976189D02*
X143811961Y-88928570D01*
X143811961Y-88928570D02*
X143907200Y-88833332D01*
X143907200Y-88833332D02*
X143954819Y-88690475D01*
X143954819Y-88690475D02*
X143954819Y-88595237D01*
X143954819Y-88595237D02*
X143907200Y-88452380D01*
X143907200Y-88452380D02*
X143859580Y-88404761D01*
X143859580Y-88404761D02*
X143526247Y-88404761D01*
X143526247Y-88404761D02*
X143526247Y-88595237D01*
X143954819Y-87976189D02*
X142954819Y-87976189D01*
X142954819Y-87976189D02*
X142954819Y-87595237D01*
X142954819Y-87595237D02*
X143002438Y-87499999D01*
X143002438Y-87499999D02*
X143050057Y-87452380D01*
X143050057Y-87452380D02*
X143145295Y-87404761D01*
X143145295Y-87404761D02*
X143288152Y-87404761D01*
X143288152Y-87404761D02*
X143383390Y-87452380D01*
X143383390Y-87452380D02*
X143431009Y-87499999D01*
X143431009Y-87499999D02*
X143478628Y-87595237D01*
X143478628Y-87595237D02*
X143478628Y-87976189D01*
X143954819Y-86976189D02*
X142954819Y-86976189D01*
X142954819Y-86309523D02*
X142954819Y-86119047D01*
X142954819Y-86119047D02*
X143002438Y-86023809D01*
X143002438Y-86023809D02*
X143097676Y-85928571D01*
X143097676Y-85928571D02*
X143288152Y-85880952D01*
X143288152Y-85880952D02*
X143621485Y-85880952D01*
X143621485Y-85880952D02*
X143811961Y-85928571D01*
X143811961Y-85928571D02*
X143907200Y-86023809D01*
X143907200Y-86023809D02*
X143954819Y-86119047D01*
X143954819Y-86119047D02*
X143954819Y-86309523D01*
X143954819Y-86309523D02*
X143907200Y-86404761D01*
X143907200Y-86404761D02*
X143811961Y-86499999D01*
X143811961Y-86499999D02*
X143621485Y-86547618D01*
X143621485Y-86547618D02*
X143288152Y-86547618D01*
X143288152Y-86547618D02*
X143097676Y-86499999D01*
X143097676Y-86499999D02*
X143002438Y-86404761D01*
X143002438Y-86404761D02*
X142954819Y-86309523D01*
X143050057Y-85499999D02*
X143002438Y-85452380D01*
X143002438Y-85452380D02*
X142954819Y-85357142D01*
X142954819Y-85357142D02*
X142954819Y-85119047D01*
X142954819Y-85119047D02*
X143002438Y-85023809D01*
X143002438Y-85023809D02*
X143050057Y-84976190D01*
X143050057Y-84976190D02*
X143145295Y-84928571D01*
X143145295Y-84928571D02*
X143240533Y-84928571D01*
X143240533Y-84928571D02*
X143383390Y-84976190D01*
X143383390Y-84976190D02*
X143954819Y-85547618D01*
X143954819Y-85547618D02*
X143954819Y-84928571D01*
X143050057Y-84547618D02*
X143002438Y-84499999D01*
X143002438Y-84499999D02*
X142954819Y-84404761D01*
X142954819Y-84404761D02*
X142954819Y-84166666D01*
X142954819Y-84166666D02*
X143002438Y-84071428D01*
X143002438Y-84071428D02*
X143050057Y-84023809D01*
X143050057Y-84023809D02*
X143145295Y-83976190D01*
X143145295Y-83976190D02*
X143240533Y-83976190D01*
X143240533Y-83976190D02*
X143383390Y-84023809D01*
X143383390Y-84023809D02*
X143954819Y-84595237D01*
X143954819Y-84595237D02*
X143954819Y-83976190D01*
X141407200Y-86690475D02*
X141454819Y-86547618D01*
X141454819Y-86547618D02*
X141454819Y-86309523D01*
X141454819Y-86309523D02*
X141407200Y-86214285D01*
X141407200Y-86214285D02*
X141359580Y-86166666D01*
X141359580Y-86166666D02*
X141264342Y-86119047D01*
X141264342Y-86119047D02*
X141169104Y-86119047D01*
X141169104Y-86119047D02*
X141073866Y-86166666D01*
X141073866Y-86166666D02*
X141026247Y-86214285D01*
X141026247Y-86214285D02*
X140978628Y-86309523D01*
X140978628Y-86309523D02*
X140931009Y-86499999D01*
X140931009Y-86499999D02*
X140883390Y-86595237D01*
X140883390Y-86595237D02*
X140835771Y-86642856D01*
X140835771Y-86642856D02*
X140740533Y-86690475D01*
X140740533Y-86690475D02*
X140645295Y-86690475D01*
X140645295Y-86690475D02*
X140550057Y-86642856D01*
X140550057Y-86642856D02*
X140502438Y-86595237D01*
X140502438Y-86595237D02*
X140454819Y-86499999D01*
X140454819Y-86499999D02*
X140454819Y-86261904D01*
X140454819Y-86261904D02*
X140502438Y-86119047D01*
X141359580Y-85119047D02*
X141407200Y-85166666D01*
X141407200Y-85166666D02*
X141454819Y-85309523D01*
X141454819Y-85309523D02*
X141454819Y-85404761D01*
X141454819Y-85404761D02*
X141407200Y-85547618D01*
X141407200Y-85547618D02*
X141311961Y-85642856D01*
X141311961Y-85642856D02*
X141216723Y-85690475D01*
X141216723Y-85690475D02*
X141026247Y-85738094D01*
X141026247Y-85738094D02*
X140883390Y-85738094D01*
X140883390Y-85738094D02*
X140692914Y-85690475D01*
X140692914Y-85690475D02*
X140597676Y-85642856D01*
X140597676Y-85642856D02*
X140502438Y-85547618D01*
X140502438Y-85547618D02*
X140454819Y-85404761D01*
X140454819Y-85404761D02*
X140454819Y-85309523D01*
X140454819Y-85309523D02*
X140502438Y-85166666D01*
X140502438Y-85166666D02*
X140550057Y-85119047D01*
X141454819Y-84214285D02*
X141454819Y-84690475D01*
X141454819Y-84690475D02*
X140454819Y-84690475D01*
X138907200Y-86714285D02*
X138954819Y-86571428D01*
X138954819Y-86571428D02*
X138954819Y-86333333D01*
X138954819Y-86333333D02*
X138907200Y-86238095D01*
X138907200Y-86238095D02*
X138859580Y-86190476D01*
X138859580Y-86190476D02*
X138764342Y-86142857D01*
X138764342Y-86142857D02*
X138669104Y-86142857D01*
X138669104Y-86142857D02*
X138573866Y-86190476D01*
X138573866Y-86190476D02*
X138526247Y-86238095D01*
X138526247Y-86238095D02*
X138478628Y-86333333D01*
X138478628Y-86333333D02*
X138431009Y-86523809D01*
X138431009Y-86523809D02*
X138383390Y-86619047D01*
X138383390Y-86619047D02*
X138335771Y-86666666D01*
X138335771Y-86666666D02*
X138240533Y-86714285D01*
X138240533Y-86714285D02*
X138145295Y-86714285D01*
X138145295Y-86714285D02*
X138050057Y-86666666D01*
X138050057Y-86666666D02*
X138002438Y-86619047D01*
X138002438Y-86619047D02*
X137954819Y-86523809D01*
X137954819Y-86523809D02*
X137954819Y-86285714D01*
X137954819Y-86285714D02*
X138002438Y-86142857D01*
X138954819Y-85714285D02*
X137954819Y-85714285D01*
X137954819Y-85714285D02*
X137954819Y-85476190D01*
X137954819Y-85476190D02*
X138002438Y-85333333D01*
X138002438Y-85333333D02*
X138097676Y-85238095D01*
X138097676Y-85238095D02*
X138192914Y-85190476D01*
X138192914Y-85190476D02*
X138383390Y-85142857D01*
X138383390Y-85142857D02*
X138526247Y-85142857D01*
X138526247Y-85142857D02*
X138716723Y-85190476D01*
X138716723Y-85190476D02*
X138811961Y-85238095D01*
X138811961Y-85238095D02*
X138907200Y-85333333D01*
X138907200Y-85333333D02*
X138954819Y-85476190D01*
X138954819Y-85476190D02*
X138954819Y-85714285D01*
X138669104Y-84761904D02*
X138669104Y-84285714D01*
X138954819Y-84857142D02*
X137954819Y-84523809D01*
X137954819Y-84523809D02*
X138954819Y-84190476D01*
X135502438Y-86261904D02*
X135454819Y-86357142D01*
X135454819Y-86357142D02*
X135454819Y-86499999D01*
X135454819Y-86499999D02*
X135502438Y-86642856D01*
X135502438Y-86642856D02*
X135597676Y-86738094D01*
X135597676Y-86738094D02*
X135692914Y-86785713D01*
X135692914Y-86785713D02*
X135883390Y-86833332D01*
X135883390Y-86833332D02*
X136026247Y-86833332D01*
X136026247Y-86833332D02*
X136216723Y-86785713D01*
X136216723Y-86785713D02*
X136311961Y-86738094D01*
X136311961Y-86738094D02*
X136407200Y-86642856D01*
X136407200Y-86642856D02*
X136454819Y-86499999D01*
X136454819Y-86499999D02*
X136454819Y-86404761D01*
X136454819Y-86404761D02*
X136407200Y-86261904D01*
X136407200Y-86261904D02*
X136359580Y-86214285D01*
X136359580Y-86214285D02*
X136026247Y-86214285D01*
X136026247Y-86214285D02*
X136026247Y-86404761D01*
X136454819Y-85785713D02*
X135454819Y-85785713D01*
X135454819Y-85785713D02*
X136454819Y-85214285D01*
X136454819Y-85214285D02*
X135454819Y-85214285D01*
X136454819Y-84738094D02*
X135454819Y-84738094D01*
X135454819Y-84738094D02*
X135454819Y-84499999D01*
X135454819Y-84499999D02*
X135502438Y-84357142D01*
X135502438Y-84357142D02*
X135597676Y-84261904D01*
X135597676Y-84261904D02*
X135692914Y-84214285D01*
X135692914Y-84214285D02*
X135883390Y-84166666D01*
X135883390Y-84166666D02*
X136026247Y-84166666D01*
X136026247Y-84166666D02*
X136216723Y-84214285D01*
X136216723Y-84214285D02*
X136311961Y-84261904D01*
X136311961Y-84261904D02*
X136407200Y-84357142D01*
X136407200Y-84357142D02*
X136454819Y-84499999D01*
X136454819Y-84499999D02*
X136454819Y-84738094D01*
X132454819Y-86738094D02*
X132454819Y-86119047D01*
X132454819Y-86119047D02*
X132835771Y-86452380D01*
X132835771Y-86452380D02*
X132835771Y-86309523D01*
X132835771Y-86309523D02*
X132883390Y-86214285D01*
X132883390Y-86214285D02*
X132931009Y-86166666D01*
X132931009Y-86166666D02*
X133026247Y-86119047D01*
X133026247Y-86119047D02*
X133264342Y-86119047D01*
X133264342Y-86119047D02*
X133359580Y-86166666D01*
X133359580Y-86166666D02*
X133407200Y-86214285D01*
X133407200Y-86214285D02*
X133454819Y-86309523D01*
X133454819Y-86309523D02*
X133454819Y-86595237D01*
X133454819Y-86595237D02*
X133407200Y-86690475D01*
X133407200Y-86690475D02*
X133359580Y-86738094D01*
X132454819Y-85833332D02*
X133454819Y-85499999D01*
X133454819Y-85499999D02*
X132454819Y-85166666D01*
X132454819Y-84928570D02*
X132454819Y-84309523D01*
X132454819Y-84309523D02*
X132835771Y-84642856D01*
X132835771Y-84642856D02*
X132835771Y-84499999D01*
X132835771Y-84499999D02*
X132883390Y-84404761D01*
X132883390Y-84404761D02*
X132931009Y-84357142D01*
X132931009Y-84357142D02*
X133026247Y-84309523D01*
X133026247Y-84309523D02*
X133264342Y-84309523D01*
X133264342Y-84309523D02*
X133359580Y-84357142D01*
X133359580Y-84357142D02*
X133407200Y-84404761D01*
X133407200Y-84404761D02*
X133454819Y-84499999D01*
X133454819Y-84499999D02*
X133454819Y-84785713D01*
X133454819Y-84785713D02*
X133407200Y-84880951D01*
X133407200Y-84880951D02*
X133359580Y-84928570D01*
X161426133Y-132619048D02*
X161426133Y-133380953D01*
X161045180Y-133000000D02*
X161807085Y-133000000D01*
X152926133Y-132619048D02*
X152926133Y-133380953D01*
X152545180Y-133000000D02*
X153307085Y-133000000D01*
X121426133Y-138119048D02*
X121426133Y-138880953D01*
X124426133Y-130619048D02*
X124426133Y-131380953D01*
X124045180Y-131000000D02*
X124807085Y-131000000D01*
X120426133Y-130619048D02*
X120426133Y-131380953D01*
X120045180Y-131000000D02*
X120807085Y-131000000D01*
X124926133Y-138119048D02*
X124926133Y-138880953D01*
X129431009Y-137404761D02*
X129431009Y-137071428D01*
X129954819Y-136928571D02*
X129954819Y-137404761D01*
X129954819Y-137404761D02*
X128954819Y-137404761D01*
X128954819Y-137404761D02*
X128954819Y-136928571D01*
X129907200Y-136547618D02*
X129954819Y-136404761D01*
X129954819Y-136404761D02*
X129954819Y-136166666D01*
X129954819Y-136166666D02*
X129907200Y-136071428D01*
X129907200Y-136071428D02*
X129859580Y-136023809D01*
X129859580Y-136023809D02*
X129764342Y-135976190D01*
X129764342Y-135976190D02*
X129669104Y-135976190D01*
X129669104Y-135976190D02*
X129573866Y-136023809D01*
X129573866Y-136023809D02*
X129526247Y-136071428D01*
X129526247Y-136071428D02*
X129478628Y-136166666D01*
X129478628Y-136166666D02*
X129431009Y-136357142D01*
X129431009Y-136357142D02*
X129383390Y-136452380D01*
X129383390Y-136452380D02*
X129335771Y-136499999D01*
X129335771Y-136499999D02*
X129240533Y-136547618D01*
X129240533Y-136547618D02*
X129145295Y-136547618D01*
X129145295Y-136547618D02*
X129050057Y-136499999D01*
X129050057Y-136499999D02*
X129002438Y-136452380D01*
X129002438Y-136452380D02*
X128954819Y-136357142D01*
X128954819Y-136357142D02*
X128954819Y-136119047D01*
X128954819Y-136119047D02*
X129002438Y-135976190D01*
X129954819Y-135547618D02*
X128954819Y-135547618D01*
X128954819Y-135547618D02*
X128954819Y-135166666D01*
X128954819Y-135166666D02*
X129002438Y-135071428D01*
X129002438Y-135071428D02*
X129050057Y-135023809D01*
X129050057Y-135023809D02*
X129145295Y-134976190D01*
X129145295Y-134976190D02*
X129288152Y-134976190D01*
X129288152Y-134976190D02*
X129383390Y-135023809D01*
X129383390Y-135023809D02*
X129431009Y-135071428D01*
X129431009Y-135071428D02*
X129478628Y-135166666D01*
X129478628Y-135166666D02*
X129478628Y-135547618D01*
X130050057Y-134785714D02*
X130050057Y-134023809D01*
X129954819Y-133785713D02*
X128954819Y-133785713D01*
X128954819Y-133785713D02*
X128954819Y-133404761D01*
X128954819Y-133404761D02*
X129002438Y-133309523D01*
X129002438Y-133309523D02*
X129050057Y-133261904D01*
X129050057Y-133261904D02*
X129145295Y-133214285D01*
X129145295Y-133214285D02*
X129288152Y-133214285D01*
X129288152Y-133214285D02*
X129383390Y-133261904D01*
X129383390Y-133261904D02*
X129431009Y-133309523D01*
X129431009Y-133309523D02*
X129478628Y-133404761D01*
X129478628Y-133404761D02*
X129478628Y-133785713D01*
X129288152Y-132880951D02*
X129954819Y-132690475D01*
X129954819Y-132690475D02*
X129478628Y-132499999D01*
X129478628Y-132499999D02*
X129954819Y-132309523D01*
X129954819Y-132309523D02*
X129288152Y-132119047D01*
X129954819Y-131738094D02*
X129288152Y-131738094D01*
X129478628Y-131738094D02*
X129383390Y-131690475D01*
X129383390Y-131690475D02*
X129335771Y-131642856D01*
X129335771Y-131642856D02*
X129288152Y-131547618D01*
X129288152Y-131547618D02*
X129288152Y-131452380D01*
X151907200Y-136714285D02*
X151954819Y-136571428D01*
X151954819Y-136571428D02*
X151954819Y-136333333D01*
X151954819Y-136333333D02*
X151907200Y-136238095D01*
X151907200Y-136238095D02*
X151859580Y-136190476D01*
X151859580Y-136190476D02*
X151764342Y-136142857D01*
X151764342Y-136142857D02*
X151669104Y-136142857D01*
X151669104Y-136142857D02*
X151573866Y-136190476D01*
X151573866Y-136190476D02*
X151526247Y-136238095D01*
X151526247Y-136238095D02*
X151478628Y-136333333D01*
X151478628Y-136333333D02*
X151431009Y-136523809D01*
X151431009Y-136523809D02*
X151383390Y-136619047D01*
X151383390Y-136619047D02*
X151335771Y-136666666D01*
X151335771Y-136666666D02*
X151240533Y-136714285D01*
X151240533Y-136714285D02*
X151145295Y-136714285D01*
X151145295Y-136714285D02*
X151050057Y-136666666D01*
X151050057Y-136666666D02*
X151002438Y-136619047D01*
X151002438Y-136619047D02*
X150954819Y-136523809D01*
X150954819Y-136523809D02*
X150954819Y-136285714D01*
X150954819Y-136285714D02*
X151002438Y-136142857D01*
X150954819Y-135809523D02*
X151954819Y-135571428D01*
X151954819Y-135571428D02*
X151240533Y-135380952D01*
X151240533Y-135380952D02*
X151954819Y-135190476D01*
X151954819Y-135190476D02*
X150954819Y-134952381D01*
X152050057Y-134809524D02*
X152050057Y-134047619D01*
X151050057Y-133857142D02*
X151002438Y-133809523D01*
X151002438Y-133809523D02*
X150954819Y-133714285D01*
X150954819Y-133714285D02*
X150954819Y-133476190D01*
X150954819Y-133476190D02*
X151002438Y-133380952D01*
X151002438Y-133380952D02*
X151050057Y-133333333D01*
X151050057Y-133333333D02*
X151145295Y-133285714D01*
X151145295Y-133285714D02*
X151240533Y-133285714D01*
X151240533Y-133285714D02*
X151383390Y-133333333D01*
X151383390Y-133333333D02*
X151954819Y-133904761D01*
X151954819Y-133904761D02*
X151954819Y-133285714D01*
X149907200Y-136714285D02*
X149954819Y-136571428D01*
X149954819Y-136571428D02*
X149954819Y-136333333D01*
X149954819Y-136333333D02*
X149907200Y-136238095D01*
X149907200Y-136238095D02*
X149859580Y-136190476D01*
X149859580Y-136190476D02*
X149764342Y-136142857D01*
X149764342Y-136142857D02*
X149669104Y-136142857D01*
X149669104Y-136142857D02*
X149573866Y-136190476D01*
X149573866Y-136190476D02*
X149526247Y-136238095D01*
X149526247Y-136238095D02*
X149478628Y-136333333D01*
X149478628Y-136333333D02*
X149431009Y-136523809D01*
X149431009Y-136523809D02*
X149383390Y-136619047D01*
X149383390Y-136619047D02*
X149335771Y-136666666D01*
X149335771Y-136666666D02*
X149240533Y-136714285D01*
X149240533Y-136714285D02*
X149145295Y-136714285D01*
X149145295Y-136714285D02*
X149050057Y-136666666D01*
X149050057Y-136666666D02*
X149002438Y-136619047D01*
X149002438Y-136619047D02*
X148954819Y-136523809D01*
X148954819Y-136523809D02*
X148954819Y-136285714D01*
X148954819Y-136285714D02*
X149002438Y-136142857D01*
X148954819Y-135809523D02*
X149954819Y-135571428D01*
X149954819Y-135571428D02*
X149240533Y-135380952D01*
X149240533Y-135380952D02*
X149954819Y-135190476D01*
X149954819Y-135190476D02*
X148954819Y-134952381D01*
X150050057Y-134809524D02*
X150050057Y-134047619D01*
X149954819Y-133285714D02*
X149954819Y-133857142D01*
X149954819Y-133571428D02*
X148954819Y-133571428D01*
X148954819Y-133571428D02*
X149097676Y-133666666D01*
X149097676Y-133666666D02*
X149192914Y-133761904D01*
X149192914Y-133761904D02*
X149240533Y-133857142D01*
X168454819Y-116714285D02*
X167454819Y-116714285D01*
X167454819Y-116714285D02*
X168169104Y-116380952D01*
X168169104Y-116380952D02*
X167454819Y-116047619D01*
X167454819Y-116047619D02*
X168454819Y-116047619D01*
X168550057Y-115809524D02*
X168550057Y-115047619D01*
X168454819Y-114238095D02*
X167978628Y-114571428D01*
X168454819Y-114809523D02*
X167454819Y-114809523D01*
X167454819Y-114809523D02*
X167454819Y-114428571D01*
X167454819Y-114428571D02*
X167502438Y-114333333D01*
X167502438Y-114333333D02*
X167550057Y-114285714D01*
X167550057Y-114285714D02*
X167645295Y-114238095D01*
X167645295Y-114238095D02*
X167788152Y-114238095D01*
X167788152Y-114238095D02*
X167883390Y-114285714D01*
X167883390Y-114285714D02*
X167931009Y-114333333D01*
X167931009Y-114333333D02*
X167978628Y-114428571D01*
X167978628Y-114428571D02*
X167978628Y-114809523D01*
X111954819Y-116119047D02*
X110954819Y-116119047D01*
X110954819Y-116119047D02*
X111669104Y-115785714D01*
X111669104Y-115785714D02*
X110954819Y-115452381D01*
X110954819Y-115452381D02*
X111954819Y-115452381D01*
X112050057Y-115214286D02*
X112050057Y-114452381D01*
X111954819Y-113738095D02*
X111954819Y-114214285D01*
X111954819Y-114214285D02*
X110954819Y-114214285D01*
X135000000Y-121519104D02*
X135476190Y-121519104D01*
X134904762Y-121804819D02*
X135238095Y-120804819D01*
X135238095Y-120804819D02*
X135571428Y-121804819D01*
X135904762Y-121804819D02*
X135904762Y-120804819D01*
X135904762Y-120804819D02*
X136238095Y-121519104D01*
X136238095Y-121519104D02*
X136571428Y-120804819D01*
X136571428Y-120804819D02*
X136571428Y-121804819D01*
X137000000Y-121757200D02*
X137142857Y-121804819D01*
X137142857Y-121804819D02*
X137380952Y-121804819D01*
X137380952Y-121804819D02*
X137476190Y-121757200D01*
X137476190Y-121757200D02*
X137523809Y-121709580D01*
X137523809Y-121709580D02*
X137571428Y-121614342D01*
X137571428Y-121614342D02*
X137571428Y-121519104D01*
X137571428Y-121519104D02*
X137523809Y-121423866D01*
X137523809Y-121423866D02*
X137476190Y-121376247D01*
X137476190Y-121376247D02*
X137380952Y-121328628D01*
X137380952Y-121328628D02*
X137190476Y-121281009D01*
X137190476Y-121281009D02*
X137095238Y-121233390D01*
X137095238Y-121233390D02*
X137047619Y-121185771D01*
X137047619Y-121185771D02*
X137000000Y-121090533D01*
X137000000Y-121090533D02*
X137000000Y-120995295D01*
X137000000Y-120995295D02*
X137047619Y-120900057D01*
X137047619Y-120900057D02*
X137095238Y-120852438D01*
X137095238Y-120852438D02*
X137190476Y-120804819D01*
X137190476Y-120804819D02*
X137428571Y-120804819D01*
X137428571Y-120804819D02*
X137571428Y-120852438D01*
X138523809Y-121804819D02*
X137952381Y-121804819D01*
X138238095Y-121804819D02*
X138238095Y-120804819D01*
X138238095Y-120804819D02*
X138142857Y-120947676D01*
X138142857Y-120947676D02*
X138047619Y-121042914D01*
X138047619Y-121042914D02*
X137952381Y-121090533D01*
X139476190Y-121804819D02*
X138904762Y-121804819D01*
X139190476Y-121804819D02*
X139190476Y-120804819D01*
X139190476Y-120804819D02*
X139095238Y-120947676D01*
X139095238Y-120947676D02*
X139000000Y-121042914D01*
X139000000Y-121042914D02*
X138904762Y-121090533D01*
X140428571Y-121804819D02*
X139857143Y-121804819D01*
X140142857Y-121804819D02*
X140142857Y-120804819D01*
X140142857Y-120804819D02*
X140047619Y-120947676D01*
X140047619Y-120947676D02*
X139952381Y-121042914D01*
X139952381Y-121042914D02*
X139857143Y-121090533D01*
X140761905Y-120804819D02*
X141428571Y-120804819D01*
X141428571Y-120804819D02*
X141000000Y-121804819D01*
X141809524Y-121423866D02*
X142571429Y-121423866D01*
X142952381Y-120804819D02*
X143571428Y-120804819D01*
X143571428Y-120804819D02*
X143238095Y-121185771D01*
X143238095Y-121185771D02*
X143380952Y-121185771D01*
X143380952Y-121185771D02*
X143476190Y-121233390D01*
X143476190Y-121233390D02*
X143523809Y-121281009D01*
X143523809Y-121281009D02*
X143571428Y-121376247D01*
X143571428Y-121376247D02*
X143571428Y-121614342D01*
X143571428Y-121614342D02*
X143523809Y-121709580D01*
X143523809Y-121709580D02*
X143476190Y-121757200D01*
X143476190Y-121757200D02*
X143380952Y-121804819D01*
X143380952Y-121804819D02*
X143095238Y-121804819D01*
X143095238Y-121804819D02*
X143000000Y-121757200D01*
X143000000Y-121757200D02*
X142952381Y-121709580D01*
X144000000Y-121709580D02*
X144047619Y-121757200D01*
X144047619Y-121757200D02*
X144000000Y-121804819D01*
X144000000Y-121804819D02*
X143952381Y-121757200D01*
X143952381Y-121757200D02*
X144000000Y-121709580D01*
X144000000Y-121709580D02*
X144000000Y-121804819D01*
X144380952Y-120804819D02*
X144999999Y-120804819D01*
X144999999Y-120804819D02*
X144666666Y-121185771D01*
X144666666Y-121185771D02*
X144809523Y-121185771D01*
X144809523Y-121185771D02*
X144904761Y-121233390D01*
X144904761Y-121233390D02*
X144952380Y-121281009D01*
X144952380Y-121281009D02*
X144999999Y-121376247D01*
X144999999Y-121376247D02*
X144999999Y-121614342D01*
X144999999Y-121614342D02*
X144952380Y-121709580D01*
X144952380Y-121709580D02*
X144904761Y-121757200D01*
X144904761Y-121757200D02*
X144809523Y-121804819D01*
X144809523Y-121804819D02*
X144523809Y-121804819D01*
X144523809Y-121804819D02*
X144428571Y-121757200D01*
X144428571Y-121757200D02*
X144380952Y-121709580D01*
X137285714Y-116954819D02*
X137285714Y-115954819D01*
X137285714Y-115954819D02*
X137619047Y-116669104D01*
X137619047Y-116669104D02*
X137952380Y-115954819D01*
X137952380Y-115954819D02*
X137952380Y-116954819D01*
X138333333Y-115954819D02*
X138999999Y-116954819D01*
X138999999Y-115954819D02*
X138333333Y-116954819D01*
X139904761Y-116954819D02*
X139333333Y-116954819D01*
X139619047Y-116954819D02*
X139619047Y-115954819D01*
X139619047Y-115954819D02*
X139523809Y-116097676D01*
X139523809Y-116097676D02*
X139428571Y-116192914D01*
X139428571Y-116192914D02*
X139333333Y-116240533D01*
X140809523Y-115954819D02*
X140333333Y-115954819D01*
X140333333Y-115954819D02*
X140285714Y-116431009D01*
X140285714Y-116431009D02*
X140333333Y-116383390D01*
X140333333Y-116383390D02*
X140428571Y-116335771D01*
X140428571Y-116335771D02*
X140666666Y-116335771D01*
X140666666Y-116335771D02*
X140761904Y-116383390D01*
X140761904Y-116383390D02*
X140809523Y-116431009D01*
X140809523Y-116431009D02*
X140857142Y-116526247D01*
X140857142Y-116526247D02*
X140857142Y-116764342D01*
X140857142Y-116764342D02*
X140809523Y-116859580D01*
X140809523Y-116859580D02*
X140761904Y-116907200D01*
X140761904Y-116907200D02*
X140666666Y-116954819D01*
X140666666Y-116954819D02*
X140428571Y-116954819D01*
X140428571Y-116954819D02*
X140333333Y-116907200D01*
X140333333Y-116907200D02*
X140285714Y-116859580D01*
X141476190Y-115954819D02*
X141571428Y-115954819D01*
X141571428Y-115954819D02*
X141666666Y-116002438D01*
X141666666Y-116002438D02*
X141714285Y-116050057D01*
X141714285Y-116050057D02*
X141761904Y-116145295D01*
X141761904Y-116145295D02*
X141809523Y-116335771D01*
X141809523Y-116335771D02*
X141809523Y-116573866D01*
X141809523Y-116573866D02*
X141761904Y-116764342D01*
X141761904Y-116764342D02*
X141714285Y-116859580D01*
X141714285Y-116859580D02*
X141666666Y-116907200D01*
X141666666Y-116907200D02*
X141571428Y-116954819D01*
X141571428Y-116954819D02*
X141476190Y-116954819D01*
X141476190Y-116954819D02*
X141380952Y-116907200D01*
X141380952Y-116907200D02*
X141333333Y-116859580D01*
X141333333Y-116859580D02*
X141285714Y-116764342D01*
X141285714Y-116764342D02*
X141238095Y-116573866D01*
X141238095Y-116573866D02*
X141238095Y-116335771D01*
X141238095Y-116335771D02*
X141285714Y-116145295D01*
X141285714Y-116145295D02*
X141333333Y-116050057D01*
X141333333Y-116050057D02*
X141380952Y-116002438D01*
X141380952Y-116002438D02*
X141476190Y-115954819D01*
X142380952Y-116383390D02*
X142285714Y-116335771D01*
X142285714Y-116335771D02*
X142238095Y-116288152D01*
X142238095Y-116288152D02*
X142190476Y-116192914D01*
X142190476Y-116192914D02*
X142190476Y-116145295D01*
X142190476Y-116145295D02*
X142238095Y-116050057D01*
X142238095Y-116050057D02*
X142285714Y-116002438D01*
X142285714Y-116002438D02*
X142380952Y-115954819D01*
X142380952Y-115954819D02*
X142571428Y-115954819D01*
X142571428Y-115954819D02*
X142666666Y-116002438D01*
X142666666Y-116002438D02*
X142714285Y-116050057D01*
X142714285Y-116050057D02*
X142761904Y-116145295D01*
X142761904Y-116145295D02*
X142761904Y-116192914D01*
X142761904Y-116192914D02*
X142714285Y-116288152D01*
X142714285Y-116288152D02*
X142666666Y-116335771D01*
X142666666Y-116335771D02*
X142571428Y-116383390D01*
X142571428Y-116383390D02*
X142380952Y-116383390D01*
X142380952Y-116383390D02*
X142285714Y-116431009D01*
X142285714Y-116431009D02*
X142238095Y-116478628D01*
X142238095Y-116478628D02*
X142190476Y-116573866D01*
X142190476Y-116573866D02*
X142190476Y-116764342D01*
X142190476Y-116764342D02*
X142238095Y-116859580D01*
X142238095Y-116859580D02*
X142285714Y-116907200D01*
X142285714Y-116907200D02*
X142380952Y-116954819D01*
X142380952Y-116954819D02*
X142571428Y-116954819D01*
X142571428Y-116954819D02*
X142666666Y-116907200D01*
X142666666Y-116907200D02*
X142714285Y-116859580D01*
X142714285Y-116859580D02*
X142761904Y-116764342D01*
X142761904Y-116764342D02*
X142761904Y-116573866D01*
X142761904Y-116573866D02*
X142714285Y-116478628D01*
X142714285Y-116478628D02*
X142666666Y-116431009D01*
X142666666Y-116431009D02*
X142571428Y-116383390D01*
X138833333Y-101104819D02*
X138261905Y-101104819D01*
X138547619Y-101104819D02*
X138547619Y-100104819D01*
X138547619Y-100104819D02*
X138452381Y-100247676D01*
X138452381Y-100247676D02*
X138357143Y-100342914D01*
X138357143Y-100342914D02*
X138261905Y-100390533D01*
X139452381Y-100104819D02*
X139547619Y-100104819D01*
X139547619Y-100104819D02*
X139642857Y-100152438D01*
X139642857Y-100152438D02*
X139690476Y-100200057D01*
X139690476Y-100200057D02*
X139738095Y-100295295D01*
X139738095Y-100295295D02*
X139785714Y-100485771D01*
X139785714Y-100485771D02*
X139785714Y-100723866D01*
X139785714Y-100723866D02*
X139738095Y-100914342D01*
X139738095Y-100914342D02*
X139690476Y-101009580D01*
X139690476Y-101009580D02*
X139642857Y-101057200D01*
X139642857Y-101057200D02*
X139547619Y-101104819D01*
X139547619Y-101104819D02*
X139452381Y-101104819D01*
X139452381Y-101104819D02*
X139357143Y-101057200D01*
X139357143Y-101057200D02*
X139309524Y-101009580D01*
X139309524Y-101009580D02*
X139261905Y-100914342D01*
X139261905Y-100914342D02*
X139214286Y-100723866D01*
X139214286Y-100723866D02*
X139214286Y-100485771D01*
X139214286Y-100485771D02*
X139261905Y-100295295D01*
X139261905Y-100295295D02*
X139309524Y-100200057D01*
X139309524Y-100200057D02*
X139357143Y-100152438D01*
X139357143Y-100152438D02*
X139452381Y-100104819D01*
X140404762Y-100104819D02*
X140500000Y-100104819D01*
X140500000Y-100104819D02*
X140595238Y-100152438D01*
X140595238Y-100152438D02*
X140642857Y-100200057D01*
X140642857Y-100200057D02*
X140690476Y-100295295D01*
X140690476Y-100295295D02*
X140738095Y-100485771D01*
X140738095Y-100485771D02*
X140738095Y-100723866D01*
X140738095Y-100723866D02*
X140690476Y-100914342D01*
X140690476Y-100914342D02*
X140642857Y-101009580D01*
X140642857Y-101009580D02*
X140595238Y-101057200D01*
X140595238Y-101057200D02*
X140500000Y-101104819D01*
X140500000Y-101104819D02*
X140404762Y-101104819D01*
X140404762Y-101104819D02*
X140309524Y-101057200D01*
X140309524Y-101057200D02*
X140261905Y-101009580D01*
X140261905Y-101009580D02*
X140214286Y-100914342D01*
X140214286Y-100914342D02*
X140166667Y-100723866D01*
X140166667Y-100723866D02*
X140166667Y-100485771D01*
X140166667Y-100485771D02*
X140214286Y-100295295D01*
X140214286Y-100295295D02*
X140261905Y-100200057D01*
X140261905Y-100200057D02*
X140309524Y-100152438D01*
X140309524Y-100152438D02*
X140404762Y-100104819D01*
X141166667Y-101104819D02*
X141166667Y-100104819D01*
X141738095Y-101104819D02*
X141309524Y-100533390D01*
X141738095Y-100104819D02*
X141166667Y-100676247D01*
X165454819Y-122357142D02*
X164454819Y-122357142D01*
X164454819Y-122357142D02*
X165454819Y-121785714D01*
X165454819Y-121785714D02*
X164454819Y-121785714D01*
X165407200Y-120928571D02*
X165454819Y-121023809D01*
X165454819Y-121023809D02*
X165454819Y-121214285D01*
X165454819Y-121214285D02*
X165407200Y-121309523D01*
X165407200Y-121309523D02*
X165311961Y-121357142D01*
X165311961Y-121357142D02*
X164931009Y-121357142D01*
X164931009Y-121357142D02*
X164835771Y-121309523D01*
X164835771Y-121309523D02*
X164788152Y-121214285D01*
X164788152Y-121214285D02*
X164788152Y-121023809D01*
X164788152Y-121023809D02*
X164835771Y-120928571D01*
X164835771Y-120928571D02*
X164931009Y-120880952D01*
X164931009Y-120880952D02*
X165026247Y-120880952D01*
X165026247Y-120880952D02*
X165121485Y-121357142D01*
X165454819Y-120309523D02*
X165407200Y-120404761D01*
X165407200Y-120404761D02*
X165359580Y-120452380D01*
X165359580Y-120452380D02*
X165264342Y-120499999D01*
X165264342Y-120499999D02*
X164978628Y-120499999D01*
X164978628Y-120499999D02*
X164883390Y-120452380D01*
X164883390Y-120452380D02*
X164835771Y-120404761D01*
X164835771Y-120404761D02*
X164788152Y-120309523D01*
X164788152Y-120309523D02*
X164788152Y-120166666D01*
X164788152Y-120166666D02*
X164835771Y-120071428D01*
X164835771Y-120071428D02*
X164883390Y-120023809D01*
X164883390Y-120023809D02*
X164978628Y-119976190D01*
X164978628Y-119976190D02*
X165264342Y-119976190D01*
X165264342Y-119976190D02*
X165359580Y-120023809D01*
X165359580Y-120023809D02*
X165407200Y-120071428D01*
X165407200Y-120071428D02*
X165454819Y-120166666D01*
X165454819Y-120166666D02*
X165454819Y-120309523D01*
X165550057Y-119785714D02*
X165550057Y-119023809D01*
X165454819Y-118214285D02*
X164978628Y-118547618D01*
X165454819Y-118785713D02*
X164454819Y-118785713D01*
X164454819Y-118785713D02*
X164454819Y-118404761D01*
X164454819Y-118404761D02*
X164502438Y-118309523D01*
X164502438Y-118309523D02*
X164550057Y-118261904D01*
X164550057Y-118261904D02*
X164645295Y-118214285D01*
X164645295Y-118214285D02*
X164788152Y-118214285D01*
X164788152Y-118214285D02*
X164883390Y-118261904D01*
X164883390Y-118261904D02*
X164931009Y-118309523D01*
X164931009Y-118309523D02*
X164978628Y-118404761D01*
X164978628Y-118404761D02*
X164978628Y-118785713D01*
X165550057Y-118023809D02*
X165550057Y-117261904D01*
X164454819Y-116833332D02*
X164454819Y-116642856D01*
X164454819Y-116642856D02*
X164502438Y-116547618D01*
X164502438Y-116547618D02*
X164597676Y-116452380D01*
X164597676Y-116452380D02*
X164788152Y-116404761D01*
X164788152Y-116404761D02*
X165121485Y-116404761D01*
X165121485Y-116404761D02*
X165311961Y-116452380D01*
X165311961Y-116452380D02*
X165407200Y-116547618D01*
X165407200Y-116547618D02*
X165454819Y-116642856D01*
X165454819Y-116642856D02*
X165454819Y-116833332D01*
X165454819Y-116833332D02*
X165407200Y-116928570D01*
X165407200Y-116928570D02*
X165311961Y-117023808D01*
X165311961Y-117023808D02*
X165121485Y-117071427D01*
X165121485Y-117071427D02*
X164788152Y-117071427D01*
X164788152Y-117071427D02*
X164597676Y-117023808D01*
X164597676Y-117023808D02*
X164502438Y-116928570D01*
X164502438Y-116928570D02*
X164454819Y-116833332D01*
X164454819Y-115976189D02*
X165264342Y-115976189D01*
X165264342Y-115976189D02*
X165359580Y-115928570D01*
X165359580Y-115928570D02*
X165407200Y-115880951D01*
X165407200Y-115880951D02*
X165454819Y-115785713D01*
X165454819Y-115785713D02*
X165454819Y-115595237D01*
X165454819Y-115595237D02*
X165407200Y-115499999D01*
X165407200Y-115499999D02*
X165359580Y-115452380D01*
X165359580Y-115452380D02*
X165264342Y-115404761D01*
X165264342Y-115404761D02*
X164454819Y-115404761D01*
X164454819Y-115071427D02*
X164454819Y-114499999D01*
X165454819Y-114785713D02*
X164454819Y-114785713D01*
X114954819Y-122190475D02*
X113954819Y-122190475D01*
X113954819Y-122190475D02*
X114954819Y-121619047D01*
X114954819Y-121619047D02*
X113954819Y-121619047D01*
X114907200Y-120761904D02*
X114954819Y-120857142D01*
X114954819Y-120857142D02*
X114954819Y-121047618D01*
X114954819Y-121047618D02*
X114907200Y-121142856D01*
X114907200Y-121142856D02*
X114811961Y-121190475D01*
X114811961Y-121190475D02*
X114431009Y-121190475D01*
X114431009Y-121190475D02*
X114335771Y-121142856D01*
X114335771Y-121142856D02*
X114288152Y-121047618D01*
X114288152Y-121047618D02*
X114288152Y-120857142D01*
X114288152Y-120857142D02*
X114335771Y-120761904D01*
X114335771Y-120761904D02*
X114431009Y-120714285D01*
X114431009Y-120714285D02*
X114526247Y-120714285D01*
X114526247Y-120714285D02*
X114621485Y-121190475D01*
X114954819Y-120142856D02*
X114907200Y-120238094D01*
X114907200Y-120238094D02*
X114859580Y-120285713D01*
X114859580Y-120285713D02*
X114764342Y-120333332D01*
X114764342Y-120333332D02*
X114478628Y-120333332D01*
X114478628Y-120333332D02*
X114383390Y-120285713D01*
X114383390Y-120285713D02*
X114335771Y-120238094D01*
X114335771Y-120238094D02*
X114288152Y-120142856D01*
X114288152Y-120142856D02*
X114288152Y-119999999D01*
X114288152Y-119999999D02*
X114335771Y-119904761D01*
X114335771Y-119904761D02*
X114383390Y-119857142D01*
X114383390Y-119857142D02*
X114478628Y-119809523D01*
X114478628Y-119809523D02*
X114764342Y-119809523D01*
X114764342Y-119809523D02*
X114859580Y-119857142D01*
X114859580Y-119857142D02*
X114907200Y-119904761D01*
X114907200Y-119904761D02*
X114954819Y-119999999D01*
X114954819Y-119999999D02*
X114954819Y-120142856D01*
X115050057Y-119619047D02*
X115050057Y-118857142D01*
X114954819Y-118047618D02*
X114478628Y-118380951D01*
X114954819Y-118619046D02*
X113954819Y-118619046D01*
X113954819Y-118619046D02*
X113954819Y-118238094D01*
X113954819Y-118238094D02*
X114002438Y-118142856D01*
X114002438Y-118142856D02*
X114050057Y-118095237D01*
X114050057Y-118095237D02*
X114145295Y-118047618D01*
X114145295Y-118047618D02*
X114288152Y-118047618D01*
X114288152Y-118047618D02*
X114383390Y-118095237D01*
X114383390Y-118095237D02*
X114431009Y-118142856D01*
X114431009Y-118142856D02*
X114478628Y-118238094D01*
X114478628Y-118238094D02*
X114478628Y-118619046D01*
X115050057Y-117857142D02*
X115050057Y-117095237D01*
X114954819Y-116857141D02*
X113954819Y-116857141D01*
X114954819Y-116380951D02*
X113954819Y-116380951D01*
X113954819Y-116380951D02*
X114954819Y-115809523D01*
X114954819Y-115809523D02*
X113954819Y-115809523D01*
X111954819Y-105119047D02*
X110954819Y-105119047D01*
X110954819Y-105119047D02*
X111954819Y-104547619D01*
X111954819Y-104547619D02*
X110954819Y-104547619D01*
X111907200Y-103690476D02*
X111954819Y-103785714D01*
X111954819Y-103785714D02*
X111954819Y-103976190D01*
X111954819Y-103976190D02*
X111907200Y-104071428D01*
X111907200Y-104071428D02*
X111811961Y-104119047D01*
X111811961Y-104119047D02*
X111431009Y-104119047D01*
X111431009Y-104119047D02*
X111335771Y-104071428D01*
X111335771Y-104071428D02*
X111288152Y-103976190D01*
X111288152Y-103976190D02*
X111288152Y-103785714D01*
X111288152Y-103785714D02*
X111335771Y-103690476D01*
X111335771Y-103690476D02*
X111431009Y-103642857D01*
X111431009Y-103642857D02*
X111526247Y-103642857D01*
X111526247Y-103642857D02*
X111621485Y-104119047D01*
X111954819Y-103071428D02*
X111907200Y-103166666D01*
X111907200Y-103166666D02*
X111859580Y-103214285D01*
X111859580Y-103214285D02*
X111764342Y-103261904D01*
X111764342Y-103261904D02*
X111478628Y-103261904D01*
X111478628Y-103261904D02*
X111383390Y-103214285D01*
X111383390Y-103214285D02*
X111335771Y-103166666D01*
X111335771Y-103166666D02*
X111288152Y-103071428D01*
X111288152Y-103071428D02*
X111288152Y-102928571D01*
X111288152Y-102928571D02*
X111335771Y-102833333D01*
X111335771Y-102833333D02*
X111383390Y-102785714D01*
X111383390Y-102785714D02*
X111478628Y-102738095D01*
X111478628Y-102738095D02*
X111764342Y-102738095D01*
X111764342Y-102738095D02*
X111859580Y-102785714D01*
X111859580Y-102785714D02*
X111907200Y-102833333D01*
X111907200Y-102833333D02*
X111954819Y-102928571D01*
X111954819Y-102928571D02*
X111954819Y-103071428D01*
X112050057Y-102547619D02*
X112050057Y-101785714D01*
X111431009Y-101214285D02*
X111431009Y-101547618D01*
X111954819Y-101547618D02*
X110954819Y-101547618D01*
X110954819Y-101547618D02*
X110954819Y-101071428D01*
X112050057Y-100928571D02*
X112050057Y-100166666D01*
X110954819Y-99738094D02*
X110954819Y-99547618D01*
X110954819Y-99547618D02*
X111002438Y-99452380D01*
X111002438Y-99452380D02*
X111097676Y-99357142D01*
X111097676Y-99357142D02*
X111288152Y-99309523D01*
X111288152Y-99309523D02*
X111621485Y-99309523D01*
X111621485Y-99309523D02*
X111811961Y-99357142D01*
X111811961Y-99357142D02*
X111907200Y-99452380D01*
X111907200Y-99452380D02*
X111954819Y-99547618D01*
X111954819Y-99547618D02*
X111954819Y-99738094D01*
X111954819Y-99738094D02*
X111907200Y-99833332D01*
X111907200Y-99833332D02*
X111811961Y-99928570D01*
X111811961Y-99928570D02*
X111621485Y-99976189D01*
X111621485Y-99976189D02*
X111288152Y-99976189D01*
X111288152Y-99976189D02*
X111097676Y-99928570D01*
X111097676Y-99928570D02*
X111002438Y-99833332D01*
X111002438Y-99833332D02*
X110954819Y-99738094D01*
X111288152Y-98452380D02*
X111954819Y-98452380D01*
X111288152Y-98880951D02*
X111811961Y-98880951D01*
X111811961Y-98880951D02*
X111907200Y-98833332D01*
X111907200Y-98833332D02*
X111954819Y-98738094D01*
X111954819Y-98738094D02*
X111954819Y-98595237D01*
X111954819Y-98595237D02*
X111907200Y-98499999D01*
X111907200Y-98499999D02*
X111859580Y-98452380D01*
X111288152Y-98119046D02*
X111288152Y-97738094D01*
X110954819Y-97976189D02*
X111811961Y-97976189D01*
X111811961Y-97976189D02*
X111907200Y-97928570D01*
X111907200Y-97928570D02*
X111954819Y-97833332D01*
X111954819Y-97833332D02*
X111954819Y-97738094D01*
X168454819Y-104119047D02*
X167454819Y-104119047D01*
X167454819Y-104119047D02*
X168454819Y-103547619D01*
X168454819Y-103547619D02*
X167454819Y-103547619D01*
X168407200Y-102690476D02*
X168454819Y-102785714D01*
X168454819Y-102785714D02*
X168454819Y-102976190D01*
X168454819Y-102976190D02*
X168407200Y-103071428D01*
X168407200Y-103071428D02*
X168311961Y-103119047D01*
X168311961Y-103119047D02*
X167931009Y-103119047D01*
X167931009Y-103119047D02*
X167835771Y-103071428D01*
X167835771Y-103071428D02*
X167788152Y-102976190D01*
X167788152Y-102976190D02*
X167788152Y-102785714D01*
X167788152Y-102785714D02*
X167835771Y-102690476D01*
X167835771Y-102690476D02*
X167931009Y-102642857D01*
X167931009Y-102642857D02*
X168026247Y-102642857D01*
X168026247Y-102642857D02*
X168121485Y-103119047D01*
X168454819Y-102071428D02*
X168407200Y-102166666D01*
X168407200Y-102166666D02*
X168359580Y-102214285D01*
X168359580Y-102214285D02*
X168264342Y-102261904D01*
X168264342Y-102261904D02*
X167978628Y-102261904D01*
X167978628Y-102261904D02*
X167883390Y-102214285D01*
X167883390Y-102214285D02*
X167835771Y-102166666D01*
X167835771Y-102166666D02*
X167788152Y-102071428D01*
X167788152Y-102071428D02*
X167788152Y-101928571D01*
X167788152Y-101928571D02*
X167835771Y-101833333D01*
X167835771Y-101833333D02*
X167883390Y-101785714D01*
X167883390Y-101785714D02*
X167978628Y-101738095D01*
X167978628Y-101738095D02*
X168264342Y-101738095D01*
X168264342Y-101738095D02*
X168359580Y-101785714D01*
X168359580Y-101785714D02*
X168407200Y-101833333D01*
X168407200Y-101833333D02*
X168454819Y-101928571D01*
X168454819Y-101928571D02*
X168454819Y-102071428D01*
X168550057Y-101547619D02*
X168550057Y-100785714D01*
X167931009Y-100214285D02*
X167931009Y-100547618D01*
X168454819Y-100547618D02*
X167454819Y-100547618D01*
X167454819Y-100547618D02*
X167454819Y-100071428D01*
X168550057Y-99928571D02*
X168550057Y-99166666D01*
X168454819Y-98928570D02*
X167454819Y-98928570D01*
X168454819Y-98452380D02*
X167454819Y-98452380D01*
X167454819Y-98452380D02*
X168454819Y-97880952D01*
X168454819Y-97880952D02*
X167454819Y-97880952D01*
X127431009Y-137190476D02*
X127478628Y-137047619D01*
X127478628Y-137047619D02*
X127526247Y-137000000D01*
X127526247Y-137000000D02*
X127621485Y-136952381D01*
X127621485Y-136952381D02*
X127764342Y-136952381D01*
X127764342Y-136952381D02*
X127859580Y-137000000D01*
X127859580Y-137000000D02*
X127907200Y-137047619D01*
X127907200Y-137047619D02*
X127954819Y-137142857D01*
X127954819Y-137142857D02*
X127954819Y-137523809D01*
X127954819Y-137523809D02*
X126954819Y-137523809D01*
X126954819Y-137523809D02*
X126954819Y-137190476D01*
X126954819Y-137190476D02*
X127002438Y-137095238D01*
X127002438Y-137095238D02*
X127050057Y-137047619D01*
X127050057Y-137047619D02*
X127145295Y-137000000D01*
X127145295Y-137000000D02*
X127240533Y-137000000D01*
X127240533Y-137000000D02*
X127335771Y-137047619D01*
X127335771Y-137047619D02*
X127383390Y-137095238D01*
X127383390Y-137095238D02*
X127431009Y-137190476D01*
X127431009Y-137190476D02*
X127431009Y-137523809D01*
X127954819Y-136095238D02*
X127431009Y-136095238D01*
X127431009Y-136095238D02*
X127335771Y-136142857D01*
X127335771Y-136142857D02*
X127288152Y-136238095D01*
X127288152Y-136238095D02*
X127288152Y-136428571D01*
X127288152Y-136428571D02*
X127335771Y-136523809D01*
X127907200Y-136095238D02*
X127954819Y-136190476D01*
X127954819Y-136190476D02*
X127954819Y-136428571D01*
X127954819Y-136428571D02*
X127907200Y-136523809D01*
X127907200Y-136523809D02*
X127811961Y-136571428D01*
X127811961Y-136571428D02*
X127716723Y-136571428D01*
X127716723Y-136571428D02*
X127621485Y-136523809D01*
X127621485Y-136523809D02*
X127573866Y-136428571D01*
X127573866Y-136428571D02*
X127573866Y-136190476D01*
X127573866Y-136190476D02*
X127526247Y-136095238D01*
X127288152Y-135761904D02*
X127288152Y-135380952D01*
X126954819Y-135619047D02*
X127811961Y-135619047D01*
X127811961Y-135619047D02*
X127907200Y-135571428D01*
X127907200Y-135571428D02*
X127954819Y-135476190D01*
X127954819Y-135476190D02*
X127954819Y-135380952D01*
X127288152Y-135190475D02*
X127288152Y-134809523D01*
X126954819Y-135047618D02*
X127811961Y-135047618D01*
X127811961Y-135047618D02*
X127907200Y-134999999D01*
X127907200Y-134999999D02*
X127954819Y-134904761D01*
X127954819Y-134904761D02*
X127954819Y-134809523D01*
X128050057Y-134714285D02*
X128050057Y-133952380D01*
X127859580Y-133142856D02*
X127907200Y-133190475D01*
X127907200Y-133190475D02*
X127954819Y-133333332D01*
X127954819Y-133333332D02*
X127954819Y-133428570D01*
X127954819Y-133428570D02*
X127907200Y-133571427D01*
X127907200Y-133571427D02*
X127811961Y-133666665D01*
X127811961Y-133666665D02*
X127716723Y-133714284D01*
X127716723Y-133714284D02*
X127526247Y-133761903D01*
X127526247Y-133761903D02*
X127383390Y-133761903D01*
X127383390Y-133761903D02*
X127192914Y-133714284D01*
X127192914Y-133714284D02*
X127097676Y-133666665D01*
X127097676Y-133666665D02*
X127002438Y-133571427D01*
X127002438Y-133571427D02*
X126954819Y-133428570D01*
X126954819Y-133428570D02*
X126954819Y-133333332D01*
X126954819Y-133333332D02*
X127002438Y-133190475D01*
X127002438Y-133190475D02*
X127050057Y-133142856D01*
X127954819Y-132571427D02*
X127907200Y-132666665D01*
X127907200Y-132666665D02*
X127859580Y-132714284D01*
X127859580Y-132714284D02*
X127764342Y-132761903D01*
X127764342Y-132761903D02*
X127478628Y-132761903D01*
X127478628Y-132761903D02*
X127383390Y-132714284D01*
X127383390Y-132714284D02*
X127335771Y-132666665D01*
X127335771Y-132666665D02*
X127288152Y-132571427D01*
X127288152Y-132571427D02*
X127288152Y-132428570D01*
X127288152Y-132428570D02*
X127335771Y-132333332D01*
X127335771Y-132333332D02*
X127383390Y-132285713D01*
X127383390Y-132285713D02*
X127478628Y-132238094D01*
X127478628Y-132238094D02*
X127764342Y-132238094D01*
X127764342Y-132238094D02*
X127859580Y-132285713D01*
X127859580Y-132285713D02*
X127907200Y-132333332D01*
X127907200Y-132333332D02*
X127954819Y-132428570D01*
X127954819Y-132428570D02*
X127954819Y-132571427D01*
X127288152Y-131809522D02*
X127954819Y-131809522D01*
X127383390Y-131809522D02*
X127335771Y-131761903D01*
X127335771Y-131761903D02*
X127288152Y-131666665D01*
X127288152Y-131666665D02*
X127288152Y-131523808D01*
X127288152Y-131523808D02*
X127335771Y-131428570D01*
X127335771Y-131428570D02*
X127431009Y-131380951D01*
X127431009Y-131380951D02*
X127954819Y-131380951D01*
X127288152Y-130904760D02*
X127954819Y-130904760D01*
X127383390Y-130904760D02*
X127335771Y-130857141D01*
X127335771Y-130857141D02*
X127288152Y-130761903D01*
X127288152Y-130761903D02*
X127288152Y-130619046D01*
X127288152Y-130619046D02*
X127335771Y-130523808D01*
X127335771Y-130523808D02*
X127431009Y-130476189D01*
X127431009Y-130476189D02*
X127954819Y-130476189D01*
X134833333Y-94681009D02*
X134976190Y-94728628D01*
X134976190Y-94728628D02*
X135023809Y-94776247D01*
X135023809Y-94776247D02*
X135071428Y-94871485D01*
X135071428Y-94871485D02*
X135071428Y-95014342D01*
X135071428Y-95014342D02*
X135023809Y-95109580D01*
X135023809Y-95109580D02*
X134976190Y-95157200D01*
X134976190Y-95157200D02*
X134880952Y-95204819D01*
X134880952Y-95204819D02*
X134500000Y-95204819D01*
X134500000Y-95204819D02*
X134500000Y-94204819D01*
X134500000Y-94204819D02*
X134833333Y-94204819D01*
X134833333Y-94204819D02*
X134928571Y-94252438D01*
X134928571Y-94252438D02*
X134976190Y-94300057D01*
X134976190Y-94300057D02*
X135023809Y-94395295D01*
X135023809Y-94395295D02*
X135023809Y-94490533D01*
X135023809Y-94490533D02*
X134976190Y-94585771D01*
X134976190Y-94585771D02*
X134928571Y-94633390D01*
X134928571Y-94633390D02*
X134833333Y-94681009D01*
X134833333Y-94681009D02*
X134500000Y-94681009D01*
X135404762Y-94204819D02*
X136071428Y-94204819D01*
X136071428Y-94204819D02*
X135404762Y-95204819D01*
X135404762Y-95204819D02*
X136071428Y-95204819D01*
X136309524Y-94204819D02*
X136642857Y-95204819D01*
X136642857Y-95204819D02*
X136976190Y-94204819D01*
X137785714Y-94204819D02*
X137309524Y-94204819D01*
X137309524Y-94204819D02*
X137261905Y-94681009D01*
X137261905Y-94681009D02*
X137309524Y-94633390D01*
X137309524Y-94633390D02*
X137404762Y-94585771D01*
X137404762Y-94585771D02*
X137642857Y-94585771D01*
X137642857Y-94585771D02*
X137738095Y-94633390D01*
X137738095Y-94633390D02*
X137785714Y-94681009D01*
X137785714Y-94681009D02*
X137833333Y-94776247D01*
X137833333Y-94776247D02*
X137833333Y-95014342D01*
X137833333Y-95014342D02*
X137785714Y-95109580D01*
X137785714Y-95109580D02*
X137738095Y-95157200D01*
X137738095Y-95157200D02*
X137642857Y-95204819D01*
X137642857Y-95204819D02*
X137404762Y-95204819D01*
X137404762Y-95204819D02*
X137309524Y-95157200D01*
X137309524Y-95157200D02*
X137261905Y-95109580D01*
X138738095Y-94204819D02*
X138261905Y-94204819D01*
X138261905Y-94204819D02*
X138214286Y-94681009D01*
X138214286Y-94681009D02*
X138261905Y-94633390D01*
X138261905Y-94633390D02*
X138357143Y-94585771D01*
X138357143Y-94585771D02*
X138595238Y-94585771D01*
X138595238Y-94585771D02*
X138690476Y-94633390D01*
X138690476Y-94633390D02*
X138738095Y-94681009D01*
X138738095Y-94681009D02*
X138785714Y-94776247D01*
X138785714Y-94776247D02*
X138785714Y-95014342D01*
X138785714Y-95014342D02*
X138738095Y-95109580D01*
X138738095Y-95109580D02*
X138690476Y-95157200D01*
X138690476Y-95157200D02*
X138595238Y-95204819D01*
X138595238Y-95204819D02*
X138357143Y-95204819D01*
X138357143Y-95204819D02*
X138261905Y-95157200D01*
X138261905Y-95157200D02*
X138214286Y-95109580D01*
X139547619Y-94681009D02*
X139690476Y-94728628D01*
X139690476Y-94728628D02*
X139738095Y-94776247D01*
X139738095Y-94776247D02*
X139785714Y-94871485D01*
X139785714Y-94871485D02*
X139785714Y-95014342D01*
X139785714Y-95014342D02*
X139738095Y-95109580D01*
X139738095Y-95109580D02*
X139690476Y-95157200D01*
X139690476Y-95157200D02*
X139595238Y-95204819D01*
X139595238Y-95204819D02*
X139214286Y-95204819D01*
X139214286Y-95204819D02*
X139214286Y-94204819D01*
X139214286Y-94204819D02*
X139547619Y-94204819D01*
X139547619Y-94204819D02*
X139642857Y-94252438D01*
X139642857Y-94252438D02*
X139690476Y-94300057D01*
X139690476Y-94300057D02*
X139738095Y-94395295D01*
X139738095Y-94395295D02*
X139738095Y-94490533D01*
X139738095Y-94490533D02*
X139690476Y-94585771D01*
X139690476Y-94585771D02*
X139642857Y-94633390D01*
X139642857Y-94633390D02*
X139547619Y-94681009D01*
X139547619Y-94681009D02*
X139214286Y-94681009D01*
X140690476Y-94204819D02*
X140214286Y-94204819D01*
X140214286Y-94204819D02*
X140166667Y-94681009D01*
X140166667Y-94681009D02*
X140214286Y-94633390D01*
X140214286Y-94633390D02*
X140309524Y-94585771D01*
X140309524Y-94585771D02*
X140547619Y-94585771D01*
X140547619Y-94585771D02*
X140642857Y-94633390D01*
X140642857Y-94633390D02*
X140690476Y-94681009D01*
X140690476Y-94681009D02*
X140738095Y-94776247D01*
X140738095Y-94776247D02*
X140738095Y-95014342D01*
X140738095Y-95014342D02*
X140690476Y-95109580D01*
X140690476Y-95109580D02*
X140642857Y-95157200D01*
X140642857Y-95157200D02*
X140547619Y-95204819D01*
X140547619Y-95204819D02*
X140309524Y-95204819D01*
X140309524Y-95204819D02*
X140214286Y-95157200D01*
X140214286Y-95157200D02*
X140166667Y-95109580D01*
X141023810Y-94204819D02*
X141357143Y-95204819D01*
X141357143Y-95204819D02*
X141690476Y-94204819D01*
X142547619Y-95204819D02*
X141976191Y-95204819D01*
X142261905Y-95204819D02*
X142261905Y-94204819D01*
X142261905Y-94204819D02*
X142166667Y-94347676D01*
X142166667Y-94347676D02*
X142071429Y-94442914D01*
X142071429Y-94442914D02*
X141976191Y-94490533D01*
X134833333Y-132859580D02*
X134785714Y-132907200D01*
X134785714Y-132907200D02*
X134642857Y-132954819D01*
X134642857Y-132954819D02*
X134547619Y-132954819D01*
X134547619Y-132954819D02*
X134404762Y-132907200D01*
X134404762Y-132907200D02*
X134309524Y-132811961D01*
X134309524Y-132811961D02*
X134261905Y-132716723D01*
X134261905Y-132716723D02*
X134214286Y-132526247D01*
X134214286Y-132526247D02*
X134214286Y-132383390D01*
X134214286Y-132383390D02*
X134261905Y-132192914D01*
X134261905Y-132192914D02*
X134309524Y-132097676D01*
X134309524Y-132097676D02*
X134404762Y-132002438D01*
X134404762Y-132002438D02*
X134547619Y-131954819D01*
X134547619Y-131954819D02*
X134642857Y-131954819D01*
X134642857Y-131954819D02*
X134785714Y-132002438D01*
X134785714Y-132002438D02*
X134833333Y-132050057D01*
X135738095Y-131954819D02*
X135261905Y-131954819D01*
X135261905Y-131954819D02*
X135214286Y-132431009D01*
X135214286Y-132431009D02*
X135261905Y-132383390D01*
X135261905Y-132383390D02*
X135357143Y-132335771D01*
X135357143Y-132335771D02*
X135595238Y-132335771D01*
X135595238Y-132335771D02*
X135690476Y-132383390D01*
X135690476Y-132383390D02*
X135738095Y-132431009D01*
X135738095Y-132431009D02*
X135785714Y-132526247D01*
X135785714Y-132526247D02*
X135785714Y-132764342D01*
X135785714Y-132764342D02*
X135738095Y-132859580D01*
X135738095Y-132859580D02*
X135690476Y-132907200D01*
X135690476Y-132907200D02*
X135595238Y-132954819D01*
X135595238Y-132954819D02*
X135357143Y-132954819D01*
X135357143Y-132954819D02*
X135261905Y-132907200D01*
X135261905Y-132907200D02*
X135214286Y-132859580D01*
X134833333Y-134859580D02*
X134785714Y-134907200D01*
X134785714Y-134907200D02*
X134642857Y-134954819D01*
X134642857Y-134954819D02*
X134547619Y-134954819D01*
X134547619Y-134954819D02*
X134404762Y-134907200D01*
X134404762Y-134907200D02*
X134309524Y-134811961D01*
X134309524Y-134811961D02*
X134261905Y-134716723D01*
X134261905Y-134716723D02*
X134214286Y-134526247D01*
X134214286Y-134526247D02*
X134214286Y-134383390D01*
X134214286Y-134383390D02*
X134261905Y-134192914D01*
X134261905Y-134192914D02*
X134309524Y-134097676D01*
X134309524Y-134097676D02*
X134404762Y-134002438D01*
X134404762Y-134002438D02*
X134547619Y-133954819D01*
X134547619Y-133954819D02*
X134642857Y-133954819D01*
X134642857Y-133954819D02*
X134785714Y-134002438D01*
X134785714Y-134002438D02*
X134833333Y-134050057D01*
X135690476Y-134288152D02*
X135690476Y-134954819D01*
X135452381Y-133907200D02*
X135214286Y-134621485D01*
X135214286Y-134621485D02*
X135833333Y-134621485D01*
D11*
%TO.C,J4*%
X125830000Y-134770000D02*
X125830000Y-137370000D01*
X123170000Y-132170000D02*
X124500000Y-132170000D01*
X123170000Y-134770000D02*
X125830000Y-134770000D01*
X123170000Y-134770000D02*
X123170000Y-137370000D01*
X123170000Y-137370000D02*
X125830000Y-137370000D01*
X123170000Y-133500000D02*
X123170000Y-132170000D01*
%TO.C,J11*%
X160480000Y-134230000D02*
X160480000Y-136830000D01*
X157820000Y-131630000D02*
X159150000Y-131630000D01*
X157820000Y-134230000D02*
X160480000Y-134230000D01*
X157820000Y-134230000D02*
X157820000Y-136830000D01*
X157820000Y-136830000D02*
X160480000Y-136830000D01*
X157820000Y-132960000D02*
X157820000Y-131630000D01*
%TO.C,J8*%
X156830000Y-134230000D02*
X156830000Y-136830000D01*
X154170000Y-131630000D02*
X155500000Y-131630000D01*
X154170000Y-134230000D02*
X156830000Y-134230000D01*
X154170000Y-134230000D02*
X154170000Y-136830000D01*
X154170000Y-136830000D02*
X156830000Y-136830000D01*
X154170000Y-132960000D02*
X154170000Y-131630000D01*
%TO.C,J6*%
X134650000Y-80670000D02*
X147410000Y-80670000D01*
X147410000Y-83330000D02*
X147410000Y-80670000D01*
X134650000Y-83330000D02*
X134650000Y-80670000D01*
X132050000Y-83330000D02*
X132050000Y-82000000D01*
X133380000Y-83330000D02*
X132050000Y-83330000D01*
X134650000Y-83330000D02*
X147410000Y-83330000D01*
%TO.C,J7*%
X169330000Y-110270000D02*
X169330000Y-112870000D01*
X166670000Y-107670000D02*
X168000000Y-107670000D01*
X166670000Y-110270000D02*
X169330000Y-110270000D01*
X166670000Y-110270000D02*
X166670000Y-112870000D01*
X166670000Y-112870000D02*
X169330000Y-112870000D01*
X166670000Y-109000000D02*
X166670000Y-107670000D01*
%TO.C,J5*%
X113330000Y-110270000D02*
X113330000Y-112870000D01*
X110670000Y-107670000D02*
X112000000Y-107670000D01*
X110670000Y-110270000D02*
X113330000Y-110270000D01*
X110670000Y-110270000D02*
X110670000Y-112870000D01*
X110670000Y-112870000D02*
X113330000Y-112870000D01*
X110670000Y-109000000D02*
X110670000Y-107670000D01*
%TO.C,U2*%
X136590000Y-125090000D02*
X137850000Y-125090000D01*
X143410000Y-125090000D02*
X142150000Y-125090000D01*
X143410000Y-128850000D02*
X143410000Y-125090000D01*
X136590000Y-131100000D02*
X136590000Y-125090000D01*
%TO.C,U1*%
X140000000Y-104940000D02*
X136500000Y-104940000D01*
X140000000Y-115060000D02*
X138050000Y-115060000D01*
X140000000Y-115060000D02*
X141950000Y-115060000D01*
X140000000Y-104940000D02*
X141950000Y-104940000D01*
%TO.C,R1*%
X139772936Y-99735000D02*
X140227064Y-99735000D01*
X139772936Y-98265000D02*
X140227064Y-98265000D01*
%TO.C,J16*%
X169330000Y-127730000D02*
X166670000Y-127730000D01*
X169330000Y-130330000D02*
X168000000Y-130330000D01*
X166670000Y-127730000D02*
X166670000Y-122590000D01*
X169330000Y-129000000D02*
X169330000Y-130330000D01*
X169330000Y-127730000D02*
X169330000Y-122590000D01*
X169330000Y-122590000D02*
X166670000Y-122590000D01*
%TO.C,J15*%
X113330000Y-122590000D02*
X110670000Y-122590000D01*
X113330000Y-127730000D02*
X113330000Y-122590000D01*
X113330000Y-129000000D02*
X113330000Y-130330000D01*
X110670000Y-127730000D02*
X110670000Y-122590000D01*
X113330000Y-130330000D02*
X112000000Y-130330000D01*
X113330000Y-127730000D02*
X110670000Y-127730000D01*
%TO.C,J14*%
X110670000Y-91730000D02*
X113330000Y-91730000D01*
X110670000Y-89130000D02*
X112000000Y-89130000D01*
X113330000Y-91730000D02*
X113330000Y-96870000D01*
X110670000Y-90460000D02*
X110670000Y-89130000D01*
X110670000Y-91730000D02*
X110670000Y-96870000D01*
X110670000Y-96870000D02*
X113330000Y-96870000D01*
%TO.C,J13*%
X166670000Y-91730000D02*
X169330000Y-91730000D01*
X166670000Y-89130000D02*
X168000000Y-89130000D01*
X169330000Y-91730000D02*
X169330000Y-96870000D01*
X166670000Y-90460000D02*
X166670000Y-89130000D01*
X166670000Y-91730000D02*
X166670000Y-96870000D01*
X166670000Y-96870000D02*
X169330000Y-96870000D01*
%TO.C,J10*%
X157500000Y-94190000D02*
X158830000Y-94190000D01*
X156170000Y-127330000D02*
X158830000Y-127330000D01*
X158830000Y-96790000D02*
X158830000Y-127330000D01*
X156170000Y-96790000D02*
X158830000Y-96790000D01*
X156170000Y-96790000D02*
X156170000Y-127330000D01*
X158830000Y-94190000D02*
X158830000Y-95520000D01*
%TO.C,J9*%
X122500000Y-94170000D02*
X123830000Y-94170000D01*
X121170000Y-127310000D02*
X123830000Y-127310000D01*
X123830000Y-96770000D02*
X123830000Y-127310000D01*
X121170000Y-96770000D02*
X123830000Y-96770000D01*
X121170000Y-96770000D02*
X121170000Y-127310000D01*
X123830000Y-94170000D02*
X123830000Y-95500000D01*
%TO.C,J3*%
X121830000Y-134770000D02*
X121830000Y-137370000D01*
X119170000Y-132170000D02*
X120500000Y-132170000D01*
X119170000Y-134770000D02*
X121830000Y-134770000D01*
X119170000Y-134770000D02*
X119170000Y-137370000D01*
X119170000Y-137370000D02*
X121830000Y-137370000D01*
X119170000Y-133500000D02*
X119170000Y-132170000D01*
%TO.C,J2*%
X152830000Y-94190000D02*
X152830000Y-95520000D01*
X150170000Y-96790000D02*
X150170000Y-127330000D01*
X150170000Y-96790000D02*
X152830000Y-96790000D01*
X152830000Y-96790000D02*
X152830000Y-127330000D01*
X150170000Y-127330000D02*
X152830000Y-127330000D01*
X151500000Y-94190000D02*
X152830000Y-94190000D01*
%TO.C,J1*%
X128500000Y-94190000D02*
X129830000Y-94190000D01*
X127170000Y-127330000D02*
X129830000Y-127330000D01*
X129830000Y-96790000D02*
X129830000Y-127330000D01*
X127170000Y-96790000D02*
X129830000Y-96790000D01*
X127170000Y-96790000D02*
X127170000Y-127330000D01*
X129830000Y-94190000D02*
X129830000Y-95520000D01*
%TO.C,D1*%
X141160000Y-95640000D02*
X136750000Y-95640000D01*
X141160000Y-97860000D02*
X141160000Y-95640000D01*
X136750000Y-97860000D02*
X141160000Y-97860000D01*
%TO.C,C5*%
X139311252Y-133585000D02*
X138788748Y-133585000D01*
X139311252Y-132115000D02*
X138788748Y-132115000D01*
%TO.C,C4*%
X139211252Y-134615000D02*
X138688748Y-134615000D01*
X139211252Y-136085000D02*
X138688748Y-136085000D01*
%TO.C,C2*%
X127345563Y-87910000D02*
X121590000Y-87910000D01*
X128410000Y-82154437D02*
X127345563Y-81090000D01*
X127345563Y-81090000D02*
X121590000Y-81090000D01*
X128410000Y-82154437D02*
X128410000Y-83440000D01*
X129043750Y-86741250D02*
X129043750Y-85953750D01*
X121590000Y-87910000D02*
X121590000Y-85560000D01*
X129437500Y-86347500D02*
X128650000Y-86347500D01*
X121590000Y-81090000D02*
X121590000Y-83440000D01*
X128410000Y-86845563D02*
X127345563Y-87910000D01*
X128410000Y-86845563D02*
X128410000Y-85560000D01*
%TO.C,C1*%
X151090000Y-82154437D02*
X151090000Y-83440000D01*
X151090000Y-82154437D02*
X152154437Y-81090000D01*
X157910000Y-87910000D02*
X157910000Y-85560000D01*
X150062500Y-82652500D02*
X150850000Y-82652500D01*
X157910000Y-81090000D02*
X157910000Y-83440000D01*
X150456250Y-82258750D02*
X150456250Y-83046250D01*
X151090000Y-86845563D02*
X151090000Y-85560000D01*
X152154437Y-87910000D02*
X157910000Y-87910000D01*
X151090000Y-86845563D02*
X152154437Y-87910000D01*
X152154437Y-81090000D02*
X157910000Y-81090000D01*
%TD*%
M02*
