%TF.GenerationSoftware,KiCad,Pcbnew,7.0.7*%
%TF.CreationDate,2023-10-05T17:02:33-03:00*%
%TF.ProjectId,ILLI_PCB,494c4c49-5f50-4434-922e-6b696361645f,rev?*%
%TF.SameCoordinates,Original*%
%TF.FileFunction,Legend,Bot*%
%TF.FilePolarity,Positive*%
%FSLAX46Y46*%
G04 Gerber Fmt 4.6, Leading zero omitted, Abs format (unit mm)*
G04 Created by KiCad (PCBNEW 7.0.7) date 2023-10-05 17:02:33*
%MOMM*%
%LPD*%
G01*
G04 APERTURE LIST*
%ADD10C,0.190000*%
%ADD11C,0.500000*%
G04 APERTURE END LIST*
D10*
G36*
X137758400Y-121567866D02*
G01*
X139302796Y-121974012D01*
X139302796Y-121766113D01*
X138288915Y-121533339D01*
X138269015Y-121528691D01*
X138249133Y-121524122D01*
X138229268Y-121519631D01*
X138209421Y-121515218D01*
X138189591Y-121510883D01*
X138169778Y-121506627D01*
X138149983Y-121502449D01*
X138130206Y-121498349D01*
X138110445Y-121494328D01*
X138090702Y-121490385D01*
X138070977Y-121486520D01*
X138051269Y-121482733D01*
X138031578Y-121479025D01*
X138011905Y-121475395D01*
X137992249Y-121471844D01*
X137972610Y-121468371D01*
X137987905Y-121464775D01*
X138002789Y-121461272D01*
X138017262Y-121457863D01*
X138044978Y-121451326D01*
X138071053Y-121445162D01*
X138095486Y-121439373D01*
X138118277Y-121433958D01*
X138139427Y-121428917D01*
X138158935Y-121424250D01*
X138176801Y-121419958D01*
X138193026Y-121416039D01*
X138207609Y-121412495D01*
X138226405Y-121407880D01*
X138241508Y-121404107D01*
X138255900Y-121400386D01*
X138258472Y-121399690D01*
X139302796Y-121108259D01*
X139302796Y-120863977D01*
X138520203Y-120644569D01*
X138502023Y-120639463D01*
X138483912Y-120634447D01*
X138465869Y-120629520D01*
X138447896Y-120624684D01*
X138429992Y-120619937D01*
X138412156Y-120615281D01*
X138394389Y-120610714D01*
X138376692Y-120606237D01*
X138359063Y-120601851D01*
X138341503Y-120597554D01*
X138324012Y-120593347D01*
X138306589Y-120589230D01*
X138289236Y-120585202D01*
X138271952Y-120581265D01*
X138254736Y-120577418D01*
X138237589Y-120573660D01*
X138220511Y-120569993D01*
X138203503Y-120566415D01*
X138186562Y-120562927D01*
X138169691Y-120559530D01*
X138152889Y-120556222D01*
X138136156Y-120553004D01*
X138119491Y-120549876D01*
X138102895Y-120546838D01*
X138086369Y-120543889D01*
X138069911Y-120541031D01*
X138053522Y-120538263D01*
X138037202Y-120535584D01*
X138020951Y-120532996D01*
X138004768Y-120530497D01*
X137988655Y-120528088D01*
X137972610Y-120525769D01*
X137991109Y-120522034D01*
X138009944Y-120518159D01*
X138029116Y-120514144D01*
X138048624Y-120509991D01*
X138068468Y-120505699D01*
X138088649Y-120501267D01*
X138109166Y-120496696D01*
X138130020Y-120491986D01*
X138151210Y-120487136D01*
X138172737Y-120482147D01*
X138194600Y-120477020D01*
X138216799Y-120471752D01*
X138239335Y-120466346D01*
X138262208Y-120460801D01*
X138285417Y-120455116D01*
X138308962Y-120449292D01*
X139302796Y-120209465D01*
X139302796Y-120005649D01*
X137758400Y-120425532D01*
X137758400Y-120620809D01*
X138936373Y-120943424D01*
X138954397Y-120948354D01*
X138971531Y-120953025D01*
X138987775Y-120957438D01*
X139003128Y-120961592D01*
X139017591Y-120965489D01*
X139037616Y-120970850D01*
X139055637Y-120975630D01*
X139071654Y-120979830D01*
X139089895Y-120984525D01*
X139104574Y-120988189D01*
X139117914Y-120991316D01*
X139098213Y-120995811D01*
X139079068Y-121000247D01*
X139060476Y-121004625D01*
X139042440Y-121008944D01*
X139024958Y-121013204D01*
X139008031Y-121017406D01*
X138991659Y-121021549D01*
X138975841Y-121025633D01*
X138960578Y-121029658D01*
X138945870Y-121033625D01*
X138936373Y-121036237D01*
X137758400Y-121361080D01*
X137758400Y-121567866D01*
G37*
G36*
X137758400Y-119560150D02*
G01*
X139302796Y-119966297D01*
X139302796Y-119758397D01*
X138288915Y-119525624D01*
X138269015Y-119520976D01*
X138249133Y-119516407D01*
X138229268Y-119511915D01*
X138209421Y-119507502D01*
X138189591Y-119503168D01*
X138169778Y-119498912D01*
X138149983Y-119494734D01*
X138130206Y-119490634D01*
X138110445Y-119486612D01*
X138090702Y-119482669D01*
X138070977Y-119478805D01*
X138051269Y-119475018D01*
X138031578Y-119471310D01*
X138011905Y-119467680D01*
X137992249Y-119464129D01*
X137972610Y-119460655D01*
X137987905Y-119457059D01*
X138002789Y-119453557D01*
X138017262Y-119450148D01*
X138044978Y-119443610D01*
X138071053Y-119437447D01*
X138095486Y-119431658D01*
X138118277Y-119426243D01*
X138139427Y-119421202D01*
X138158935Y-119416535D01*
X138176801Y-119412243D01*
X138193026Y-119408324D01*
X138207609Y-119404780D01*
X138226405Y-119400165D01*
X138241508Y-119396392D01*
X138255900Y-119392671D01*
X138258472Y-119391974D01*
X139302796Y-119100544D01*
X139302796Y-118856262D01*
X138520203Y-118636854D01*
X138502023Y-118631748D01*
X138483912Y-118626731D01*
X138465869Y-118621805D01*
X138447896Y-118616969D01*
X138429992Y-118612222D01*
X138412156Y-118607566D01*
X138394389Y-118602999D01*
X138376692Y-118598522D01*
X138359063Y-118594135D01*
X138341503Y-118589838D01*
X138324012Y-118585631D01*
X138306589Y-118581514D01*
X138289236Y-118577487D01*
X138271952Y-118573550D01*
X138254736Y-118569703D01*
X138237589Y-118565945D01*
X138220511Y-118562278D01*
X138203503Y-118558700D01*
X138186562Y-118555212D01*
X138169691Y-118551814D01*
X138152889Y-118548507D01*
X138136156Y-118545289D01*
X138119491Y-118542160D01*
X138102895Y-118539122D01*
X138086369Y-118536174D01*
X138069911Y-118533316D01*
X138053522Y-118530547D01*
X138037202Y-118527869D01*
X138020951Y-118525280D01*
X138004768Y-118522782D01*
X137988655Y-118520373D01*
X137972610Y-118518054D01*
X137991109Y-118514318D01*
X138009944Y-118510443D01*
X138029116Y-118506429D01*
X138048624Y-118502276D01*
X138068468Y-118497983D01*
X138088649Y-118493551D01*
X138109166Y-118488980D01*
X138130020Y-118484270D01*
X138151210Y-118479421D01*
X138172737Y-118474432D01*
X138194600Y-118469304D01*
X138216799Y-118464037D01*
X138239335Y-118458631D01*
X138262208Y-118453085D01*
X138285417Y-118447401D01*
X138308962Y-118441577D01*
X139302796Y-118201750D01*
X139302796Y-117997934D01*
X137758400Y-118417817D01*
X137758400Y-118613094D01*
X138936373Y-118935709D01*
X138954397Y-118940638D01*
X138971531Y-118945309D01*
X138987775Y-118949722D01*
X139003128Y-118953877D01*
X139017591Y-118957774D01*
X139037616Y-118963135D01*
X139055637Y-118967915D01*
X139071654Y-118972114D01*
X139089895Y-118976810D01*
X139104574Y-118980473D01*
X139117914Y-118983600D01*
X139098213Y-118988096D01*
X139079068Y-118992532D01*
X139060476Y-118996910D01*
X139042440Y-119001229D01*
X139024958Y-119005489D01*
X139008031Y-119009691D01*
X138991659Y-119013834D01*
X138975841Y-119017918D01*
X138960578Y-119021943D01*
X138945870Y-119025910D01*
X138936373Y-119028521D01*
X137758400Y-119353364D01*
X137758400Y-119560150D01*
G37*
G36*
X137758400Y-117552435D02*
G01*
X139302796Y-117958581D01*
X139302796Y-117750682D01*
X138288915Y-117517909D01*
X138269015Y-117513261D01*
X138249133Y-117508691D01*
X138229268Y-117504200D01*
X138209421Y-117499787D01*
X138189591Y-117495453D01*
X138169778Y-117491196D01*
X138149983Y-117487018D01*
X138130206Y-117482919D01*
X138110445Y-117478897D01*
X138090702Y-117474954D01*
X138070977Y-117471089D01*
X138051269Y-117467303D01*
X138031578Y-117463595D01*
X138011905Y-117459965D01*
X137992249Y-117456413D01*
X137972610Y-117452940D01*
X137987905Y-117449344D01*
X138002789Y-117445841D01*
X138017262Y-117442432D01*
X138044978Y-117435895D01*
X138071053Y-117429732D01*
X138095486Y-117423943D01*
X138118277Y-117418527D01*
X138139427Y-117413487D01*
X138158935Y-117408820D01*
X138176801Y-117404527D01*
X138193026Y-117400609D01*
X138207609Y-117397065D01*
X138226405Y-117392450D01*
X138241508Y-117388677D01*
X138255900Y-117384956D01*
X138258472Y-117384259D01*
X139302796Y-117092829D01*
X139302796Y-116848547D01*
X138520203Y-116629138D01*
X138502023Y-116624032D01*
X138483912Y-116619016D01*
X138465869Y-116614090D01*
X138447896Y-116609253D01*
X138429992Y-116604507D01*
X138412156Y-116599850D01*
X138394389Y-116595284D01*
X138376692Y-116590807D01*
X138359063Y-116586420D01*
X138341503Y-116582123D01*
X138324012Y-116577916D01*
X138306589Y-116573799D01*
X138289236Y-116569772D01*
X138271952Y-116565835D01*
X138254736Y-116561987D01*
X138237589Y-116558230D01*
X138220511Y-116554562D01*
X138203503Y-116550985D01*
X138186562Y-116547497D01*
X138169691Y-116544099D01*
X138152889Y-116540791D01*
X138136156Y-116537573D01*
X138119491Y-116534445D01*
X138102895Y-116531407D01*
X138086369Y-116528459D01*
X138069911Y-116525600D01*
X138053522Y-116522832D01*
X138037202Y-116520154D01*
X138020951Y-116517565D01*
X138004768Y-116515066D01*
X137988655Y-116512658D01*
X137972610Y-116510339D01*
X137991109Y-116506603D01*
X138009944Y-116502728D01*
X138029116Y-116498714D01*
X138048624Y-116494561D01*
X138068468Y-116490268D01*
X138088649Y-116485836D01*
X138109166Y-116481265D01*
X138130020Y-116476555D01*
X138151210Y-116471706D01*
X138172737Y-116466717D01*
X138194600Y-116461589D01*
X138216799Y-116456322D01*
X138239335Y-116450916D01*
X138262208Y-116445370D01*
X138285417Y-116439685D01*
X138308962Y-116433861D01*
X139302796Y-116194034D01*
X139302796Y-115990219D01*
X137758400Y-116410101D01*
X137758400Y-116605378D01*
X138936373Y-116927994D01*
X138954397Y-116932923D01*
X138971531Y-116937594D01*
X138987775Y-116942007D01*
X139003128Y-116946162D01*
X139017591Y-116950059D01*
X139037616Y-116955420D01*
X139055637Y-116960200D01*
X139071654Y-116964399D01*
X139089895Y-116969095D01*
X139104574Y-116972758D01*
X139117914Y-116975885D01*
X139098213Y-116980380D01*
X139079068Y-116984817D01*
X139060476Y-116989195D01*
X139042440Y-116993514D01*
X139024958Y-116997774D01*
X139008031Y-117001975D01*
X138991659Y-117006118D01*
X138975841Y-117010202D01*
X138960578Y-117014228D01*
X138945870Y-117018194D01*
X138936373Y-117020806D01*
X137758400Y-117345649D01*
X137758400Y-117552435D01*
G37*
G36*
X137758400Y-115900005D02*
G01*
X137972239Y-115900005D01*
X137972239Y-115685794D01*
X137758400Y-115685794D01*
X137758400Y-115900005D01*
G37*
G36*
X137758400Y-115331994D02*
G01*
X139302796Y-115331994D01*
X139302796Y-115129292D01*
X138661277Y-115129292D01*
X138661277Y-114333705D01*
X139302796Y-114333705D01*
X139302796Y-114131003D01*
X137758400Y-114131003D01*
X137758400Y-114333705D01*
X138483078Y-114333705D01*
X138483078Y-115129292D01*
X137758400Y-115129292D01*
X137758400Y-115331994D01*
G37*
G36*
X137758400Y-113798364D02*
G01*
X139302796Y-113798364D01*
X139302796Y-112691670D01*
X139124596Y-112691670D01*
X139124596Y-113596033D01*
X138637517Y-113596033D01*
X138637517Y-112749214D01*
X138459318Y-112749214D01*
X138459318Y-113596033D01*
X137936599Y-113596033D01*
X137936599Y-112656030D01*
X137758400Y-112656030D01*
X137758400Y-113798364D01*
G37*
G36*
X139302796Y-111746470D02*
G01*
X139302796Y-111964764D01*
X137758400Y-112552452D01*
X137758400Y-112337498D01*
X138233598Y-112169323D01*
X138233598Y-111592030D01*
X138399918Y-111592030D01*
X138399918Y-112111036D01*
X138849501Y-111942861D01*
X138867654Y-111936274D01*
X138885825Y-111929879D01*
X138904013Y-111923675D01*
X138922219Y-111917662D01*
X138940442Y-111911841D01*
X138958683Y-111906211D01*
X138976941Y-111900773D01*
X138995216Y-111895526D01*
X139013509Y-111890471D01*
X139031819Y-111885607D01*
X139050146Y-111880935D01*
X139068491Y-111876453D01*
X139086854Y-111872164D01*
X139105233Y-111868066D01*
X139123630Y-111864159D01*
X139142045Y-111860443D01*
X139126229Y-111855842D01*
X139109874Y-111850947D01*
X139092979Y-111845760D01*
X139075545Y-111840280D01*
X139057571Y-111834507D01*
X139039058Y-111828440D01*
X139020006Y-111822081D01*
X139000413Y-111815429D01*
X138980282Y-111808484D01*
X138959611Y-111801246D01*
X138938400Y-111793716D01*
X138916650Y-111785892D01*
X138894361Y-111777775D01*
X138871532Y-111769365D01*
X138848164Y-111760663D01*
X138824256Y-111751667D01*
X138399918Y-111592030D01*
X138233598Y-111592030D01*
X138233598Y-111529289D01*
X137758400Y-111350718D01*
X137758400Y-111120173D01*
X139302796Y-111746470D01*
G37*
G36*
X137758400Y-111122029D02*
G01*
X138563268Y-110529886D01*
X139302796Y-111051863D01*
X139302796Y-110810922D01*
X138910386Y-110532856D01*
X138895337Y-110522240D01*
X138880726Y-110512014D01*
X138866553Y-110502181D01*
X138852819Y-110492738D01*
X138839522Y-110483688D01*
X138826663Y-110475029D01*
X138814242Y-110466761D01*
X138796432Y-110455094D01*
X138779607Y-110444308D01*
X138763768Y-110434403D01*
X138748914Y-110425378D01*
X138735045Y-110417235D01*
X138722162Y-110409973D01*
X138737890Y-110400201D01*
X138753747Y-110390095D01*
X138769736Y-110379657D01*
X138785855Y-110368886D01*
X138802104Y-110357782D01*
X138818484Y-110346346D01*
X138834994Y-110334576D01*
X138851635Y-110322474D01*
X138868407Y-110310039D01*
X138885309Y-110297271D01*
X138896649Y-110288575D01*
X139302796Y-109980809D01*
X139302796Y-109760287D01*
X138574776Y-110298227D01*
X137758400Y-109718707D01*
X137758400Y-109969300D01*
X138304507Y-110354286D01*
X138319440Y-110364531D01*
X138334772Y-110374849D01*
X138347325Y-110383156D01*
X138360133Y-110391509D01*
X138373197Y-110399909D01*
X138386515Y-110408355D01*
X138400089Y-110416847D01*
X138406972Y-110421110D01*
X138391766Y-110430459D01*
X138377475Y-110439292D01*
X138364097Y-110447609D01*
X138347681Y-110457896D01*
X138332889Y-110467268D01*
X138319721Y-110475722D01*
X138305545Y-110485002D01*
X138291884Y-110494247D01*
X137758400Y-110878489D01*
X137758400Y-111122029D01*
G37*
G36*
X137758400Y-109518975D02*
G01*
X137972239Y-109518975D01*
X137972239Y-109304764D01*
X137758400Y-109304764D01*
X137758400Y-109518975D01*
G37*
G36*
X138304878Y-107865060D02*
G01*
X138253646Y-107662358D01*
X138237939Y-107666448D01*
X138222467Y-107670737D01*
X138207230Y-107675225D01*
X138192227Y-107679911D01*
X138177460Y-107684796D01*
X138162928Y-107689880D01*
X138148630Y-107695162D01*
X138134568Y-107700643D01*
X138120740Y-107706323D01*
X138093790Y-107718278D01*
X138067779Y-107731028D01*
X138042708Y-107744573D01*
X138018577Y-107758913D01*
X137995386Y-107774047D01*
X137973134Y-107789976D01*
X137951822Y-107806699D01*
X137931449Y-107824218D01*
X137912017Y-107842531D01*
X137893524Y-107861638D01*
X137875971Y-107881541D01*
X137867547Y-107891790D01*
X137851453Y-107912729D01*
X137836397Y-107934246D01*
X137822379Y-107956340D01*
X137809400Y-107979010D01*
X137797459Y-108002259D01*
X137786556Y-108026084D01*
X137776692Y-108050486D01*
X137767866Y-108075466D01*
X137760079Y-108101022D01*
X137753330Y-108127156D01*
X137747619Y-108153867D01*
X137742946Y-108181156D01*
X137739312Y-108209021D01*
X137736716Y-108237464D01*
X137735159Y-108266483D01*
X137734640Y-108296080D01*
X137734739Y-108311467D01*
X137735035Y-108326672D01*
X137735530Y-108341697D01*
X137736223Y-108356542D01*
X137738203Y-108385689D01*
X137740974Y-108414114D01*
X137744537Y-108441817D01*
X137748892Y-108468798D01*
X137754039Y-108495057D01*
X137759977Y-108520593D01*
X137766708Y-108545408D01*
X137774230Y-108569500D01*
X137782544Y-108592869D01*
X137791650Y-108615517D01*
X137801547Y-108637443D01*
X137812236Y-108658646D01*
X137823718Y-108679127D01*
X137835991Y-108698886D01*
X137849013Y-108717949D01*
X137862744Y-108736434D01*
X137877182Y-108754343D01*
X137892328Y-108771674D01*
X137908181Y-108788428D01*
X137924742Y-108804605D01*
X137942011Y-108820204D01*
X137959988Y-108835227D01*
X137978672Y-108849672D01*
X137998064Y-108863541D01*
X138018164Y-108876832D01*
X138038971Y-108889545D01*
X138060486Y-108901682D01*
X138082709Y-108913242D01*
X138105639Y-108924224D01*
X138129277Y-108934629D01*
X138153426Y-108944429D01*
X138177795Y-108953597D01*
X138202384Y-108962133D01*
X138227194Y-108970037D01*
X138252225Y-108977308D01*
X138277475Y-108983947D01*
X138302947Y-108989954D01*
X138328638Y-108995328D01*
X138354550Y-109000070D01*
X138380683Y-109004180D01*
X138407036Y-109007658D01*
X138433609Y-109010503D01*
X138460403Y-109012716D01*
X138487417Y-109014297D01*
X138514651Y-109015245D01*
X138542106Y-109015561D01*
X138557082Y-109015472D01*
X138571937Y-109015205D01*
X138601286Y-109014134D01*
X138630153Y-109012351D01*
X138658539Y-109009853D01*
X138686444Y-109006643D01*
X138713867Y-109002718D01*
X138740809Y-108998081D01*
X138767269Y-108992729D01*
X138793248Y-108986665D01*
X138818745Y-108979887D01*
X138843761Y-108972395D01*
X138868295Y-108964190D01*
X138892348Y-108955271D01*
X138915919Y-108945639D01*
X138939009Y-108935293D01*
X138961618Y-108924234D01*
X138983649Y-108912516D01*
X139005008Y-108900196D01*
X139025693Y-108887271D01*
X139045706Y-108873744D01*
X139065046Y-108859613D01*
X139083712Y-108844879D01*
X139101706Y-108829542D01*
X139119028Y-108813602D01*
X139135676Y-108797058D01*
X139151651Y-108779911D01*
X139166953Y-108762161D01*
X139181583Y-108743807D01*
X139195540Y-108724850D01*
X139208823Y-108705290D01*
X139221434Y-108685126D01*
X139233372Y-108664360D01*
X139244656Y-108643114D01*
X139255212Y-108621608D01*
X139265040Y-108599841D01*
X139274140Y-108577812D01*
X139282512Y-108555523D01*
X139290156Y-108532972D01*
X139297072Y-108510161D01*
X139303260Y-108487088D01*
X139308720Y-108463755D01*
X139313452Y-108440160D01*
X139317456Y-108416304D01*
X139320732Y-108392188D01*
X139323280Y-108367810D01*
X139325100Y-108343171D01*
X139326192Y-108318271D01*
X139326556Y-108293110D01*
X139326093Y-108264671D01*
X139324705Y-108236802D01*
X139322392Y-108209505D01*
X139319154Y-108182780D01*
X139314991Y-108156626D01*
X139309902Y-108131043D01*
X139303888Y-108106031D01*
X139296949Y-108081591D01*
X139289084Y-108057723D01*
X139280295Y-108034425D01*
X139270580Y-108011699D01*
X139259940Y-107989545D01*
X139248375Y-107967961D01*
X139235884Y-107946950D01*
X139222468Y-107926509D01*
X139208127Y-107906640D01*
X139192947Y-107887428D01*
X139177012Y-107868958D01*
X139160323Y-107851231D01*
X139142880Y-107834247D01*
X139124683Y-107818004D01*
X139105732Y-107802505D01*
X139086027Y-107787748D01*
X139065568Y-107773733D01*
X139044354Y-107760461D01*
X139022387Y-107747931D01*
X138999665Y-107736144D01*
X138976189Y-107725099D01*
X138951960Y-107714797D01*
X138926976Y-107705237D01*
X138901238Y-107696420D01*
X138874746Y-107688346D01*
X138827597Y-107888078D01*
X138848581Y-107894902D01*
X138868840Y-107902104D01*
X138888375Y-107909683D01*
X138907184Y-107917638D01*
X138925267Y-107925971D01*
X138942626Y-107934681D01*
X138959260Y-107943768D01*
X138975169Y-107953232D01*
X138990352Y-107963073D01*
X139004810Y-107973291D01*
X139018544Y-107983886D01*
X139031552Y-107994858D01*
X139043835Y-108006207D01*
X139055393Y-108017934D01*
X139066226Y-108030037D01*
X139076334Y-108042517D01*
X139085775Y-108055389D01*
X139094606Y-108068667D01*
X139102829Y-108082351D01*
X139110442Y-108096441D01*
X139117447Y-108110937D01*
X139123842Y-108125840D01*
X139129628Y-108141148D01*
X139134806Y-108156862D01*
X139139374Y-108172982D01*
X139143333Y-108189509D01*
X139146683Y-108206441D01*
X139149424Y-108223780D01*
X139151555Y-108241524D01*
X139153078Y-108259675D01*
X139153992Y-108278231D01*
X139154296Y-108297194D01*
X139153963Y-108319012D01*
X139152962Y-108340381D01*
X139151294Y-108361300D01*
X139148960Y-108381769D01*
X139145958Y-108401789D01*
X139142289Y-108421360D01*
X139137953Y-108440480D01*
X139132949Y-108459152D01*
X139127279Y-108477373D01*
X139120942Y-108495145D01*
X139113937Y-108512468D01*
X139106266Y-108529341D01*
X139097927Y-108545764D01*
X139088922Y-108561738D01*
X139079249Y-108577263D01*
X139068909Y-108592337D01*
X139058008Y-108606867D01*
X139046651Y-108620848D01*
X139034840Y-108634281D01*
X139022572Y-108647166D01*
X139009850Y-108659503D01*
X138996672Y-108671292D01*
X138983039Y-108682532D01*
X138968950Y-108693224D01*
X138954406Y-108703368D01*
X138939407Y-108712964D01*
X138923952Y-108722012D01*
X138908042Y-108730512D01*
X138891677Y-108738463D01*
X138874856Y-108745866D01*
X138857580Y-108752721D01*
X138839848Y-108759028D01*
X138821853Y-108764827D01*
X138803785Y-108770253D01*
X138785644Y-108775304D01*
X138767431Y-108779980D01*
X138749146Y-108784283D01*
X138730788Y-108788212D01*
X138712357Y-108791766D01*
X138693854Y-108794946D01*
X138675279Y-108797753D01*
X138656631Y-108800185D01*
X138637910Y-108802242D01*
X138619117Y-108803926D01*
X138600252Y-108805236D01*
X138581314Y-108806171D01*
X138562303Y-108806732D01*
X138543220Y-108806919D01*
X138518774Y-108806697D01*
X138494720Y-108806032D01*
X138471057Y-108804922D01*
X138447786Y-108803369D01*
X138424906Y-108801372D01*
X138402418Y-108798932D01*
X138380322Y-108796047D01*
X138358617Y-108792719D01*
X138337303Y-108788947D01*
X138316381Y-108784731D01*
X138295851Y-108780072D01*
X138275712Y-108774969D01*
X138255965Y-108769422D01*
X138236609Y-108763431D01*
X138217645Y-108756996D01*
X138199072Y-108750118D01*
X138181030Y-108742727D01*
X138163566Y-108734845D01*
X138146678Y-108726473D01*
X138130368Y-108717611D01*
X138114635Y-108708258D01*
X138099479Y-108698416D01*
X138084900Y-108688083D01*
X138070898Y-108677260D01*
X138057474Y-108665948D01*
X138044627Y-108654144D01*
X138032357Y-108641851D01*
X138020664Y-108629068D01*
X138009548Y-108615794D01*
X137999010Y-108602030D01*
X137989048Y-108587776D01*
X137979664Y-108573032D01*
X137970853Y-108557920D01*
X137962610Y-108542654D01*
X137954935Y-108527234D01*
X137947829Y-108511660D01*
X137941292Y-108495933D01*
X137935323Y-108480052D01*
X137929922Y-108464017D01*
X137925090Y-108447829D01*
X137920827Y-108431486D01*
X137917132Y-108414990D01*
X137914005Y-108398341D01*
X137911447Y-108381537D01*
X137909457Y-108364580D01*
X137908036Y-108347469D01*
X137907183Y-108330205D01*
X137906899Y-108312787D01*
X137907291Y-108291736D01*
X137908465Y-108271091D01*
X137910423Y-108250852D01*
X137913164Y-108231019D01*
X137916688Y-108211592D01*
X137920995Y-108192572D01*
X137926085Y-108173957D01*
X137931958Y-108155748D01*
X137938615Y-108137946D01*
X137946054Y-108120549D01*
X137954277Y-108103559D01*
X137963283Y-108086974D01*
X137973071Y-108070796D01*
X137983643Y-108055024D01*
X137994998Y-108039658D01*
X138007136Y-108024697D01*
X138020046Y-108010239D01*
X138033716Y-107996378D01*
X138048145Y-107983115D01*
X138063334Y-107970449D01*
X138079283Y-107958380D01*
X138095993Y-107946909D01*
X138113462Y-107936036D01*
X138131690Y-107925759D01*
X138150679Y-107916081D01*
X138170428Y-107907000D01*
X138190937Y-107898516D01*
X138212205Y-107890630D01*
X138234234Y-107883341D01*
X138257022Y-107876650D01*
X138280570Y-107870556D01*
X138304878Y-107865060D01*
G37*
G36*
X138556672Y-106019559D02*
G01*
X138584962Y-106020608D01*
X138612870Y-106022355D01*
X138640395Y-106024801D01*
X138667536Y-106027947D01*
X138694295Y-106031791D01*
X138720671Y-106036335D01*
X138746665Y-106041577D01*
X138772275Y-106047519D01*
X138797503Y-106054159D01*
X138822347Y-106061499D01*
X138846809Y-106069537D01*
X138870888Y-106078274D01*
X138894584Y-106087711D01*
X138917898Y-106097846D01*
X138940828Y-106108681D01*
X138963299Y-106120136D01*
X138985140Y-106132226D01*
X139006352Y-106144951D01*
X139026935Y-106158312D01*
X139046888Y-106172308D01*
X139066212Y-106186939D01*
X139084906Y-106202205D01*
X139102971Y-106218106D01*
X139120407Y-106234643D01*
X139137213Y-106251815D01*
X139153390Y-106269621D01*
X139168937Y-106288064D01*
X139183855Y-106307141D01*
X139198144Y-106326853D01*
X139211804Y-106347201D01*
X139224834Y-106368184D01*
X139237151Y-106389602D01*
X139248675Y-106411347D01*
X139259403Y-106433421D01*
X139269337Y-106455822D01*
X139278476Y-106478551D01*
X139286821Y-106501607D01*
X139294370Y-106524992D01*
X139301125Y-106548704D01*
X139307086Y-106572743D01*
X139312251Y-106597111D01*
X139316622Y-106621806D01*
X139320198Y-106646829D01*
X139322980Y-106672180D01*
X139324966Y-106697859D01*
X139326158Y-106723865D01*
X139326556Y-106750199D01*
X139326344Y-106770316D01*
X139325709Y-106790201D01*
X139324650Y-106809854D01*
X139323168Y-106829275D01*
X139321263Y-106848464D01*
X139318934Y-106867421D01*
X139316181Y-106886146D01*
X139313005Y-106904639D01*
X139309406Y-106922900D01*
X139305383Y-106940928D01*
X139300937Y-106958725D01*
X139296067Y-106976290D01*
X139290774Y-106993622D01*
X139285057Y-107010723D01*
X139278917Y-107027592D01*
X139272353Y-107044228D01*
X139265366Y-107060633D01*
X139257956Y-107076806D01*
X139250122Y-107092746D01*
X139241865Y-107108454D01*
X139233184Y-107123931D01*
X139224079Y-107139175D01*
X139214552Y-107154188D01*
X139204600Y-107168968D01*
X139194226Y-107183516D01*
X139183428Y-107197833D01*
X139172206Y-107211917D01*
X139160561Y-107225769D01*
X139148493Y-107239389D01*
X139136001Y-107252778D01*
X139123085Y-107265934D01*
X139109746Y-107278858D01*
X139096056Y-107291443D01*
X139082040Y-107303629D01*
X139067699Y-107315415D01*
X139053032Y-107326801D01*
X139038040Y-107337788D01*
X139022722Y-107348376D01*
X139007078Y-107358564D01*
X138991109Y-107368352D01*
X138974814Y-107377741D01*
X138958194Y-107386730D01*
X138941248Y-107395320D01*
X138923977Y-107403511D01*
X138906380Y-107411301D01*
X138888457Y-107418693D01*
X138870209Y-107425684D01*
X138851635Y-107432277D01*
X138832736Y-107438469D01*
X138813511Y-107444262D01*
X138793961Y-107449656D01*
X138774085Y-107454650D01*
X138753883Y-107459245D01*
X138733356Y-107463440D01*
X138712504Y-107467235D01*
X138691325Y-107470631D01*
X138669822Y-107473628D01*
X138647992Y-107476225D01*
X138625837Y-107478422D01*
X138603357Y-107480220D01*
X138580551Y-107481618D01*
X138557419Y-107482617D01*
X138533962Y-107483216D01*
X138510179Y-107483416D01*
X138484924Y-107483074D01*
X138459834Y-107482047D01*
X138434910Y-107480336D01*
X138410151Y-107477940D01*
X138385557Y-107474860D01*
X138361128Y-107471095D01*
X138336865Y-107466646D01*
X138312767Y-107461512D01*
X138288835Y-107455694D01*
X138265068Y-107449192D01*
X138241466Y-107442004D01*
X138218029Y-107434133D01*
X138194758Y-107425577D01*
X138171652Y-107416336D01*
X138148711Y-107406411D01*
X138125936Y-107395801D01*
X138103542Y-107384483D01*
X138081746Y-107372523D01*
X138060547Y-107359922D01*
X138039946Y-107346680D01*
X138019942Y-107332798D01*
X138000535Y-107318274D01*
X137981726Y-107303109D01*
X137963515Y-107287304D01*
X137945901Y-107270857D01*
X137928884Y-107253770D01*
X137912465Y-107236041D01*
X137896643Y-107217671D01*
X137881419Y-107198661D01*
X137866793Y-107179009D01*
X137852763Y-107158717D01*
X137839332Y-107137783D01*
X137826654Y-107116304D01*
X137814795Y-107094469D01*
X137803753Y-107072277D01*
X137793529Y-107049728D01*
X137784123Y-107026822D01*
X137775535Y-107003559D01*
X137767765Y-106979940D01*
X137760813Y-106955964D01*
X137754678Y-106931631D01*
X137749362Y-106906942D01*
X137744863Y-106881895D01*
X137741183Y-106856492D01*
X137738320Y-106830733D01*
X137736275Y-106804616D01*
X137735049Y-106778143D01*
X137734657Y-106752427D01*
X137906899Y-106752427D01*
X137907527Y-106780161D01*
X137909411Y-106807308D01*
X137912551Y-106833865D01*
X137916946Y-106859834D01*
X137922597Y-106885213D01*
X137929505Y-106910004D01*
X137937668Y-106934207D01*
X137947087Y-106957820D01*
X137957762Y-106980845D01*
X137969692Y-107003281D01*
X137982879Y-107025128D01*
X137997322Y-107046386D01*
X138013020Y-107067056D01*
X138029974Y-107087137D01*
X138048184Y-107106629D01*
X138067650Y-107125532D01*
X138088206Y-107143559D01*
X138109688Y-107160424D01*
X138132095Y-107176125D01*
X138155427Y-107190663D01*
X138179685Y-107204038D01*
X138204867Y-107216250D01*
X138230975Y-107227299D01*
X138258008Y-107237185D01*
X138285966Y-107245908D01*
X138300292Y-107249833D01*
X138314850Y-107253468D01*
X138329638Y-107256812D01*
X138344658Y-107259865D01*
X138359910Y-107262627D01*
X138375392Y-107265098D01*
X138391106Y-107267279D01*
X138407051Y-107269169D01*
X138423228Y-107270768D01*
X138439636Y-107272077D01*
X138456275Y-107273094D01*
X138473145Y-107273821D01*
X138490247Y-107274257D01*
X138507580Y-107274403D01*
X138529173Y-107274252D01*
X138550375Y-107273798D01*
X138571188Y-107273042D01*
X138591610Y-107271984D01*
X138611642Y-107270623D01*
X138631285Y-107268960D01*
X138650537Y-107266995D01*
X138669398Y-107264727D01*
X138687870Y-107262157D01*
X138705952Y-107259285D01*
X138723644Y-107256110D01*
X138740945Y-107252633D01*
X138757857Y-107248853D01*
X138774378Y-107244771D01*
X138790509Y-107240387D01*
X138806250Y-107235700D01*
X138821601Y-107230711D01*
X138836562Y-107225420D01*
X138851133Y-107219826D01*
X138865314Y-107213930D01*
X138879104Y-107207731D01*
X138892505Y-107201231D01*
X138918135Y-107187322D01*
X138942206Y-107172203D01*
X138964716Y-107155876D01*
X138985665Y-107138339D01*
X139005054Y-107119592D01*
X139023126Y-107099959D01*
X139040033Y-107079857D01*
X139055773Y-107059284D01*
X139070348Y-107038242D01*
X139083756Y-107016730D01*
X139095999Y-106994748D01*
X139107075Y-106972296D01*
X139116986Y-106949374D01*
X139125730Y-106925983D01*
X139133309Y-106902121D01*
X139139722Y-106877790D01*
X139144969Y-106852989D01*
X139149049Y-106827718D01*
X139151964Y-106801977D01*
X139153713Y-106775766D01*
X139154296Y-106749085D01*
X139153993Y-106730313D01*
X139153084Y-106711769D01*
X139151568Y-106693455D01*
X139149447Y-106675369D01*
X139146719Y-106657513D01*
X139143385Y-106639886D01*
X139139445Y-106622488D01*
X139134898Y-106605319D01*
X139129746Y-106588379D01*
X139123987Y-106571669D01*
X139117622Y-106555187D01*
X139110651Y-106538935D01*
X139103074Y-106522912D01*
X139094891Y-106507118D01*
X139086101Y-106491553D01*
X139076705Y-106476217D01*
X139066805Y-106461225D01*
X139056408Y-106446691D01*
X139045516Y-106432616D01*
X139034128Y-106418998D01*
X139022243Y-106405839D01*
X139009863Y-106393139D01*
X138996987Y-106380896D01*
X138983614Y-106369112D01*
X138969746Y-106357786D01*
X138955382Y-106346918D01*
X138940522Y-106336509D01*
X138925166Y-106326557D01*
X138909314Y-106317064D01*
X138892966Y-106308030D01*
X138876122Y-106299453D01*
X138858782Y-106291335D01*
X138841007Y-106283693D01*
X138822858Y-106276543D01*
X138804334Y-106269887D01*
X138785437Y-106263724D01*
X138766165Y-106258053D01*
X138746520Y-106252876D01*
X138726500Y-106248192D01*
X138706106Y-106244001D01*
X138685338Y-106240303D01*
X138664195Y-106237098D01*
X138642679Y-106234386D01*
X138620788Y-106232167D01*
X138598523Y-106230442D01*
X138575884Y-106229209D01*
X138552871Y-106228469D01*
X138529484Y-106228223D01*
X138510985Y-106228367D01*
X138492751Y-106228800D01*
X138474782Y-106229521D01*
X138457079Y-106230532D01*
X138439641Y-106231830D01*
X138422468Y-106233417D01*
X138405561Y-106235293D01*
X138388920Y-106237458D01*
X138372543Y-106239911D01*
X138356433Y-106242652D01*
X138340587Y-106245682D01*
X138325007Y-106249001D01*
X138309692Y-106252609D01*
X138294643Y-106256504D01*
X138279859Y-106260689D01*
X138265340Y-106265162D01*
X138251087Y-106269924D01*
X138237099Y-106274974D01*
X138209920Y-106285940D01*
X138183802Y-106298061D01*
X138158745Y-106311336D01*
X138134750Y-106325766D01*
X138111817Y-106341349D01*
X138089945Y-106358087D01*
X138069135Y-106375980D01*
X138049489Y-106394766D01*
X138031111Y-106414184D01*
X138014000Y-106434234D01*
X137998157Y-106454917D01*
X137983581Y-106476232D01*
X137970273Y-106498179D01*
X137958232Y-106520758D01*
X137947458Y-106543970D01*
X137937952Y-106567814D01*
X137929714Y-106592291D01*
X137922742Y-106617399D01*
X137917039Y-106643140D01*
X137912603Y-106669513D01*
X137909434Y-106696519D01*
X137907533Y-106724157D01*
X137906899Y-106752427D01*
X137734657Y-106752427D01*
X137734640Y-106751313D01*
X137735011Y-106726499D01*
X137736125Y-106701896D01*
X137737981Y-106677505D01*
X137740580Y-106653326D01*
X137743921Y-106629359D01*
X137748005Y-106605603D01*
X137752831Y-106582059D01*
X137758400Y-106558727D01*
X137764711Y-106535607D01*
X137771764Y-106512698D01*
X137779561Y-106490001D01*
X137788099Y-106467516D01*
X137797381Y-106445243D01*
X137807404Y-106423181D01*
X137818171Y-106401331D01*
X137829679Y-106379692D01*
X137841909Y-106358466D01*
X137854837Y-106337852D01*
X137868465Y-106317849D01*
X137882791Y-106298459D01*
X137897817Y-106279680D01*
X137913541Y-106261513D01*
X137929964Y-106243959D01*
X137947087Y-106227016D01*
X137964908Y-106210686D01*
X137983429Y-106194967D01*
X138002648Y-106179860D01*
X138022566Y-106165366D01*
X138043184Y-106151483D01*
X138064500Y-106138212D01*
X138086516Y-106125554D01*
X138109230Y-106113507D01*
X138132532Y-106102088D01*
X138156216Y-106091406D01*
X138180284Y-106081460D01*
X138204734Y-106072252D01*
X138229567Y-106063780D01*
X138254783Y-106056044D01*
X138280382Y-106049046D01*
X138306363Y-106042784D01*
X138332728Y-106037259D01*
X138359475Y-106032470D01*
X138386605Y-106028418D01*
X138414118Y-106025103D01*
X138442014Y-106022525D01*
X138470293Y-106020683D01*
X138498954Y-106019578D01*
X138527999Y-106019210D01*
X138556672Y-106019559D01*
G37*
G36*
X137758400Y-105773443D02*
G01*
X139302796Y-105773443D01*
X139302796Y-105468647D01*
X138207611Y-105106308D01*
X138188792Y-105100149D01*
X138170573Y-105094202D01*
X138152955Y-105088466D01*
X138135937Y-105082942D01*
X138119519Y-105077630D01*
X138103702Y-105072530D01*
X138088485Y-105067641D01*
X138073868Y-105062965D01*
X138053069Y-105056346D01*
X138033621Y-105050204D01*
X138015524Y-105044539D01*
X137998778Y-105039350D01*
X137983382Y-105034637D01*
X137978550Y-105033172D01*
X137995050Y-105028041D01*
X138012946Y-105022395D01*
X138032239Y-105016234D01*
X138052928Y-105009557D01*
X138067496Y-105004819D01*
X138082686Y-104999852D01*
X138098496Y-104994656D01*
X138114926Y-104989231D01*
X138131978Y-104983577D01*
X138149650Y-104977693D01*
X138167942Y-104971581D01*
X138186856Y-104965239D01*
X138206390Y-104958668D01*
X138226545Y-104951868D01*
X139302796Y-104585445D01*
X139302796Y-104312949D01*
X137758400Y-104312949D01*
X137758400Y-104508226D01*
X139053316Y-104508226D01*
X137758400Y-104952982D01*
X137758400Y-105135637D01*
X139075220Y-105578537D01*
X137758400Y-105578537D01*
X137758400Y-105773443D01*
G37*
G36*
X137758400Y-103966573D02*
G01*
X137972239Y-103966573D01*
X137972239Y-103752362D01*
X137758400Y-103752362D01*
X137758400Y-103966573D01*
G37*
G36*
X138227886Y-102257634D02*
G01*
X138244533Y-102258508D01*
X138260892Y-102259966D01*
X138276965Y-102262006D01*
X138292750Y-102264629D01*
X138308248Y-102267836D01*
X138323460Y-102271625D01*
X138338383Y-102275997D01*
X138353020Y-102280953D01*
X138367370Y-102286491D01*
X138381432Y-102292612D01*
X138395208Y-102299316D01*
X138408696Y-102306604D01*
X138421897Y-102314474D01*
X138434811Y-102322927D01*
X138447438Y-102331963D01*
X138459738Y-102341542D01*
X138471581Y-102351622D01*
X138482965Y-102362204D01*
X138493890Y-102373288D01*
X138504358Y-102384873D01*
X138514367Y-102396961D01*
X138523918Y-102409550D01*
X138533011Y-102422641D01*
X138541645Y-102436233D01*
X138549821Y-102450328D01*
X138557539Y-102464924D01*
X138564799Y-102480022D01*
X138571600Y-102495622D01*
X138577944Y-102511723D01*
X138583828Y-102528326D01*
X138589255Y-102545431D01*
X138596020Y-102532187D01*
X138606652Y-102513119D01*
X138617864Y-102495011D01*
X138629658Y-102477862D01*
X138642032Y-102461673D01*
X138654987Y-102446442D01*
X138668523Y-102432171D01*
X138682639Y-102418860D01*
X138697336Y-102406507D01*
X138712615Y-102395114D01*
X138728473Y-102384681D01*
X138739330Y-102378207D01*
X138755777Y-102369280D01*
X138772420Y-102361292D01*
X138789259Y-102354244D01*
X138806294Y-102348136D01*
X138823524Y-102342967D01*
X138840950Y-102338739D01*
X138858572Y-102335449D01*
X138876390Y-102333100D01*
X138894404Y-102331691D01*
X138912613Y-102331221D01*
X138925711Y-102331456D01*
X138945228Y-102332689D01*
X138964588Y-102334980D01*
X138983791Y-102338327D01*
X139002838Y-102342732D01*
X139021728Y-102348194D01*
X139040462Y-102354714D01*
X139059039Y-102362290D01*
X139077459Y-102370924D01*
X139095723Y-102380615D01*
X139113830Y-102391363D01*
X139125698Y-102399061D01*
X139142761Y-102411281D01*
X139158937Y-102424311D01*
X139174225Y-102438151D01*
X139188625Y-102452799D01*
X139202138Y-102468257D01*
X139214763Y-102484523D01*
X139226501Y-102501599D01*
X139237352Y-102519485D01*
X139247314Y-102538179D01*
X139256390Y-102557683D01*
X139262009Y-102571180D01*
X139267266Y-102585219D01*
X139272161Y-102599801D01*
X139276692Y-102614925D01*
X139280862Y-102630591D01*
X139284668Y-102646800D01*
X139288113Y-102663551D01*
X139291194Y-102680845D01*
X139293913Y-102698680D01*
X139296270Y-102717059D01*
X139298264Y-102735979D01*
X139299895Y-102755442D01*
X139301164Y-102775448D01*
X139302071Y-102795996D01*
X139302615Y-102817086D01*
X139302796Y-102838718D01*
X139302796Y-103413041D01*
X137758400Y-103413041D01*
X137758400Y-103210339D01*
X137936599Y-103210339D01*
X138483078Y-103210339D01*
X138661277Y-103210339D01*
X139124596Y-103210339D01*
X139124596Y-102904429D01*
X139124512Y-102884204D01*
X139124260Y-102864735D01*
X139123839Y-102846023D01*
X139123251Y-102828068D01*
X139122494Y-102810870D01*
X139121568Y-102794429D01*
X139120475Y-102778746D01*
X139119213Y-102763819D01*
X139117005Y-102742848D01*
X139114419Y-102723580D01*
X139111454Y-102706016D01*
X139108111Y-102690155D01*
X139103064Y-102671656D01*
X139097112Y-102655165D01*
X139090024Y-102639659D01*
X139081798Y-102625140D01*
X139072436Y-102611607D01*
X139061936Y-102599060D01*
X139050300Y-102587499D01*
X139037527Y-102576924D01*
X139023617Y-102567335D01*
X139008848Y-102558808D01*
X138993499Y-102551418D01*
X138977570Y-102545165D01*
X138961061Y-102540048D01*
X138943972Y-102536069D01*
X138926303Y-102533227D01*
X138908054Y-102531521D01*
X138889224Y-102530953D01*
X138869508Y-102531562D01*
X138850638Y-102533389D01*
X138832615Y-102536434D01*
X138815439Y-102540698D01*
X138799109Y-102546180D01*
X138783627Y-102552880D01*
X138768992Y-102560798D01*
X138755203Y-102569934D01*
X138751915Y-102572408D01*
X138739347Y-102583058D01*
X138727720Y-102594915D01*
X138717032Y-102607978D01*
X138707284Y-102622248D01*
X138698475Y-102637725D01*
X138690606Y-102654408D01*
X138683677Y-102672297D01*
X138679097Y-102686506D01*
X138674921Y-102702273D01*
X138671301Y-102720429D01*
X138668952Y-102735615D01*
X138666916Y-102752145D01*
X138665193Y-102770019D01*
X138663783Y-102789238D01*
X138662687Y-102809801D01*
X138661904Y-102831708D01*
X138661556Y-102847060D01*
X138661347Y-102863009D01*
X138661277Y-102879556D01*
X138661277Y-103210339D01*
X138483078Y-103210339D01*
X138483078Y-102856538D01*
X138482973Y-102838522D01*
X138482660Y-102821043D01*
X138482138Y-102804101D01*
X138481407Y-102787695D01*
X138480467Y-102771825D01*
X138479319Y-102756492D01*
X138477962Y-102741696D01*
X138475534Y-102720508D01*
X138472636Y-102700527D01*
X138469269Y-102681753D01*
X138465432Y-102664186D01*
X138461125Y-102647827D01*
X138456348Y-102632675D01*
X138454662Y-102627836D01*
X138449143Y-102613718D01*
X138440709Y-102595829D01*
X138431045Y-102579006D01*
X138420151Y-102563251D01*
X138408027Y-102548564D01*
X138394674Y-102534944D01*
X138380091Y-102522391D01*
X138364278Y-102510905D01*
X138351755Y-102503076D01*
X138334428Y-102493836D01*
X138316382Y-102485964D01*
X138302375Y-102480959D01*
X138287964Y-102476724D01*
X138273148Y-102473258D01*
X138257928Y-102470563D01*
X138242302Y-102468638D01*
X138226273Y-102467483D01*
X138209838Y-102467098D01*
X138191177Y-102467574D01*
X138173062Y-102469001D01*
X138155491Y-102471379D01*
X138138466Y-102474709D01*
X138121986Y-102478989D01*
X138106051Y-102484222D01*
X138090662Y-102490405D01*
X138075818Y-102497540D01*
X138061768Y-102505325D01*
X138048577Y-102513643D01*
X138036245Y-102522495D01*
X138022036Y-102534311D01*
X138009170Y-102546960D01*
X137997644Y-102560443D01*
X137987460Y-102574760D01*
X137981906Y-102583736D01*
X137973330Y-102599611D01*
X137967082Y-102613132D01*
X137961380Y-102627385D01*
X137956223Y-102642368D01*
X137951611Y-102658082D01*
X137947545Y-102674528D01*
X137944024Y-102691704D01*
X137941501Y-102708649D01*
X137939797Y-102725901D01*
X137938695Y-102741752D01*
X137937824Y-102759424D01*
X137937186Y-102778917D01*
X137936860Y-102794733D01*
X137936664Y-102811572D01*
X137936599Y-102829437D01*
X137936599Y-103210339D01*
X137758400Y-103210339D01*
X137758400Y-102829437D01*
X137758501Y-102811331D01*
X137758806Y-102793582D01*
X137759313Y-102776190D01*
X137760024Y-102759155D01*
X137760937Y-102742476D01*
X137762054Y-102726154D01*
X137763374Y-102710189D01*
X137764896Y-102694581D01*
X137766622Y-102679329D01*
X137768551Y-102664434D01*
X137771825Y-102642761D01*
X137775555Y-102621890D01*
X137779743Y-102601822D01*
X137784387Y-102582556D01*
X137787777Y-102570067D01*
X137793222Y-102551834D01*
X137799098Y-102534201D01*
X137805404Y-102517169D01*
X137812141Y-102500737D01*
X137819308Y-102484905D01*
X137826907Y-102469673D01*
X137834936Y-102455042D01*
X137843395Y-102441012D01*
X137852286Y-102427582D01*
X137861607Y-102414752D01*
X137868179Y-102406483D01*
X137878668Y-102394395D01*
X137889915Y-102382685D01*
X137901918Y-102371354D01*
X137914678Y-102360401D01*
X137928195Y-102349827D01*
X137942469Y-102339632D01*
X137957501Y-102329815D01*
X137973289Y-102320376D01*
X137989834Y-102311316D01*
X138007136Y-102302635D01*
X138018983Y-102297150D01*
X138036976Y-102289586D01*
X138055236Y-102282819D01*
X138073764Y-102276848D01*
X138092560Y-102271673D01*
X138111623Y-102267294D01*
X138130954Y-102263711D01*
X138150552Y-102260925D01*
X138170418Y-102258934D01*
X138190551Y-102257740D01*
X138210952Y-102257342D01*
X138227886Y-102257634D01*
G37*
G36*
X138176797Y-100900798D02*
G01*
X138191953Y-100910720D01*
X138206793Y-100920718D01*
X138221317Y-100930791D01*
X138235524Y-100940939D01*
X138249416Y-100951163D01*
X138262991Y-100961462D01*
X138276250Y-100971837D01*
X138289193Y-100982287D01*
X138301820Y-100992813D01*
X138314130Y-101003413D01*
X138326125Y-101014090D01*
X138337803Y-101024841D01*
X138349166Y-101035669D01*
X138360212Y-101046571D01*
X138370942Y-101057549D01*
X138381356Y-101068602D01*
X138388399Y-101076804D01*
X138397831Y-101088786D01*
X138407310Y-101101962D01*
X138416834Y-101116334D01*
X138426406Y-101131900D01*
X138436023Y-101148661D01*
X138443267Y-101162017D01*
X138450537Y-101176044D01*
X138457833Y-101190743D01*
X138462005Y-101163673D01*
X138466818Y-101137498D01*
X138472272Y-101112220D01*
X138478368Y-101087838D01*
X138485104Y-101064352D01*
X138492481Y-101041762D01*
X138500499Y-101020069D01*
X138509158Y-100999272D01*
X138518458Y-100979371D01*
X138528399Y-100960366D01*
X138538981Y-100942257D01*
X138550204Y-100925045D01*
X138562068Y-100908729D01*
X138574573Y-100893309D01*
X138587719Y-100878785D01*
X138601506Y-100865158D01*
X138615863Y-100852390D01*
X138630626Y-100840447D01*
X138645795Y-100829327D01*
X138661370Y-100819030D01*
X138677351Y-100809558D01*
X138693738Y-100800909D01*
X138710532Y-100793083D01*
X138727731Y-100786082D01*
X138745336Y-100779904D01*
X138763348Y-100774550D01*
X138781765Y-100770020D01*
X138800589Y-100766313D01*
X138819818Y-100763430D01*
X138839454Y-100761371D01*
X138859495Y-100760135D01*
X138879943Y-100759723D01*
X138895821Y-100759973D01*
X138911528Y-100760721D01*
X138927064Y-100761968D01*
X138942429Y-100763714D01*
X138957623Y-100765959D01*
X138972645Y-100768703D01*
X138987497Y-100771945D01*
X139002177Y-100775687D01*
X139016686Y-100779927D01*
X139031024Y-100784666D01*
X139045191Y-100789905D01*
X139059187Y-100795642D01*
X139073012Y-100801877D01*
X139086665Y-100808612D01*
X139100148Y-100815846D01*
X139113459Y-100823578D01*
X139120009Y-100827588D01*
X139132733Y-100835860D01*
X139144955Y-100844468D01*
X139162348Y-100858011D01*
X139178611Y-100872312D01*
X139193746Y-100887369D01*
X139207751Y-100903183D01*
X139220628Y-100919755D01*
X139232376Y-100937083D01*
X139242994Y-100955168D01*
X139252484Y-100974011D01*
X139260845Y-100993610D01*
X139265925Y-101007312D01*
X139270677Y-101021779D01*
X139275102Y-101037011D01*
X139279198Y-101053010D01*
X139282967Y-101069774D01*
X139286409Y-101087304D01*
X139289522Y-101105600D01*
X139292308Y-101124661D01*
X139294766Y-101144488D01*
X139296896Y-101165081D01*
X139298699Y-101186439D01*
X139300174Y-101208563D01*
X139301321Y-101231453D01*
X139302140Y-101255109D01*
X139302632Y-101279530D01*
X139302796Y-101304717D01*
X139302796Y-101983360D01*
X137758400Y-101983360D01*
X137758400Y-101781030D01*
X138441498Y-101781030D01*
X138613757Y-101781030D01*
X139130536Y-101781030D01*
X139130536Y-101296549D01*
X139130256Y-101275607D01*
X139129417Y-101255381D01*
X139128017Y-101235872D01*
X139126058Y-101217079D01*
X139123539Y-101199002D01*
X139120460Y-101181642D01*
X139116822Y-101164998D01*
X139112624Y-101149071D01*
X139107865Y-101133860D01*
X139102548Y-101119365D01*
X139093521Y-101098966D01*
X139083235Y-101080179D01*
X139071690Y-101063004D01*
X139058885Y-101047441D01*
X139049821Y-101037866D01*
X139035649Y-101024661D01*
X139020786Y-101012845D01*
X139005230Y-101002420D01*
X138988983Y-100993385D01*
X138972044Y-100985740D01*
X138954413Y-100979485D01*
X138936091Y-100974620D01*
X138917077Y-100971145D01*
X138897371Y-100969060D01*
X138876973Y-100968365D01*
X138858213Y-100969003D01*
X138839802Y-100970918D01*
X138821738Y-100974108D01*
X138804023Y-100978575D01*
X138786655Y-100984317D01*
X138769636Y-100991336D01*
X138752964Y-100999631D01*
X138736641Y-101009203D01*
X138728749Y-101014454D01*
X138713783Y-101025835D01*
X138699908Y-101038388D01*
X138687123Y-101052112D01*
X138675428Y-101067009D01*
X138664825Y-101083077D01*
X138655311Y-101100317D01*
X138648892Y-101114016D01*
X138643086Y-101128374D01*
X138641282Y-101133328D01*
X138636212Y-101148902D01*
X138631658Y-101165540D01*
X138627620Y-101183242D01*
X138624097Y-101202007D01*
X138621090Y-101221836D01*
X138618598Y-101242728D01*
X138616622Y-101264684D01*
X138615591Y-101279913D01*
X138614789Y-101295614D01*
X138614216Y-101311788D01*
X138613872Y-101328435D01*
X138613757Y-101345554D01*
X138613757Y-101781030D01*
X138441498Y-101781030D01*
X138441498Y-101546029D01*
X138441433Y-101531726D01*
X138441143Y-101513854D01*
X138440621Y-101497351D01*
X138439866Y-101482217D01*
X138438598Y-101465224D01*
X138436966Y-101450371D01*
X138434073Y-101433169D01*
X138432565Y-101427283D01*
X138428185Y-101412630D01*
X138422935Y-101398069D01*
X138416816Y-101383598D01*
X138409826Y-101369217D01*
X138401966Y-101354927D01*
X138393236Y-101340728D01*
X138385213Y-101329214D01*
X138375810Y-101317316D01*
X138365026Y-101305036D01*
X138352862Y-101292373D01*
X138339317Y-101279327D01*
X138328253Y-101269291D01*
X138316412Y-101259040D01*
X138303794Y-101248574D01*
X138290400Y-101237892D01*
X138276046Y-101226829D01*
X138260550Y-101215217D01*
X138243913Y-101203057D01*
X138226133Y-101190349D01*
X138213645Y-101181572D01*
X138200650Y-101172552D01*
X138187147Y-101163288D01*
X138173137Y-101153781D01*
X138158619Y-101144030D01*
X138143594Y-101134035D01*
X138128061Y-101123797D01*
X138112020Y-101113315D01*
X138095472Y-101102589D01*
X138078416Y-101091620D01*
X137758400Y-100889289D01*
X137758400Y-100634241D01*
X138176797Y-100900798D01*
G37*
D11*
G36*
X139840000Y-121793859D02*
G01*
X141872100Y-121793859D01*
X141872100Y-121387438D01*
X141059260Y-121387438D01*
X141059260Y-120590230D01*
X141872100Y-120590230D01*
X141872100Y-120183810D01*
X139840000Y-120183810D01*
X139840000Y-120590230D01*
X140715366Y-120590230D01*
X140715366Y-121387438D01*
X139840000Y-121387438D01*
X139840000Y-121793859D01*
G37*
G36*
X139840000Y-119774947D02*
G01*
X141872100Y-119774947D01*
X141872100Y-118281646D01*
X141528206Y-118281646D01*
X141528206Y-119368039D01*
X141090523Y-119368039D01*
X141090523Y-118356873D01*
X140746629Y-118356873D01*
X140746629Y-119368039D01*
X140183893Y-119368039D01*
X140183893Y-118243056D01*
X139840000Y-118243056D01*
X139840000Y-119774947D01*
G37*
G36*
X141872100Y-116899232D02*
G01*
X141872100Y-117329099D01*
X139840000Y-118113607D01*
X139840000Y-117682274D01*
X140308946Y-117516189D01*
X140308946Y-116841591D01*
X140652840Y-116841591D01*
X140652840Y-117391137D01*
X141371891Y-117119050D01*
X140652840Y-116841591D01*
X140308946Y-116841591D01*
X140308946Y-116710676D01*
X139840000Y-116534822D01*
X139840000Y-116092742D01*
X141872100Y-116899232D01*
G37*
G36*
X139840000Y-116093230D02*
G01*
X140897083Y-115396650D01*
X141872100Y-116028750D01*
X141872100Y-115553454D01*
X141263935Y-115154849D01*
X141872100Y-114753803D01*
X141872100Y-114282414D01*
X140899525Y-114915491D01*
X139840000Y-114220865D01*
X139840000Y-114711304D01*
X140528276Y-115157292D01*
X139840000Y-115605722D01*
X139840000Y-116093230D01*
G37*
G36*
X140496524Y-113347941D02*
G01*
X140527787Y-112952267D01*
X140504008Y-112947524D01*
X140481030Y-112942208D01*
X140458854Y-112936319D01*
X140437479Y-112929858D01*
X140416905Y-112922825D01*
X140397133Y-112915219D01*
X140378162Y-112907041D01*
X140359993Y-112898290D01*
X140342625Y-112888967D01*
X140318075Y-112873908D01*
X140295329Y-112857562D01*
X140274386Y-112839928D01*
X140255247Y-112821006D01*
X140243489Y-112807676D01*
X140227251Y-112786490D01*
X140212611Y-112763964D01*
X140199568Y-112740099D01*
X140188122Y-112714894D01*
X140178273Y-112688350D01*
X140170021Y-112660466D01*
X140165407Y-112641133D01*
X140161503Y-112621204D01*
X140158309Y-112600680D01*
X140155825Y-112579561D01*
X140154050Y-112557846D01*
X140152985Y-112535536D01*
X140152630Y-112512630D01*
X140152949Y-112488462D01*
X140153905Y-112465049D01*
X140155498Y-112442391D01*
X140157729Y-112420490D01*
X140160597Y-112399344D01*
X140164102Y-112378953D01*
X140168245Y-112359318D01*
X140175654Y-112331283D01*
X140184496Y-112304948D01*
X140194773Y-112280312D01*
X140206484Y-112257377D01*
X140219629Y-112236143D01*
X140234207Y-112216608D01*
X140249835Y-112198799D01*
X140265944Y-112182742D01*
X140282533Y-112168437D01*
X140299603Y-112155883D01*
X140317155Y-112145081D01*
X140335187Y-112136031D01*
X140353699Y-112128732D01*
X140372693Y-112123185D01*
X140392168Y-112119390D01*
X140412123Y-112117346D01*
X140425694Y-112116957D01*
X140447163Y-112117983D01*
X140467606Y-112121059D01*
X140487024Y-112126188D01*
X140505416Y-112133367D01*
X140522783Y-112142598D01*
X140539124Y-112153880D01*
X140545373Y-112158967D01*
X140560481Y-112173609D01*
X140574968Y-112191281D01*
X140586112Y-112207600D01*
X140596858Y-112225857D01*
X140607208Y-112246053D01*
X140617161Y-112268187D01*
X140626717Y-112292260D01*
X140631346Y-112305024D01*
X140638323Y-112325823D01*
X140644376Y-112345158D01*
X140651134Y-112367697D01*
X140658596Y-112393438D01*
X140663961Y-112412379D01*
X140669640Y-112432742D01*
X140675632Y-112454530D01*
X140681936Y-112477740D01*
X140688554Y-112502375D01*
X140695484Y-112528432D01*
X140702727Y-112555913D01*
X140710284Y-112584818D01*
X140718153Y-112615146D01*
X140722205Y-112630844D01*
X140727461Y-112651078D01*
X140732787Y-112670932D01*
X140738184Y-112690405D01*
X140743652Y-112709498D01*
X140754800Y-112746541D01*
X140766229Y-112782061D01*
X140777942Y-112816058D01*
X140789936Y-112848533D01*
X140802213Y-112879485D01*
X140814773Y-112908914D01*
X140827615Y-112936821D01*
X140840739Y-112963205D01*
X140854145Y-112988066D01*
X140867834Y-113011405D01*
X140881806Y-113033221D01*
X140896060Y-113053514D01*
X140910596Y-113072284D01*
X140925415Y-113089532D01*
X140946708Y-113112010D01*
X140968577Y-113133038D01*
X140991023Y-113152615D01*
X141014044Y-113170743D01*
X141037642Y-113187420D01*
X141061817Y-113202647D01*
X141086567Y-113216424D01*
X141111894Y-113228750D01*
X141137797Y-113239627D01*
X141164277Y-113249053D01*
X141191332Y-113257029D01*
X141218964Y-113263555D01*
X141247172Y-113268631D01*
X141275957Y-113272256D01*
X141305317Y-113274431D01*
X141335254Y-113275157D01*
X141364204Y-113274392D01*
X141392802Y-113272100D01*
X141421048Y-113268279D01*
X141448942Y-113262929D01*
X141476483Y-113256051D01*
X141503673Y-113247645D01*
X141530511Y-113237710D01*
X141556996Y-113226247D01*
X141583130Y-113213255D01*
X141600356Y-113203745D01*
X141617427Y-113193556D01*
X141625903Y-113188206D01*
X141642624Y-113176977D01*
X141658838Y-113165148D01*
X141674544Y-113152720D01*
X141689742Y-113139693D01*
X141704433Y-113126067D01*
X141718616Y-113111842D01*
X141732292Y-113097018D01*
X141745460Y-113081594D01*
X141758121Y-113065571D01*
X141770274Y-113048949D01*
X141781919Y-113031728D01*
X141793057Y-113013908D01*
X141803687Y-112995489D01*
X141813810Y-112976470D01*
X141823425Y-112956853D01*
X141832533Y-112936636D01*
X141841110Y-112915795D01*
X141849134Y-112894428D01*
X141856604Y-112872534D01*
X141863521Y-112850113D01*
X141869885Y-112827166D01*
X141875695Y-112803691D01*
X141880952Y-112779691D01*
X141885655Y-112755163D01*
X141889806Y-112730110D01*
X141893403Y-112704529D01*
X141896446Y-112678422D01*
X141898936Y-112651788D01*
X141900873Y-112624627D01*
X141902256Y-112596940D01*
X141903086Y-112568726D01*
X141903363Y-112539986D01*
X141903197Y-112516477D01*
X141902697Y-112493335D01*
X141901865Y-112470560D01*
X141900699Y-112448150D01*
X141899201Y-112426107D01*
X141897370Y-112404431D01*
X141895205Y-112383121D01*
X141892708Y-112362177D01*
X141889878Y-112341599D01*
X141886714Y-112321388D01*
X141883218Y-112301543D01*
X141879389Y-112282065D01*
X141875227Y-112262953D01*
X141865904Y-112225828D01*
X141855249Y-112190169D01*
X141843262Y-112155975D01*
X141829943Y-112123246D01*
X141815292Y-112091983D01*
X141799309Y-112062185D01*
X141781995Y-112033853D01*
X141763348Y-112006987D01*
X141743370Y-111981585D01*
X141732882Y-111969434D01*
X141711127Y-111946149D01*
X141688483Y-111924287D01*
X141664950Y-111903849D01*
X141640527Y-111884835D01*
X141615216Y-111867243D01*
X141589015Y-111851076D01*
X141561925Y-111836331D01*
X141533946Y-111823011D01*
X141505077Y-111811113D01*
X141475320Y-111800640D01*
X141444673Y-111791589D01*
X141413137Y-111783962D01*
X141380712Y-111777759D01*
X141347398Y-111772979D01*
X141313194Y-111769623D01*
X141278101Y-111767690D01*
X141278101Y-112174598D01*
X141305477Y-112179981D01*
X141331367Y-112186419D01*
X141355772Y-112193914D01*
X141378691Y-112202465D01*
X141400125Y-112212072D01*
X141420073Y-112222735D01*
X141438536Y-112234454D01*
X141455513Y-112247230D01*
X141471005Y-112261062D01*
X141485011Y-112275949D01*
X141493524Y-112286461D01*
X141505309Y-112303337D01*
X141515935Y-112321724D01*
X141525402Y-112341622D01*
X141533709Y-112363032D01*
X141540858Y-112385952D01*
X141546847Y-112410384D01*
X141551677Y-112436327D01*
X141555348Y-112463782D01*
X141557859Y-112492747D01*
X141558890Y-112512897D01*
X141559405Y-112533719D01*
X141559469Y-112544382D01*
X141559191Y-112566188D01*
X141558355Y-112587399D01*
X141556962Y-112608015D01*
X141555012Y-112628035D01*
X141552504Y-112647460D01*
X141547699Y-112675481D01*
X141541639Y-112702163D01*
X141534326Y-112727505D01*
X141525760Y-112751507D01*
X141515940Y-112774171D01*
X141504866Y-112795494D01*
X141492538Y-112815478D01*
X141488150Y-112821842D01*
X141473038Y-112840418D01*
X141456399Y-112855845D01*
X141438233Y-112868124D01*
X141418541Y-112877254D01*
X141397322Y-112883236D01*
X141374577Y-112886070D01*
X141365052Y-112886322D01*
X141343712Y-112884843D01*
X141323349Y-112880407D01*
X141303965Y-112873013D01*
X141285558Y-112862661D01*
X141268130Y-112849352D01*
X141251679Y-112833085D01*
X141245373Y-112825750D01*
X141233384Y-112809434D01*
X141221233Y-112789245D01*
X141208918Y-112765184D01*
X141200618Y-112746991D01*
X141192245Y-112727078D01*
X141183799Y-112705443D01*
X141175281Y-112682088D01*
X141166691Y-112657011D01*
X141158028Y-112630213D01*
X141149292Y-112601694D01*
X141140484Y-112571453D01*
X141131604Y-112539492D01*
X141122651Y-112505809D01*
X141113625Y-112470405D01*
X141109085Y-112452058D01*
X141100037Y-112415538D01*
X141090966Y-112380228D01*
X141081871Y-112346127D01*
X141072754Y-112313237D01*
X141063614Y-112281556D01*
X141054451Y-112251084D01*
X141045265Y-112221823D01*
X141036057Y-112193771D01*
X141026825Y-112166929D01*
X141017571Y-112141297D01*
X141008293Y-112116875D01*
X140998993Y-112093662D01*
X140989670Y-112071659D01*
X140980324Y-112050866D01*
X140970955Y-112031283D01*
X140961563Y-112012909D01*
X140951944Y-111995383D01*
X140941893Y-111978341D01*
X140931412Y-111961784D01*
X140914881Y-111937858D01*
X140897380Y-111915022D01*
X140878909Y-111893276D01*
X140859467Y-111872621D01*
X140839055Y-111853056D01*
X140817673Y-111834582D01*
X140795321Y-111817198D01*
X140771998Y-111800905D01*
X140755910Y-111790648D01*
X140730919Y-111776244D01*
X140704854Y-111763257D01*
X140686881Y-111755386D01*
X140668431Y-111748145D01*
X140649504Y-111741533D01*
X140630100Y-111735551D01*
X140610219Y-111730198D01*
X140589861Y-111725476D01*
X140569026Y-111721383D01*
X140547714Y-111717919D01*
X140525925Y-111715086D01*
X140503659Y-111712882D01*
X140480916Y-111711308D01*
X140457695Y-111710363D01*
X140433998Y-111710048D01*
X140412346Y-111710424D01*
X140390866Y-111711552D01*
X140369558Y-111713431D01*
X140348422Y-111716063D01*
X140327457Y-111719446D01*
X140306664Y-111723581D01*
X140286042Y-111728468D01*
X140265593Y-111734106D01*
X140245315Y-111740497D01*
X140225209Y-111747639D01*
X140205274Y-111755533D01*
X140185512Y-111764179D01*
X140165921Y-111773576D01*
X140146501Y-111783726D01*
X140127254Y-111794627D01*
X140108178Y-111806280D01*
X140089494Y-111818620D01*
X140071420Y-111831582D01*
X140053956Y-111845166D01*
X140037103Y-111859372D01*
X140020861Y-111874201D01*
X140005230Y-111889651D01*
X139990209Y-111905723D01*
X139975799Y-111922418D01*
X139961999Y-111939734D01*
X139948810Y-111957672D01*
X139936231Y-111976233D01*
X139924263Y-111995416D01*
X139912906Y-112015220D01*
X139902159Y-112035647D01*
X139892023Y-112056696D01*
X139882498Y-112078367D01*
X139873566Y-112100686D01*
X139865210Y-112123681D01*
X139857430Y-112147352D01*
X139850227Y-112171698D01*
X139843600Y-112196719D01*
X139837549Y-112222416D01*
X139832075Y-112248789D01*
X139827177Y-112275837D01*
X139822855Y-112303560D01*
X139819109Y-112331959D01*
X139815940Y-112361034D01*
X139813346Y-112390784D01*
X139811330Y-112421209D01*
X139809889Y-112452310D01*
X139809025Y-112484086D01*
X139808736Y-112516538D01*
X139808908Y-112540240D01*
X139809421Y-112563595D01*
X139810278Y-112586604D01*
X139811477Y-112609267D01*
X139813018Y-112631583D01*
X139814902Y-112653553D01*
X139817128Y-112675176D01*
X139819697Y-112696454D01*
X139822608Y-112717385D01*
X139825862Y-112737969D01*
X139829458Y-112758207D01*
X139833397Y-112778099D01*
X139837679Y-112797645D01*
X139842303Y-112816844D01*
X139852578Y-112854204D01*
X139864223Y-112890178D01*
X139877239Y-112924767D01*
X139891624Y-112957971D01*
X139907380Y-112989789D01*
X139924506Y-113020222D01*
X139943001Y-113049270D01*
X139962867Y-113076932D01*
X139984103Y-113103210D01*
X140006712Y-113128151D01*
X140030578Y-113151806D01*
X140055698Y-113174175D01*
X140082075Y-113195259D01*
X140109707Y-113215056D01*
X140138594Y-113233567D01*
X140168737Y-113250791D01*
X140200136Y-113266730D01*
X140232790Y-113281383D01*
X140266699Y-113294749D01*
X140301865Y-113306830D01*
X140338285Y-113317624D01*
X140375962Y-113327133D01*
X140395271Y-113331404D01*
X140414894Y-113335355D01*
X140434831Y-113338984D01*
X140455081Y-113342291D01*
X140475646Y-113345277D01*
X140496524Y-113347941D01*
G37*
G36*
X139840000Y-110849825D02*
G01*
X140695338Y-110849825D01*
X141872100Y-111587438D01*
X141872100Y-111110676D01*
X141057306Y-110636845D01*
X141872100Y-110172784D01*
X141872100Y-109703838D01*
X140692407Y-110444382D01*
X139840000Y-110444382D01*
X139840000Y-110849825D01*
G37*
G36*
X140496524Y-109615910D02*
G01*
X140527787Y-109220237D01*
X140504008Y-109215493D01*
X140481030Y-109210177D01*
X140458854Y-109204288D01*
X140437479Y-109197827D01*
X140416905Y-109190794D01*
X140397133Y-109183188D01*
X140378162Y-109175010D01*
X140359993Y-109166259D01*
X140342625Y-109156936D01*
X140318075Y-109141878D01*
X140295329Y-109125532D01*
X140274386Y-109107897D01*
X140255247Y-109088975D01*
X140243489Y-109075645D01*
X140227251Y-109054459D01*
X140212611Y-109031933D01*
X140199568Y-109008068D01*
X140188122Y-108982863D01*
X140178273Y-108956319D01*
X140170021Y-108928435D01*
X140165407Y-108909102D01*
X140161503Y-108889173D01*
X140158309Y-108868649D01*
X140155825Y-108847530D01*
X140154050Y-108825815D01*
X140152985Y-108803505D01*
X140152630Y-108780600D01*
X140152949Y-108756431D01*
X140153905Y-108733018D01*
X140155498Y-108710361D01*
X140157729Y-108688459D01*
X140160597Y-108667313D01*
X140164102Y-108646922D01*
X140168245Y-108627288D01*
X140175654Y-108599252D01*
X140184496Y-108572917D01*
X140194773Y-108548282D01*
X140206484Y-108525347D01*
X140219629Y-108504112D01*
X140234207Y-108484577D01*
X140249835Y-108466769D01*
X140265944Y-108450712D01*
X140282533Y-108436406D01*
X140299603Y-108423852D01*
X140317155Y-108413050D01*
X140335187Y-108404000D01*
X140353699Y-108396701D01*
X140372693Y-108391154D01*
X140392168Y-108387359D01*
X140412123Y-108385315D01*
X140425694Y-108384926D01*
X140447163Y-108385952D01*
X140467606Y-108389029D01*
X140487024Y-108394157D01*
X140505416Y-108401336D01*
X140522783Y-108410567D01*
X140539124Y-108421849D01*
X140545373Y-108426936D01*
X140560481Y-108441579D01*
X140574968Y-108459250D01*
X140586112Y-108475569D01*
X140596858Y-108493826D01*
X140607208Y-108514022D01*
X140617161Y-108536156D01*
X140626717Y-108560230D01*
X140631346Y-108572993D01*
X140638323Y-108593792D01*
X140644376Y-108613128D01*
X140651134Y-108635666D01*
X140658596Y-108661408D01*
X140663961Y-108680348D01*
X140669640Y-108700712D01*
X140675632Y-108722499D01*
X140681936Y-108745710D01*
X140688554Y-108770344D01*
X140695484Y-108796401D01*
X140702727Y-108823883D01*
X140710284Y-108852787D01*
X140718153Y-108883115D01*
X140722205Y-108898813D01*
X140727461Y-108919048D01*
X140732787Y-108938901D01*
X140738184Y-108958375D01*
X140743652Y-108977467D01*
X140754800Y-109014510D01*
X140766229Y-109050030D01*
X140777942Y-109084027D01*
X140789936Y-109116502D01*
X140802213Y-109147454D01*
X140814773Y-109176884D01*
X140827615Y-109204790D01*
X140840739Y-109231174D01*
X140854145Y-109256036D01*
X140867834Y-109279374D01*
X140881806Y-109301190D01*
X140896060Y-109321483D01*
X140910596Y-109340254D01*
X140925415Y-109357501D01*
X140946708Y-109379979D01*
X140968577Y-109401007D01*
X140991023Y-109420585D01*
X141014044Y-109438712D01*
X141037642Y-109455389D01*
X141061817Y-109470616D01*
X141086567Y-109484393D01*
X141111894Y-109496720D01*
X141137797Y-109507596D01*
X141164277Y-109517022D01*
X141191332Y-109524998D01*
X141218964Y-109531524D01*
X141247172Y-109536600D01*
X141275957Y-109540225D01*
X141305317Y-109542401D01*
X141335254Y-109543126D01*
X141364204Y-109542362D01*
X141392802Y-109540069D01*
X141421048Y-109536248D01*
X141448942Y-109530898D01*
X141476483Y-109524020D01*
X141503673Y-109515614D01*
X141530511Y-109505679D01*
X141556996Y-109494216D01*
X141583130Y-109481225D01*
X141600356Y-109471714D01*
X141617427Y-109461525D01*
X141625903Y-109456175D01*
X141642624Y-109444946D01*
X141658838Y-109433117D01*
X141674544Y-109420690D01*
X141689742Y-109407663D01*
X141704433Y-109394037D01*
X141718616Y-109379811D01*
X141732292Y-109364987D01*
X141745460Y-109349563D01*
X141758121Y-109333541D01*
X141770274Y-109316919D01*
X141781919Y-109299698D01*
X141793057Y-109281878D01*
X141803687Y-109263458D01*
X141813810Y-109244440D01*
X141823425Y-109224822D01*
X141832533Y-109204605D01*
X141841110Y-109183764D01*
X141849134Y-109162397D01*
X141856604Y-109140503D01*
X141863521Y-109118082D01*
X141869885Y-109095135D01*
X141875695Y-109071661D01*
X141880952Y-109047660D01*
X141885655Y-109023133D01*
X141889806Y-108998079D01*
X141893403Y-108972498D01*
X141896446Y-108946391D01*
X141898936Y-108919757D01*
X141900873Y-108892596D01*
X141902256Y-108864909D01*
X141903086Y-108836695D01*
X141903363Y-108807955D01*
X141903197Y-108784446D01*
X141902697Y-108761304D01*
X141901865Y-108738529D01*
X141900699Y-108716120D01*
X141899201Y-108694077D01*
X141897370Y-108672400D01*
X141895205Y-108651090D01*
X141892708Y-108630146D01*
X141889878Y-108609569D01*
X141886714Y-108589357D01*
X141883218Y-108569513D01*
X141879389Y-108550034D01*
X141875227Y-108530922D01*
X141865904Y-108493797D01*
X141855249Y-108458138D01*
X141843262Y-108423944D01*
X141829943Y-108391215D01*
X141815292Y-108359952D01*
X141799309Y-108330155D01*
X141781995Y-108301823D01*
X141763348Y-108274956D01*
X141743370Y-108249555D01*
X141732882Y-108237404D01*
X141711127Y-108214118D01*
X141688483Y-108192257D01*
X141664950Y-108171819D01*
X141640527Y-108152804D01*
X141615216Y-108135213D01*
X141589015Y-108119045D01*
X141561925Y-108104301D01*
X141533946Y-108090980D01*
X141505077Y-108079083D01*
X141475320Y-108068609D01*
X141444673Y-108059558D01*
X141413137Y-108051932D01*
X141380712Y-108045728D01*
X141347398Y-108040948D01*
X141313194Y-108037592D01*
X141278101Y-108035659D01*
X141278101Y-108442568D01*
X141305477Y-108447950D01*
X141331367Y-108454389D01*
X141355772Y-108461883D01*
X141378691Y-108470434D01*
X141400125Y-108480041D01*
X141420073Y-108490704D01*
X141438536Y-108502424D01*
X141455513Y-108515199D01*
X141471005Y-108529031D01*
X141485011Y-108543919D01*
X141493524Y-108554431D01*
X141505309Y-108571306D01*
X141515935Y-108589693D01*
X141525402Y-108609591D01*
X141533709Y-108631001D01*
X141540858Y-108653922D01*
X141546847Y-108678353D01*
X141551677Y-108704297D01*
X141555348Y-108731751D01*
X141557859Y-108760717D01*
X141558890Y-108780867D01*
X141559405Y-108801688D01*
X141559469Y-108812351D01*
X141559191Y-108834158D01*
X141558355Y-108855368D01*
X141556962Y-108875984D01*
X141555012Y-108896004D01*
X141552504Y-108915429D01*
X141547699Y-108943450D01*
X141541639Y-108970132D01*
X141534326Y-108995474D01*
X141525760Y-109019477D01*
X141515940Y-109042140D01*
X141504866Y-109063463D01*
X141492538Y-109083447D01*
X141488150Y-109089811D01*
X141473038Y-109108387D01*
X141456399Y-109123814D01*
X141438233Y-109136093D01*
X141418541Y-109145224D01*
X141397322Y-109151206D01*
X141374577Y-109154039D01*
X141365052Y-109154291D01*
X141343712Y-109152812D01*
X141323349Y-109148376D01*
X141303965Y-109140982D01*
X141285558Y-109130630D01*
X141268130Y-109117321D01*
X141251679Y-109101054D01*
X141245373Y-109093719D01*
X141233384Y-109077403D01*
X141221233Y-109057214D01*
X141208918Y-109033153D01*
X141200618Y-109014961D01*
X141192245Y-108995047D01*
X141183799Y-108973413D01*
X141175281Y-108950057D01*
X141166691Y-108924980D01*
X141158028Y-108898182D01*
X141149292Y-108869663D01*
X141140484Y-108839423D01*
X141131604Y-108807461D01*
X141122651Y-108773778D01*
X141113625Y-108738375D01*
X141109085Y-108720027D01*
X141100037Y-108683507D01*
X141090966Y-108648197D01*
X141081871Y-108614097D01*
X141072754Y-108581206D01*
X141063614Y-108549525D01*
X141054451Y-108519054D01*
X141045265Y-108489792D01*
X141036057Y-108461741D01*
X141026825Y-108434899D01*
X141017571Y-108409267D01*
X141008293Y-108384844D01*
X140998993Y-108361632D01*
X140989670Y-108339629D01*
X140980324Y-108318836D01*
X140970955Y-108299252D01*
X140961563Y-108280879D01*
X140951944Y-108263352D01*
X140941893Y-108246311D01*
X140931412Y-108229754D01*
X140914881Y-108205827D01*
X140897380Y-108182991D01*
X140878909Y-108161245D01*
X140859467Y-108140590D01*
X140839055Y-108121025D01*
X140817673Y-108102551D01*
X140795321Y-108085167D01*
X140771998Y-108068874D01*
X140755910Y-108058618D01*
X140730919Y-108044214D01*
X140704854Y-108031226D01*
X140686881Y-108023355D01*
X140668431Y-108016114D01*
X140649504Y-108009502D01*
X140630100Y-108003520D01*
X140610219Y-107998168D01*
X140589861Y-107993445D01*
X140569026Y-107989352D01*
X140547714Y-107985889D01*
X140525925Y-107983055D01*
X140503659Y-107980851D01*
X140480916Y-107979277D01*
X140457695Y-107978332D01*
X140433998Y-107978018D01*
X140412346Y-107978394D01*
X140390866Y-107979521D01*
X140369558Y-107981401D01*
X140348422Y-107984032D01*
X140327457Y-107987415D01*
X140306664Y-107991550D01*
X140286042Y-107996437D01*
X140265593Y-108002076D01*
X140245315Y-108008466D01*
X140225209Y-108015608D01*
X140205274Y-108023502D01*
X140185512Y-108032148D01*
X140165921Y-108041546D01*
X140146501Y-108051695D01*
X140127254Y-108062596D01*
X140108178Y-108074249D01*
X140089494Y-108086589D01*
X140071420Y-108099551D01*
X140053956Y-108113135D01*
X140037103Y-108127342D01*
X140020861Y-108142170D01*
X140005230Y-108157620D01*
X139990209Y-108173692D01*
X139975799Y-108190387D01*
X139961999Y-108207703D01*
X139948810Y-108225642D01*
X139936231Y-108244202D01*
X139924263Y-108263385D01*
X139912906Y-108283190D01*
X139902159Y-108303616D01*
X139892023Y-108324665D01*
X139882498Y-108346336D01*
X139873566Y-108368655D01*
X139865210Y-108391651D01*
X139857430Y-108415321D01*
X139850227Y-108439667D01*
X139843600Y-108464689D01*
X139837549Y-108490386D01*
X139832075Y-108516758D01*
X139827177Y-108543806D01*
X139822855Y-108571530D01*
X139819109Y-108599929D01*
X139815940Y-108629003D01*
X139813346Y-108658753D01*
X139811330Y-108689178D01*
X139809889Y-108720279D01*
X139809025Y-108752056D01*
X139808736Y-108784508D01*
X139808908Y-108808209D01*
X139809421Y-108831564D01*
X139810278Y-108854573D01*
X139811477Y-108877236D01*
X139813018Y-108899552D01*
X139814902Y-108921522D01*
X139817128Y-108943146D01*
X139819697Y-108964423D01*
X139822608Y-108985354D01*
X139825862Y-109005938D01*
X139829458Y-109026177D01*
X139833397Y-109046069D01*
X139837679Y-109065614D01*
X139842303Y-109084814D01*
X139852578Y-109122173D01*
X139864223Y-109158148D01*
X139877239Y-109192737D01*
X139891624Y-109225940D01*
X139907380Y-109257759D01*
X139924506Y-109288192D01*
X139943001Y-109317239D01*
X139962867Y-109344902D01*
X139984103Y-109371179D01*
X140006712Y-109396120D01*
X140030578Y-109419776D01*
X140055698Y-109442145D01*
X140082075Y-109463228D01*
X140109707Y-109483025D01*
X140138594Y-109501536D01*
X140168737Y-109518761D01*
X140200136Y-109534699D01*
X140232790Y-109549352D01*
X140266699Y-109562719D01*
X140301865Y-109574799D01*
X140338285Y-109585594D01*
X140375962Y-109595102D01*
X140395271Y-109599374D01*
X140414894Y-109603324D01*
X140434831Y-109606953D01*
X140455081Y-109610260D01*
X140475646Y-109613246D01*
X140496524Y-109615910D01*
G37*
G36*
X139840000Y-107193510D02*
G01*
X141528206Y-107193510D01*
X141528206Y-107790928D01*
X141872100Y-107790928D01*
X141872100Y-106190648D01*
X141528206Y-106190648D01*
X141528206Y-106786601D01*
X139840000Y-106786601D01*
X139840000Y-107193510D01*
G37*
G36*
X139840000Y-105937124D02*
G01*
X141872100Y-105937124D01*
X141872100Y-104443824D01*
X141528206Y-104443824D01*
X141528206Y-105530216D01*
X141090523Y-105530216D01*
X141090523Y-104519050D01*
X140746629Y-104519050D01*
X140746629Y-105530216D01*
X140183893Y-105530216D01*
X140183893Y-104405233D01*
X139840000Y-104405233D01*
X139840000Y-105937124D01*
G37*
G36*
X139840000Y-104076482D02*
G01*
X141872100Y-104076482D01*
X141872100Y-103467829D01*
X140485778Y-103102442D01*
X141872100Y-102740963D01*
X141872100Y-102131332D01*
X139840000Y-102131332D01*
X139840000Y-102508932D01*
X141439790Y-102508932D01*
X139840000Y-102909002D01*
X139840000Y-103300279D01*
X141439790Y-103698883D01*
X139840000Y-103698883D01*
X139840000Y-104076482D01*
G37*
G36*
X140496524Y-101843126D02*
G01*
X140527787Y-101447452D01*
X140504008Y-101442709D01*
X140481030Y-101437393D01*
X140458854Y-101431504D01*
X140437479Y-101425043D01*
X140416905Y-101418010D01*
X140397133Y-101410404D01*
X140378162Y-101402225D01*
X140359993Y-101393475D01*
X140342625Y-101384152D01*
X140318075Y-101369093D01*
X140295329Y-101352747D01*
X140274386Y-101335113D01*
X140255247Y-101316191D01*
X140243489Y-101302861D01*
X140227251Y-101281674D01*
X140212611Y-101259149D01*
X140199568Y-101235284D01*
X140188122Y-101210079D01*
X140178273Y-101183535D01*
X140170021Y-101155651D01*
X140165407Y-101136318D01*
X140161503Y-101116389D01*
X140158309Y-101095865D01*
X140155825Y-101074745D01*
X140154050Y-101053031D01*
X140152985Y-101030721D01*
X140152630Y-101007815D01*
X140152949Y-100983647D01*
X140153905Y-100960234D01*
X140155498Y-100937576D01*
X140157729Y-100915675D01*
X140160597Y-100894529D01*
X140164102Y-100874138D01*
X140168245Y-100854503D01*
X140175654Y-100826468D01*
X140184496Y-100800133D01*
X140194773Y-100775497D01*
X140206484Y-100752562D01*
X140219629Y-100731328D01*
X140234207Y-100711793D01*
X140249835Y-100693984D01*
X140265944Y-100677927D01*
X140282533Y-100663622D01*
X140299603Y-100651068D01*
X140317155Y-100640266D01*
X140335187Y-100631216D01*
X140353699Y-100623917D01*
X140372693Y-100618370D01*
X140392168Y-100614575D01*
X140412123Y-100612531D01*
X140425694Y-100612142D01*
X140447163Y-100613167D01*
X140467606Y-100616244D01*
X140487024Y-100621373D01*
X140505416Y-100628552D01*
X140522783Y-100637783D01*
X140539124Y-100649065D01*
X140545373Y-100654152D01*
X140560481Y-100668794D01*
X140574968Y-100686466D01*
X140586112Y-100702785D01*
X140596858Y-100721042D01*
X140607208Y-100741238D01*
X140617161Y-100763372D01*
X140626717Y-100787445D01*
X140631346Y-100800209D01*
X140638323Y-100821008D01*
X140644376Y-100840343D01*
X140651134Y-100862882D01*
X140658596Y-100888623D01*
X140663961Y-100907564D01*
X140669640Y-100927927D01*
X140675632Y-100949715D01*
X140681936Y-100972925D01*
X140688554Y-100997559D01*
X140695484Y-101023617D01*
X140702727Y-101051098D01*
X140710284Y-101080003D01*
X140718153Y-101110331D01*
X140722205Y-101126029D01*
X140727461Y-101146263D01*
X140732787Y-101166117D01*
X140738184Y-101185590D01*
X140743652Y-101204683D01*
X140754800Y-101241726D01*
X140766229Y-101277246D01*
X140777942Y-101311243D01*
X140789936Y-101343718D01*
X140802213Y-101374670D01*
X140814773Y-101404099D01*
X140827615Y-101432006D01*
X140840739Y-101458390D01*
X140854145Y-101483251D01*
X140867834Y-101506590D01*
X140881806Y-101528406D01*
X140896060Y-101548699D01*
X140910596Y-101567469D01*
X140925415Y-101584717D01*
X140946708Y-101607195D01*
X140968577Y-101628223D01*
X140991023Y-101647800D01*
X141014044Y-101665928D01*
X141037642Y-101682605D01*
X141061817Y-101697832D01*
X141086567Y-101711609D01*
X141111894Y-101723935D01*
X141137797Y-101734812D01*
X141164277Y-101744238D01*
X141191332Y-101752214D01*
X141218964Y-101758740D01*
X141247172Y-101763816D01*
X141275957Y-101767441D01*
X141305317Y-101769616D01*
X141335254Y-101770341D01*
X141364204Y-101769577D01*
X141392802Y-101767285D01*
X141421048Y-101763464D01*
X141448942Y-101758114D01*
X141476483Y-101751236D01*
X141503673Y-101742830D01*
X141530511Y-101732895D01*
X141556996Y-101721432D01*
X141583130Y-101708440D01*
X141600356Y-101698930D01*
X141617427Y-101688740D01*
X141625903Y-101683391D01*
X141642624Y-101672162D01*
X141658838Y-101660333D01*
X141674544Y-101647905D01*
X141689742Y-101634878D01*
X141704433Y-101621252D01*
X141718616Y-101607027D01*
X141732292Y-101592203D01*
X141745460Y-101576779D01*
X141758121Y-101560756D01*
X141770274Y-101544134D01*
X141781919Y-101526913D01*
X141793057Y-101509093D01*
X141803687Y-101490674D01*
X141813810Y-101471655D01*
X141823425Y-101452038D01*
X141832533Y-101431821D01*
X141841110Y-101410980D01*
X141849134Y-101389613D01*
X141856604Y-101367719D01*
X141863521Y-101345298D01*
X141869885Y-101322350D01*
X141875695Y-101298876D01*
X141880952Y-101274876D01*
X141885655Y-101250348D01*
X141889806Y-101225294D01*
X141893403Y-101199714D01*
X141896446Y-101173607D01*
X141898936Y-101146973D01*
X141900873Y-101119812D01*
X141902256Y-101092125D01*
X141903086Y-101063911D01*
X141903363Y-101035170D01*
X141903197Y-101011662D01*
X141902697Y-100988520D01*
X141901865Y-100965744D01*
X141900699Y-100943335D01*
X141899201Y-100921292D01*
X141897370Y-100899616D01*
X141895205Y-100878306D01*
X141892708Y-100857362D01*
X141889878Y-100836784D01*
X141886714Y-100816573D01*
X141883218Y-100796728D01*
X141879389Y-100777250D01*
X141875227Y-100758138D01*
X141865904Y-100721013D01*
X141855249Y-100685354D01*
X141843262Y-100651160D01*
X141829943Y-100618431D01*
X141815292Y-100587168D01*
X141799309Y-100557370D01*
X141781995Y-100529038D01*
X141763348Y-100502172D01*
X141743370Y-100476770D01*
X141732882Y-100464619D01*
X141711127Y-100441334D01*
X141688483Y-100419472D01*
X141664950Y-100399034D01*
X141640527Y-100380020D01*
X141615216Y-100362428D01*
X141589015Y-100346261D01*
X141561925Y-100331516D01*
X141533946Y-100318196D01*
X141505077Y-100306298D01*
X141475320Y-100295824D01*
X141444673Y-100286774D01*
X141413137Y-100279147D01*
X141380712Y-100272944D01*
X141347398Y-100268164D01*
X141313194Y-100264808D01*
X141278101Y-100262875D01*
X141278101Y-100669783D01*
X141305477Y-100675166D01*
X141331367Y-100681604D01*
X141355772Y-100689099D01*
X141378691Y-100697650D01*
X141400125Y-100707257D01*
X141420073Y-100717920D01*
X141438536Y-100729639D01*
X141455513Y-100742415D01*
X141471005Y-100756247D01*
X141485011Y-100771134D01*
X141493524Y-100781646D01*
X141505309Y-100798522D01*
X141515935Y-100816909D01*
X141525402Y-100836807D01*
X141533709Y-100858217D01*
X141540858Y-100881137D01*
X141546847Y-100905569D01*
X141551677Y-100931512D01*
X141555348Y-100958967D01*
X141557859Y-100987932D01*
X141558890Y-101008082D01*
X141559405Y-101028904D01*
X141559469Y-101039567D01*
X141559191Y-101061373D01*
X141558355Y-101082584D01*
X141556962Y-101103200D01*
X141555012Y-101123220D01*
X141552504Y-101142645D01*
X141547699Y-101170666D01*
X141541639Y-101197348D01*
X141534326Y-101222690D01*
X141525760Y-101246692D01*
X141515940Y-101269355D01*
X141504866Y-101290679D01*
X141492538Y-101310663D01*
X141488150Y-101317027D01*
X141473038Y-101335603D01*
X141456399Y-101351030D01*
X141438233Y-101363309D01*
X141418541Y-101372439D01*
X141397322Y-101378421D01*
X141374577Y-101381255D01*
X141365052Y-101381507D01*
X141343712Y-101380028D01*
X141323349Y-101375592D01*
X141303965Y-101368198D01*
X141285558Y-101357846D01*
X141268130Y-101344536D01*
X141251679Y-101328270D01*
X141245373Y-101320935D01*
X141233384Y-101304619D01*
X141221233Y-101284430D01*
X141208918Y-101260369D01*
X141200618Y-101242176D01*
X141192245Y-101222263D01*
X141183799Y-101200628D01*
X141175281Y-101177273D01*
X141166691Y-101152196D01*
X141158028Y-101125398D01*
X141149292Y-101096879D01*
X141140484Y-101066638D01*
X141131604Y-101034677D01*
X141122651Y-101000994D01*
X141113625Y-100965590D01*
X141109085Y-100947243D01*
X141100037Y-100910723D01*
X141090966Y-100875413D01*
X141081871Y-100841312D01*
X141072754Y-100808422D01*
X141063614Y-100776741D01*
X141054451Y-100746269D01*
X141045265Y-100717008D01*
X141036057Y-100688956D01*
X141026825Y-100662114D01*
X141017571Y-100636482D01*
X141008293Y-100612060D01*
X140998993Y-100588847D01*
X140989670Y-100566844D01*
X140980324Y-100546051D01*
X140970955Y-100526468D01*
X140961563Y-100508094D01*
X140951944Y-100490568D01*
X140941893Y-100473526D01*
X140931412Y-100456969D01*
X140914881Y-100433043D01*
X140897380Y-100410206D01*
X140878909Y-100388461D01*
X140859467Y-100367806D01*
X140839055Y-100348241D01*
X140817673Y-100329767D01*
X140795321Y-100312383D01*
X140771998Y-100296090D01*
X140755910Y-100285833D01*
X140730919Y-100271429D01*
X140704854Y-100258442D01*
X140686881Y-100250571D01*
X140668431Y-100243329D01*
X140649504Y-100236718D01*
X140630100Y-100230736D01*
X140610219Y-100225383D01*
X140589861Y-100220661D01*
X140569026Y-100216568D01*
X140547714Y-100213104D01*
X140525925Y-100210271D01*
X140503659Y-100208067D01*
X140480916Y-100206493D01*
X140457695Y-100205548D01*
X140433998Y-100205233D01*
X140412346Y-100205609D01*
X140390866Y-100206737D01*
X140369558Y-100208616D01*
X140348422Y-100211248D01*
X140327457Y-100214631D01*
X140306664Y-100218766D01*
X140286042Y-100223653D01*
X140265593Y-100229291D01*
X140245315Y-100235682D01*
X140225209Y-100242824D01*
X140205274Y-100250718D01*
X140185512Y-100259364D01*
X140165921Y-100268761D01*
X140146501Y-100278911D01*
X140127254Y-100289812D01*
X140108178Y-100301465D01*
X140089494Y-100313805D01*
X140071420Y-100326767D01*
X140053956Y-100340351D01*
X140037103Y-100354557D01*
X140020861Y-100369385D01*
X140005230Y-100384836D01*
X139990209Y-100400908D01*
X139975799Y-100417602D01*
X139961999Y-100434919D01*
X139948810Y-100452857D01*
X139936231Y-100471418D01*
X139924263Y-100490601D01*
X139912906Y-100510405D01*
X139902159Y-100530832D01*
X139892023Y-100551881D01*
X139882498Y-100573551D01*
X139873566Y-100595871D01*
X139865210Y-100618866D01*
X139857430Y-100642537D01*
X139850227Y-100666883D01*
X139843600Y-100691904D01*
X139837549Y-100717601D01*
X139832075Y-100743974D01*
X139827177Y-100771022D01*
X139822855Y-100798745D01*
X139819109Y-100827144D01*
X139815940Y-100856219D01*
X139813346Y-100885969D01*
X139811330Y-100916394D01*
X139809889Y-100947495D01*
X139809025Y-100979271D01*
X139808736Y-101011723D01*
X139808908Y-101035425D01*
X139809421Y-101058780D01*
X139810278Y-101081789D01*
X139811477Y-101104451D01*
X139813018Y-101126768D01*
X139814902Y-101148738D01*
X139817128Y-101170361D01*
X139819697Y-101191639D01*
X139822608Y-101212569D01*
X139825862Y-101233154D01*
X139829458Y-101253392D01*
X139833397Y-101273284D01*
X139837679Y-101292830D01*
X139842303Y-101312029D01*
X139852578Y-101349389D01*
X139864223Y-101385363D01*
X139877239Y-101419952D01*
X139891624Y-101453156D01*
X139907380Y-101484974D01*
X139924506Y-101515407D01*
X139943001Y-101544455D01*
X139962867Y-101572117D01*
X139984103Y-101598394D01*
X140006712Y-101623336D01*
X140030578Y-101646991D01*
X140055698Y-101669360D01*
X140082075Y-101690443D01*
X140109707Y-101710241D01*
X140138594Y-101728751D01*
X140168737Y-101745976D01*
X140200136Y-101761915D01*
X140232790Y-101776568D01*
X140266699Y-101789934D01*
X140301865Y-101802015D01*
X140338285Y-101812809D01*
X140375962Y-101822317D01*
X140395271Y-101826589D01*
X140414894Y-101830540D01*
X140434831Y-101834168D01*
X140455081Y-101837476D01*
X140475646Y-101840462D01*
X140496524Y-101843126D01*
G37*
M02*
