%TF.GenerationSoftware,KiCad,Pcbnew,7.0.7*%
%TF.CreationDate,2023-10-05T17:02:33-03:00*%
%TF.ProjectId,ILLI_PCB,494c4c49-5f50-4434-922e-6b696361645f,rev?*%
%TF.SameCoordinates,Original*%
%TF.FileFunction,Copper,L1,Top*%
%TF.FilePolarity,Positive*%
%FSLAX46Y46*%
G04 Gerber Fmt 4.6, Leading zero omitted, Abs format (unit mm)*
G04 Created by KiCad (PCBNEW 7.0.7) date 2023-10-05 17:02:33*
%MOMM*%
%LPD*%
G01*
G04 APERTURE LIST*
G04 Aperture macros list*
%AMRoundRect*
0 Rectangle with rounded corners*
0 $1 Rounding radius*
0 $2 $3 $4 $5 $6 $7 $8 $9 X,Y pos of 4 corners*
0 Add a 4 corners polygon primitive as box body*
4,1,4,$2,$3,$4,$5,$6,$7,$8,$9,$2,$3,0*
0 Add four circle primitives for the rounded corners*
1,1,$1+$1,$2,$3*
1,1,$1+$1,$4,$5*
1,1,$1+$1,$6,$7*
1,1,$1+$1,$8,$9*
0 Add four rect primitives between the rounded corners*
20,1,$1+$1,$2,$3,$4,$5,0*
20,1,$1+$1,$4,$5,$6,$7,0*
20,1,$1+$1,$6,$7,$8,$9,0*
20,1,$1+$1,$8,$9,$2,$3,0*%
G04 Aperture macros list end*
%TA.AperFunction,ComponentPad*%
%ADD10O,1.700000X1.700000*%
%TD*%
%TA.AperFunction,ComponentPad*%
%ADD11R,1.700000X1.700000*%
%TD*%
%TA.AperFunction,ComponentPad*%
%ADD12C,6.400000*%
%TD*%
%TA.AperFunction,SMDPad,CuDef*%
%ADD13R,1.500000X2.000000*%
%TD*%
%TA.AperFunction,SMDPad,CuDef*%
%ADD14R,3.800000X2.000000*%
%TD*%
%TA.AperFunction,SMDPad,CuDef*%
%ADD15RoundRect,0.150000X-0.850000X-0.150000X0.850000X-0.150000X0.850000X0.150000X-0.850000X0.150000X0*%
%TD*%
%TA.AperFunction,SMDPad,CuDef*%
%ADD16RoundRect,0.250000X-0.262500X-0.450000X0.262500X-0.450000X0.262500X0.450000X-0.262500X0.450000X0*%
%TD*%
%TA.AperFunction,SMDPad,CuDef*%
%ADD17RoundRect,0.250000X0.400000X0.600000X-0.400000X0.600000X-0.400000X-0.600000X0.400000X-0.600000X0*%
%TD*%
%TA.AperFunction,SMDPad,CuDef*%
%ADD18RoundRect,0.250000X0.250000X0.475000X-0.250000X0.475000X-0.250000X-0.475000X0.250000X-0.475000X0*%
%TD*%
%TA.AperFunction,SMDPad,CuDef*%
%ADD19RoundRect,0.250000X1.500000X0.550000X-1.500000X0.550000X-1.500000X-0.550000X1.500000X-0.550000X0*%
%TD*%
%TA.AperFunction,SMDPad,CuDef*%
%ADD20RoundRect,0.250000X-1.500000X-0.550000X1.500000X-0.550000X1.500000X0.550000X-1.500000X0.550000X0*%
%TD*%
%TA.AperFunction,ViaPad*%
%ADD21C,1.000000*%
%TD*%
%TA.AperFunction,Conductor*%
%ADD22C,1.000000*%
%TD*%
%TA.AperFunction,Conductor*%
%ADD23C,0.750000*%
%TD*%
%TA.AperFunction,Conductor*%
%ADD24C,0.500000*%
%TD*%
G04 APERTURE END LIST*
D10*
%TO.P,J4,2,Pin_2*%
%TO.N,GND*%
X124500000Y-136040000D03*
D11*
%TO.P,J4,1,Pin_1*%
%TO.N,VBAT*%
X124500000Y-133500000D03*
%TD*%
D12*
%TO.P,REF\u002A\u002A,1*%
%TO.N,N/C*%
X114000000Y-84000000D03*
%TD*%
%TO.P,REF\u002A\u002A,1*%
%TO.N,N/C*%
X166000000Y-84000000D03*
%TD*%
%TO.P,REF\u002A\u002A,1*%
%TO.N,N/C*%
X114000000Y-136000000D03*
%TD*%
%TO.P,REF\u002A\u002A,1*%
%TO.N,N/C*%
X166000000Y-136000000D03*
%TD*%
D10*
%TO.P,J11,2,Pin_2*%
%TO.N,VBAT*%
X159150000Y-135500000D03*
D11*
%TO.P,J11,1,Pin_1*%
%TO.N,Net-(J11-Pin_1)*%
X159150000Y-132960000D03*
%TD*%
D10*
%TO.P,J8,2,Pin_2*%
%TO.N,VMOTOR*%
X155500000Y-135500000D03*
D11*
%TO.P,J8,1,Pin_1*%
%TO.N,Net-(J11-Pin_1)*%
X155500000Y-132960000D03*
%TD*%
D10*
%TO.P,J6,6,Pin_6*%
%TO.N,GPIO14*%
X146080000Y-82000000D03*
%TO.P,J6,5,Pin_5*%
%TO.N,GPIO27*%
X143540000Y-82000000D03*
%TO.P,J6,4,Pin_4*%
%TO.N,SCL*%
X141000000Y-82000000D03*
%TO.P,J6,3,Pin_3*%
%TO.N,MISO{slash}SDA*%
X138460000Y-82000000D03*
%TO.P,J6,2,Pin_2*%
%TO.N,GND*%
X135920000Y-82000000D03*
D11*
%TO.P,J6,1,Pin_1*%
%TO.N,3V3*%
X133380000Y-82000000D03*
%TD*%
D10*
%TO.P,J7,2,Pin_2*%
%TO.N,M2B*%
X168000000Y-111540000D03*
D11*
%TO.P,J7,1,Pin_1*%
%TO.N,M2A*%
X168000000Y-109000000D03*
%TD*%
D10*
%TO.P,J5,2,Pin_2*%
%TO.N,M1B*%
X112000000Y-111540000D03*
D11*
%TO.P,J5,1,Pin_1*%
%TO.N,M1A*%
X112000000Y-109000000D03*
%TD*%
D13*
%TO.P,U2,3,VI*%
%TO.N,VBAT*%
X142300000Y-130150000D03*
%TO.P,U2,2,VO*%
%TO.N,3V3*%
X140000000Y-130150000D03*
D14*
X140000000Y-123850000D03*
D13*
%TO.P,U2,1,GND*%
%TO.N,GND*%
X137700000Y-130150000D03*
%TD*%
D15*
%TO.P,U1,16,OUTA1*%
%TO.N,M1A*%
X142500000Y-105555000D03*
%TO.P,U1,15,AGND1*%
%TO.N,GND*%
X142500000Y-106825000D03*
%TO.P,U1,14,PGND1*%
X142500000Y-108095000D03*
%TO.P,U1,13,OUTB1*%
%TO.N,M1B*%
X142500000Y-109365000D03*
%TO.P,U1,12,OUTA2*%
%TO.N,M2A*%
X142500000Y-110635000D03*
%TO.P,U1,11,AGND2*%
%TO.N,GND*%
X142500000Y-111905000D03*
%TO.P,U1,10,PGND2*%
X142500000Y-113175000D03*
%TO.P,U1,9,OUTB2*%
%TO.N,M2B*%
X142500000Y-114445000D03*
%TO.P,U1,8,VDD2*%
%TO.N,VMOTOR*%
X137500000Y-114445000D03*
%TO.P,U1,7,INB2*%
%TO.N,INB2*%
X137500000Y-113175000D03*
%TO.P,U1,6,INB1*%
%TO.N,INA2*%
X137500000Y-111905000D03*
%TO.P,U1,5,VCC2*%
%TO.N,Net-(D1-K)*%
X137500000Y-110635000D03*
%TO.P,U1,4,VDD1*%
%TO.N,VMOTOR*%
X137500000Y-109365000D03*
%TO.P,U1,3,INB1*%
%TO.N,INB1*%
X137500000Y-108095000D03*
%TO.P,U1,2,INA1*%
%TO.N,INA1*%
X137500000Y-106825000D03*
%TO.P,U1,1,VCC1*%
%TO.N,Net-(D1-K)*%
X137500000Y-105555000D03*
%TD*%
D16*
%TO.P,R1,2*%
%TO.N,Net-(D1-K)*%
X140912500Y-99000000D03*
%TO.P,R1,1*%
%TO.N,VMOTOR*%
X139087500Y-99000000D03*
%TD*%
D10*
%TO.P,J16,3,Pin_3*%
%TO.N,GND*%
X168000000Y-123920000D03*
%TO.P,J16,2,Pin_2*%
%TO.N,NEOPIXEL_DATA*%
X168000000Y-126460000D03*
D11*
%TO.P,J16,1,Pin_1*%
%TO.N,VBAT*%
X168000000Y-129000000D03*
%TD*%
%TO.P,J15,1,Pin_1*%
%TO.N,Net-(J14-Pin_1)*%
X112000000Y-129000000D03*
D10*
%TO.P,J15,2,Pin_2*%
%TO.N,Net-(J14-Pin_2)*%
X112000000Y-126460000D03*
%TO.P,J15,3,Pin_3*%
%TO.N,Net-(J14-Pin_3)*%
X112000000Y-123920000D03*
%TD*%
%TO.P,J14,3,Pin_3*%
%TO.N,Net-(J14-Pin_3)*%
X112000000Y-95540000D03*
%TO.P,J14,2,Pin_2*%
%TO.N,Net-(J14-Pin_2)*%
X112000000Y-93000000D03*
D11*
%TO.P,J14,1,Pin_1*%
%TO.N,Net-(J14-Pin_1)*%
X112000000Y-90460000D03*
%TD*%
D10*
%TO.P,J13,3,Pin_3*%
%TO.N,GND*%
X168000000Y-95540000D03*
%TO.P,J13,2,Pin_2*%
%TO.N,NEOPIXEL_DATA*%
X168000000Y-93000000D03*
D11*
%TO.P,J13,1,Pin_1*%
%TO.N,VBAT*%
X168000000Y-90460000D03*
%TD*%
D10*
%TO.P,J10,13,Pin_13*%
%TO.N,GND*%
X157500000Y-126000000D03*
%TO.P,J10,12,Pin_12*%
%TO.N,NEOPIXEL_DATA*%
X157500000Y-123460000D03*
%TO.P,J10,11,Pin_11*%
%TO.N,VBAT*%
X157500000Y-120920000D03*
%TO.P,J10,10,Pin_10*%
%TO.N,Net-(J10-Pin_10)*%
X157500000Y-118380000D03*
%TO.P,J10,9,Pin_9*%
%TO.N,Net-(J10-Pin_9)*%
X157500000Y-115840000D03*
%TO.P,J10,8,Pin_8*%
%TO.N,Net-(J10-Pin_8)*%
X157500000Y-113300000D03*
%TO.P,J10,7,Pin_7*%
%TO.N,Net-(J10-Pin_7)*%
X157500000Y-110760000D03*
%TO.P,J10,6,Pin_6*%
%TO.N,SS*%
X157500000Y-108220000D03*
%TO.P,J10,5,Pin_5*%
%TO.N,SCK*%
X157500000Y-105680000D03*
%TO.P,J10,4,Pin_4*%
%TO.N,MOSI*%
X157500000Y-103140000D03*
%TO.P,J10,3,Pin_3*%
%TO.N,MISO{slash}SDA*%
X157500000Y-100600000D03*
%TO.P,J10,2,Pin_2*%
%TO.N,SCL*%
X157500000Y-98060000D03*
D11*
%TO.P,J10,1,Pin_1*%
%TO.N,Net-(J10-Pin_1)*%
X157500000Y-95520000D03*
%TD*%
D10*
%TO.P,J9,13,Pin_13*%
%TO.N,GND*%
X122500000Y-125980000D03*
%TO.P,J9,12,Pin_12*%
X122500000Y-123440000D03*
%TO.P,J9,11,Pin_11*%
%TO.N,3V3*%
X122500000Y-120900000D03*
%TO.P,J9,10,Pin_10*%
X122500000Y-118360000D03*
%TO.P,J9,9,Pin_9*%
%TO.N,INB2*%
X122500000Y-115820000D03*
%TO.P,J9,8,Pin_8*%
%TO.N,INA2*%
X122500000Y-113280000D03*
%TO.P,J9,7,Pin_7*%
%TO.N,INB1*%
X122500000Y-110740000D03*
%TO.P,J9,6,Pin_6*%
%TO.N,INA1*%
X122500000Y-108200000D03*
%TO.P,J9,5,Pin_5*%
%TO.N,Net-(J1-Pin_5)*%
X122500000Y-105660000D03*
%TO.P,J9,4,Pin_4*%
%TO.N,Net-(J1-Pin_4)*%
X122500000Y-103120000D03*
%TO.P,J9,3,Pin_3*%
%TO.N,Net-(J1-Pin_3)*%
X122500000Y-100580000D03*
%TO.P,J9,2,Pin_2*%
%TO.N,Net-(J1-Pin_2)*%
X122500000Y-98040000D03*
D11*
%TO.P,J9,1,Pin_1*%
%TO.N,Net-(J1-Pin_1)*%
X122500000Y-95500000D03*
%TD*%
D10*
%TO.P,J3,2,Pin_2*%
%TO.N,GND*%
X120500000Y-136040000D03*
D11*
%TO.P,J3,1,Pin_1*%
%TO.N,Net-(J11-Pin_1)*%
X120500000Y-133500000D03*
%TD*%
%TO.P,J2,1,Pin_1*%
%TO.N,unconnected-(J2-Pin_1-Pad1)*%
X151500000Y-95520000D03*
D10*
%TO.P,J2,2,Pin_2*%
%TO.N,SCL*%
X151500000Y-98060000D03*
%TO.P,J2,3,Pin_3*%
%TO.N,MISO{slash}SDA*%
X151500000Y-100600000D03*
%TO.P,J2,4,Pin_4*%
%TO.N,MOSI*%
X151500000Y-103140000D03*
%TO.P,J2,5,Pin_5*%
%TO.N,SCK*%
X151500000Y-105680000D03*
%TO.P,J2,6,Pin_6*%
%TO.N,SS*%
X151500000Y-108220000D03*
%TO.P,J2,7,Pin_7*%
%TO.N,Net-(J10-Pin_7)*%
X151500000Y-110760000D03*
%TO.P,J2,8,Pin_8*%
%TO.N,Net-(J10-Pin_8)*%
X151500000Y-113300000D03*
%TO.P,J2,9,Pin_9*%
%TO.N,Net-(J10-Pin_9)*%
X151500000Y-115840000D03*
%TO.P,J2,10,Pin_10*%
%TO.N,Net-(J10-Pin_10)*%
X151500000Y-118380000D03*
%TO.P,J2,11,Pin_11*%
%TO.N,Net-(J10-Pin_1)*%
X151500000Y-120920000D03*
%TO.P,J2,12,Pin_12*%
%TO.N,unconnected-(J2-Pin_12-Pad12)*%
X151500000Y-123460000D03*
%TO.P,J2,13,Pin_13*%
%TO.N,unconnected-(J2-Pin_13-Pad13)*%
X151500000Y-126000000D03*
%TD*%
%TO.P,J1,13,Pin_13*%
%TO.N,GND*%
X128500000Y-126000000D03*
%TO.P,J1,12,Pin_12*%
%TO.N,NEOPIXEL_DATA*%
X128500000Y-123460000D03*
%TO.P,J1,11,Pin_11*%
%TO.N,GPIO14*%
X128500000Y-120920000D03*
%TO.P,J1,10,Pin_10*%
%TO.N,GPIO27*%
X128500000Y-118380000D03*
%TO.P,J1,9,Pin_9*%
%TO.N,INB2*%
X128500000Y-115840000D03*
%TO.P,J1,8,Pin_8*%
%TO.N,INA2*%
X128500000Y-113300000D03*
%TO.P,J1,7,Pin_7*%
%TO.N,INB1*%
X128500000Y-110760000D03*
%TO.P,J1,6,Pin_6*%
%TO.N,INA1*%
X128500000Y-108220000D03*
%TO.P,J1,5,Pin_5*%
%TO.N,Net-(J1-Pin_5)*%
X128500000Y-105680000D03*
%TO.P,J1,4,Pin_4*%
%TO.N,Net-(J1-Pin_4)*%
X128500000Y-103140000D03*
%TO.P,J1,3,Pin_3*%
%TO.N,Net-(J1-Pin_3)*%
X128500000Y-100600000D03*
%TO.P,J1,2,Pin_2*%
%TO.N,Net-(J1-Pin_2)*%
X128500000Y-98060000D03*
D11*
%TO.P,J1,1,Pin_1*%
%TO.N,Net-(J1-Pin_1)*%
X128500000Y-95520000D03*
%TD*%
D17*
%TO.P,D1,2,A*%
%TO.N,GND*%
X136750000Y-96750000D03*
%TO.P,D1,1,K*%
%TO.N,Net-(D1-K)*%
X140250000Y-96750000D03*
%TD*%
D18*
%TO.P,C5,2*%
%TO.N,GND*%
X138100000Y-132850000D03*
%TO.P,C5,1*%
%TO.N,3V3*%
X140000000Y-132850000D03*
%TD*%
%TO.P,C4,1*%
%TO.N,VBAT*%
X139900000Y-135350000D03*
%TO.P,C4,2*%
%TO.N,GND*%
X138000000Y-135350000D03*
%TD*%
D19*
%TO.P,C2,2*%
%TO.N,GND*%
X122200000Y-84500000D03*
%TO.P,C2,1*%
%TO.N,VMOTOR*%
X127800000Y-84500000D03*
%TD*%
D20*
%TO.P,C1,1*%
%TO.N,Net-(D1-K)*%
X151700000Y-84500000D03*
%TO.P,C1,2*%
%TO.N,GND*%
X157300000Y-84500000D03*
%TD*%
D21*
%TO.N,GND*%
X135000000Y-97000000D03*
X136000000Y-84500000D03*
X120500000Y-138500000D03*
%TO.N,GPIO14*%
X132500000Y-121000000D03*
X124000000Y-129500000D03*
X115500000Y-121500000D03*
X115490213Y-107509787D03*
X131000000Y-89000000D03*
X148500000Y-81500000D03*
%TO.N,GPIO27*%
X151000000Y-93000000D03*
X148500000Y-101000000D03*
X147925500Y-116000000D03*
X145000000Y-117500000D03*
%TO.N,3V3*%
X125500000Y-94500000D03*
%TO.N,SCL*%
X149500000Y-87000000D03*
%TO.N,GND*%
X135500000Y-130000000D03*
%TO.N,VBAT*%
X144000000Y-135500000D03*
%TO.N,NEOPIXEL_DATA*%
X160500000Y-126500000D03*
X143000000Y-94000000D03*
X131000000Y-96000000D03*
%TO.N,VMOTOR*%
X133000000Y-89500000D03*
%TO.N,GND*%
X119000000Y-85500000D03*
X160500000Y-84500000D03*
%TO.N,Net-(D1-K)*%
X140500000Y-95000000D03*
X141000000Y-88000000D03*
%TO.N,GND*%
X147000000Y-108000000D03*
X147000000Y-106500000D03*
X145500000Y-113000000D03*
X144500000Y-112000000D03*
%TO.N,VMOTOR*%
X132000000Y-104500000D03*
X135000000Y-110000000D03*
X137000000Y-118000000D03*
X152500000Y-136000000D03*
%TO.N,GND*%
X160000000Y-121500000D03*
%TO.N,M2B*%
X164000000Y-118500000D03*
X162500000Y-131000000D03*
%TO.N,M2A*%
X145500000Y-110500000D03*
%TO.N,M1B*%
X145500000Y-109044500D03*
X145500000Y-100000000D03*
%TD*%
D22*
%TO.N,Net-(J11-Pin_1)*%
X152040000Y-132960000D02*
X155500000Y-132960000D01*
X135500000Y-137500000D02*
X147500000Y-137500000D01*
X147500000Y-137500000D02*
X152040000Y-132960000D01*
X120500000Y-131500000D02*
X121000000Y-131000000D01*
X129000000Y-131000000D02*
X135500000Y-137500000D01*
X120500000Y-133500000D02*
X120500000Y-131500000D01*
X121000000Y-131000000D02*
X129000000Y-131000000D01*
%TO.N,VBAT*%
X128000000Y-133500000D02*
X124500000Y-133500000D01*
X133500000Y-139000000D02*
X128000000Y-133500000D01*
X155650000Y-139000000D02*
X133500000Y-139000000D01*
X159150000Y-135500000D02*
X155650000Y-139000000D01*
D23*
%TO.N,GND*%
X135250000Y-96750000D02*
X135000000Y-97000000D01*
X136750000Y-96750000D02*
X135250000Y-96750000D01*
X135920000Y-84420000D02*
X136000000Y-84500000D01*
X135920000Y-82000000D02*
X135920000Y-84420000D01*
D22*
%TO.N,Net-(D1-K)*%
X140912500Y-97412500D02*
X140912500Y-99000000D01*
X140250000Y-96750000D02*
X140912500Y-97412500D01*
X140500000Y-96500000D02*
X140250000Y-96750000D01*
X140500000Y-95000000D02*
X140500000Y-96500000D01*
D24*
%TO.N,GPIO14*%
X115500000Y-107500000D02*
X115500000Y-94833274D01*
X115500000Y-94833274D02*
X121333274Y-89000000D01*
X115490213Y-107509787D02*
X115500000Y-107500000D01*
X121333274Y-89000000D02*
X131000000Y-89000000D01*
%TO.N,NEOPIXEL_DATA*%
X133000000Y-94000000D02*
X131000000Y-96000000D01*
X143000000Y-94000000D02*
X133000000Y-94000000D01*
D23*
%TO.N,M2B*%
X165460000Y-111540000D02*
X168000000Y-111540000D01*
X164000000Y-113000000D02*
X165460000Y-111540000D01*
X164000000Y-118500000D02*
X164000000Y-113000000D01*
%TO.N,M1B*%
X118960000Y-111540000D02*
X120000000Y-110500000D01*
X120000000Y-110500000D02*
X120000000Y-93500000D01*
X120000000Y-93500000D02*
X121000000Y-92500000D01*
X112000000Y-111540000D02*
X118960000Y-111540000D01*
X144000000Y-92500000D02*
X145500000Y-94000000D01*
X121000000Y-92500000D02*
X144000000Y-92500000D01*
X145500000Y-94000000D02*
X145500000Y-100000000D01*
%TO.N,M1A*%
X117000000Y-109000000D02*
X112000000Y-109000000D01*
X118500000Y-107500000D02*
X117000000Y-109000000D01*
X118500000Y-93000000D02*
X118500000Y-107500000D01*
D22*
%TO.N,VBAT*%
X168000000Y-129000000D02*
X164500000Y-129000000D01*
D24*
%TO.N,Net-(J10-Pin_1)*%
X155980000Y-95520000D02*
X157500000Y-95520000D01*
X154500000Y-97000000D02*
X155980000Y-95520000D01*
X153080000Y-120920000D02*
X154500000Y-119500000D01*
X154500000Y-119500000D02*
X154500000Y-97000000D01*
X151500000Y-120920000D02*
X153080000Y-120920000D01*
D22*
%TO.N,GND*%
X138100000Y-135250000D02*
X138000000Y-135350000D01*
X138100000Y-132850000D02*
X138100000Y-135250000D01*
%TO.N,VBAT*%
X164000000Y-131500000D02*
X160000000Y-135500000D01*
X167000000Y-131500000D02*
X164000000Y-131500000D01*
X168000000Y-130500000D02*
X167000000Y-131500000D01*
X160000000Y-135500000D02*
X159150000Y-135500000D01*
X168000000Y-129000000D02*
X168000000Y-130500000D01*
X164000000Y-129500000D02*
X164500000Y-129000000D01*
X156000000Y-129500000D02*
X164000000Y-129500000D01*
X156080000Y-120920000D02*
X157500000Y-120920000D01*
X154500000Y-122500000D02*
X156080000Y-120920000D01*
X156000000Y-129500000D02*
X154500000Y-128000000D01*
X154500000Y-128000000D02*
X154500000Y-122500000D01*
D24*
%TO.N,NEOPIXEL_DATA*%
X156000000Y-124960000D02*
X157500000Y-123460000D01*
X156000000Y-127500000D02*
X156000000Y-124960000D01*
X156500000Y-128000000D02*
X156000000Y-127500000D01*
X159000000Y-128000000D02*
X156500000Y-128000000D01*
X160500000Y-126500000D02*
X159000000Y-128000000D01*
D22*
%TO.N,GND*%
X120500000Y-138500000D02*
X120500000Y-136040000D01*
%TO.N,VMOTOR*%
X155000000Y-136000000D02*
X155500000Y-135500000D01*
X152500000Y-136000000D02*
X155000000Y-136000000D01*
X132000000Y-102000000D02*
X132000000Y-104500000D01*
X139087500Y-99000000D02*
X135000000Y-99000000D01*
X135000000Y-99000000D02*
X132000000Y-102000000D01*
D24*
%TO.N,GPIO14*%
X132420000Y-120920000D02*
X132500000Y-121000000D01*
X128500000Y-120920000D02*
X132420000Y-120920000D01*
X120500000Y-129500000D02*
X124000000Y-129500000D01*
X115500000Y-124500000D02*
X120500000Y-129500000D01*
X115500000Y-121500000D02*
X115500000Y-124500000D01*
D22*
%TO.N,VMOTOR*%
X130000000Y-84500000D02*
X127800000Y-84500000D01*
X133000000Y-89500000D02*
X133000000Y-87500000D01*
X133000000Y-87500000D02*
X130000000Y-84500000D01*
D24*
%TO.N,SCL*%
X150060000Y-98060000D02*
X151500000Y-98060000D01*
X149500000Y-97500000D02*
X150060000Y-98060000D01*
X149500000Y-87000000D02*
X149500000Y-97500000D01*
%TO.N,MISO{slash}SDA*%
X146000000Y-90000000D02*
X140000000Y-90000000D01*
X138460000Y-88460000D02*
X138460000Y-82000000D01*
X148000000Y-92000000D02*
X146000000Y-90000000D01*
X148000000Y-97100000D02*
X148000000Y-92000000D01*
X140000000Y-90000000D02*
X138460000Y-88460000D01*
X151500000Y-100600000D02*
X148000000Y-97100000D01*
%TO.N,GPIO14*%
X148000000Y-82000000D02*
X148500000Y-81500000D01*
X146080000Y-82000000D02*
X148000000Y-82000000D01*
%TO.N,GPIO27*%
X143540000Y-83540000D02*
X143540000Y-82000000D01*
X144500000Y-84500000D02*
X143540000Y-83540000D01*
X147000000Y-84500000D02*
X144500000Y-84500000D01*
X150000000Y-81500000D02*
X147000000Y-84500000D01*
X161500000Y-81500000D02*
X150000000Y-81500000D01*
X162000000Y-82000000D02*
X161500000Y-81500000D01*
X162000000Y-87000000D02*
X162000000Y-82000000D01*
X156000000Y-93000000D02*
X162000000Y-87000000D01*
X151000000Y-93000000D02*
X156000000Y-93000000D01*
D22*
%TO.N,Net-(D1-K)*%
X149500000Y-84500000D02*
X151700000Y-84500000D01*
X147000000Y-87000000D02*
X149500000Y-84500000D01*
X142000000Y-87000000D02*
X147000000Y-87000000D01*
X141000000Y-88000000D02*
X142000000Y-87000000D01*
D24*
%TO.N,GPIO27*%
X148500000Y-115425500D02*
X148500000Y-101000000D01*
X147925500Y-116000000D02*
X148500000Y-115425500D01*
X142000000Y-119500000D02*
X144000000Y-117500000D01*
X133000000Y-119500000D02*
X142000000Y-119500000D01*
X144000000Y-117500000D02*
X145000000Y-117500000D01*
X128500000Y-118380000D02*
X131880000Y-118380000D01*
X131880000Y-118380000D02*
X133000000Y-119500000D01*
D22*
%TO.N,3V3*%
X124100000Y-120900000D02*
X125500000Y-119500000D01*
X125500000Y-119500000D02*
X125500000Y-94500000D01*
X122500000Y-120900000D02*
X124100000Y-120900000D01*
%TO.N,GND*%
X135650000Y-130150000D02*
X135500000Y-130000000D01*
X137700000Y-130150000D02*
X135650000Y-130150000D01*
%TO.N,VBAT*%
X142300000Y-133800000D02*
X144000000Y-135500000D01*
X142300000Y-130150000D02*
X142300000Y-133800000D01*
D24*
%TO.N,NEOPIXEL_DATA*%
X158500000Y-123500000D02*
X158500000Y-123460000D01*
D23*
X158500000Y-123460000D02*
X157500000Y-123460000D01*
X163960000Y-123460000D02*
X158500000Y-123460000D01*
%TO.N,VBAT*%
X160500000Y-94000000D02*
X164040000Y-90460000D01*
X160000000Y-119500000D02*
X160500000Y-119000000D01*
X158920000Y-119500000D02*
X160000000Y-119500000D01*
X157500000Y-120920000D02*
X158920000Y-119500000D01*
X160500000Y-119000000D02*
X160500000Y-94000000D01*
X164040000Y-90460000D02*
X168000000Y-90460000D01*
D22*
%TO.N,GND*%
X120000000Y-84500000D02*
X119000000Y-85500000D01*
X122200000Y-84500000D02*
X120000000Y-84500000D01*
X157300000Y-84500000D02*
X160500000Y-84500000D01*
%TO.N,3V3*%
X130000000Y-129500000D02*
X135650000Y-123850000D01*
X129500000Y-129500000D02*
X126000000Y-129500000D01*
X129500000Y-129500000D02*
X130000000Y-129500000D01*
X135650000Y-123850000D02*
X140000000Y-123850000D01*
X126000000Y-129500000D02*
X125500000Y-129000000D01*
X125500000Y-129000000D02*
X125500000Y-122000000D01*
X125500000Y-122000000D02*
X124400000Y-120900000D01*
X124400000Y-120900000D02*
X122500000Y-120900000D01*
D23*
%TO.N,GND*%
X146969500Y-107969500D02*
X147000000Y-108000000D01*
X142625500Y-107969500D02*
X146969500Y-107969500D01*
X142500000Y-108095000D02*
X142625500Y-107969500D01*
X146675000Y-106825000D02*
X147000000Y-106500000D01*
X142500000Y-106825000D02*
X146675000Y-106825000D01*
X145325000Y-113175000D02*
X145500000Y-113000000D01*
X142500000Y-113175000D02*
X145325000Y-113175000D01*
X144405000Y-111905000D02*
X144500000Y-112000000D01*
X142500000Y-111905000D02*
X144405000Y-111905000D01*
D22*
%TO.N,Net-(D1-K)*%
X140912500Y-99000000D02*
X140912500Y-101087500D01*
X140912500Y-101087500D02*
X140000000Y-102000000D01*
X135500000Y-102000000D02*
X140000000Y-102000000D01*
X135000000Y-102500000D02*
X135500000Y-102000000D01*
X136055000Y-105555000D02*
X135000000Y-104500000D01*
X137500000Y-105555000D02*
X136055000Y-105555000D01*
X135000000Y-104500000D02*
X135000000Y-102500000D01*
X140000000Y-106500000D02*
X139055000Y-105555000D01*
X140000000Y-110000000D02*
X140000000Y-106500000D01*
X139055000Y-105555000D02*
X137500000Y-105555000D01*
X139365000Y-110635000D02*
X140000000Y-110000000D01*
X137500000Y-110635000D02*
X139365000Y-110635000D01*
%TO.N,VMOTOR*%
X135635000Y-109365000D02*
X135000000Y-110000000D01*
X137500000Y-109365000D02*
X135635000Y-109365000D01*
X134500000Y-115000000D02*
X134500000Y-117500000D01*
X135000000Y-118000000D02*
X137000000Y-118000000D01*
X134500000Y-117500000D02*
X135000000Y-118000000D01*
X135055000Y-114445000D02*
X134500000Y-115000000D01*
X137500000Y-114445000D02*
X135055000Y-114445000D01*
%TO.N,VBAT*%
X142300000Y-134550000D02*
X142300000Y-130150000D01*
X141500000Y-135350000D02*
X142300000Y-134550000D01*
X139900000Y-135350000D02*
X141500000Y-135350000D01*
%TO.N,3V3*%
X140000000Y-130150000D02*
X140000000Y-132850000D01*
%TO.N,GND*%
X138000000Y-132950000D02*
X138100000Y-132850000D01*
X137700000Y-132450000D02*
X138100000Y-132850000D01*
X137700000Y-130150000D02*
X137700000Y-132450000D01*
D23*
X166500000Y-120500000D02*
X168000000Y-122000000D01*
X168000000Y-122000000D02*
X168000000Y-123920000D01*
X161000000Y-120500000D02*
X166500000Y-120500000D01*
X160000000Y-121500000D02*
X161000000Y-120500000D01*
%TO.N,M2B*%
X161500000Y-131000000D02*
X162500000Y-131000000D01*
%TO.N,NEOPIXEL_DATA*%
X165500000Y-125000000D02*
X163960000Y-123460000D01*
X165500000Y-126000000D02*
X165500000Y-125000000D01*
X165960000Y-126460000D02*
X165500000Y-126000000D01*
X168000000Y-126460000D02*
X165960000Y-126460000D01*
%TO.N,M2B*%
X148500000Y-131000000D02*
X161500000Y-131000000D01*
X146500000Y-129000000D02*
X148500000Y-131000000D01*
X146500000Y-116000000D02*
X146500000Y-129000000D01*
X144945000Y-114445000D02*
X146500000Y-116000000D01*
X142500000Y-114445000D02*
X144945000Y-114445000D01*
%TO.N,M2A*%
X145365000Y-110635000D02*
X145500000Y-110500000D01*
X142500000Y-110635000D02*
X145365000Y-110635000D01*
%TO.N,M1A*%
X120500000Y-91000000D02*
X118500000Y-93000000D01*
X144500000Y-91000000D02*
X120500000Y-91000000D01*
X147000000Y-93500000D02*
X144500000Y-91000000D01*
X147000000Y-103500000D02*
X147000000Y-93500000D01*
X142555000Y-105500000D02*
X145000000Y-105500000D01*
X145000000Y-105500000D02*
X147000000Y-103500000D01*
X142500000Y-105555000D02*
X142555000Y-105500000D01*
%TO.N,M1B*%
X145179500Y-109365000D02*
X145500000Y-109044500D01*
X142500000Y-109365000D02*
X145179500Y-109365000D01*
D24*
%TO.N,GND*%
X143078528Y-111905000D02*
X143173528Y-112000000D01*
%TO.N,INB2*%
X130660000Y-115840000D02*
X128500000Y-115840000D01*
X133325000Y-113175000D02*
X130660000Y-115840000D01*
X137500000Y-113175000D02*
X133325000Y-113175000D01*
%TO.N,INA2*%
X131200000Y-113300000D02*
X128500000Y-113300000D01*
X132595000Y-111905000D02*
X131200000Y-113300000D01*
X137500000Y-111905000D02*
X132595000Y-111905000D01*
%TO.N,INB1*%
X131240000Y-110760000D02*
X128500000Y-110760000D01*
X137500000Y-108095000D02*
X133905000Y-108095000D01*
X133905000Y-108095000D02*
X131240000Y-110760000D01*
%TO.N,INA1*%
X131780000Y-108220000D02*
X128500000Y-108220000D01*
X133175000Y-106825000D02*
X131780000Y-108220000D01*
X137500000Y-106825000D02*
X133175000Y-106825000D01*
%TD*%
M02*
