M48
; DRILL file {KiCad 7.0.7} date Thu Oct  5 17:02:40 2023
; FORMAT={-:-/ absolute / inch / decimal}
; #@! TF.CreationDate,2023-10-05T17:02:40-03:00
; #@! TF.GenerationSoftware,Kicad,Pcbnew,7.0.7
; #@! TF.FileFunction,Plated,1,2,PTH
FMAT,2
INCH
; #@! TA.AperFunction,Plated,PTH,ViaDrill
T1C0.0197
; #@! TA.AperFunction,Plated,PTH,ComponentDrill
T2C0.0394
; #@! TA.AperFunction,Plated,PTH,ComponentDrill
T3C0.1260
%
G90
G05
T1
X4.5469Y-4.2327
X4.5472Y-4.7835
X4.685Y-3.3661
X4.7441Y-5.4528
X4.8819Y-5.0984
X4.9409Y-3.7205
X5.1575Y-3.5039
X5.1575Y-3.7795
X5.1969Y-4.1142
X5.2165Y-4.7638
X5.2362Y-3.5236
X5.315Y-3.8189
X5.315Y-4.3307
X5.3346Y-5.1181
X5.3543Y-3.3268
X5.3937Y-4.6457
X5.5315Y-3.7402
X5.5512Y-3.4646
X5.6299Y-3.7008
X5.6693Y-5.3346
X5.689Y-4.4094
X5.7087Y-4.626
X5.7283Y-3.937
X5.7283Y-4.2931
X5.7283Y-4.3504
X5.7283Y-4.4488
X5.7874Y-4.1929
X5.7874Y-4.252
X5.8238Y-4.5669
X5.8465Y-3.2087
X5.8465Y-3.9764
X5.8858Y-3.4252
X5.9449Y-3.6614
X6.0039Y-5.3543
X6.2992Y-4.7835
X6.3189Y-3.3268
X6.3189Y-4.9803
X6.3976Y-5.1575
X6.4567Y-4.6654
T2
X4.4094Y-3.5614
X4.4094Y-3.6614
X4.4094Y-3.7614
X4.4094Y-4.2913
X4.4094Y-4.3913
X4.4094Y-4.8787
X4.4094Y-4.9787
X4.4094Y-5.0787
X4.7441Y-5.2559
X4.7441Y-5.3559
X4.8228Y-3.7598
X4.8228Y-3.8598
X4.8228Y-3.9598
X4.8228Y-4.0598
X4.8228Y-4.1598
X4.8228Y-4.2598
X4.8228Y-4.3598
X4.8228Y-4.4598
X4.8228Y-4.5598
X4.8228Y-4.6598
X4.8228Y-4.7598
X4.8228Y-4.8598
X4.8228Y-4.9598
X4.9016Y-5.2559
X4.9016Y-5.3559
X5.0591Y-3.7606
X5.0591Y-3.8606
X5.0591Y-3.9606
X5.0591Y-4.0606
X5.0591Y-4.1606
X5.0591Y-4.2606
X5.0591Y-4.3606
X5.0591Y-4.4606
X5.0591Y-4.5606
X5.0591Y-4.6606
X5.0591Y-4.7606
X5.0591Y-4.8606
X5.0591Y-4.9606
X5.2512Y-3.2283
X5.3512Y-3.2283
X5.4512Y-3.2283
X5.5512Y-3.2283
X5.6512Y-3.2283
X5.7512Y-3.2283
X5.9646Y-3.7606
X5.9646Y-3.8606
X5.9646Y-3.9606
X5.9646Y-4.0606
X5.9646Y-4.1606
X5.9646Y-4.2606
X5.9646Y-4.3606
X5.9646Y-4.4606
X5.9646Y-4.5606
X5.9646Y-4.6606
X5.9646Y-4.7606
X5.9646Y-4.8606
X5.9646Y-4.9606
X6.122Y-5.2346
X6.122Y-5.3346
X6.2008Y-3.7606
X6.2008Y-3.8606
X6.2008Y-3.9606
X6.2008Y-4.0606
X6.2008Y-4.1606
X6.2008Y-4.2606
X6.2008Y-4.3606
X6.2008Y-4.4606
X6.2008Y-4.5606
X6.2008Y-4.6606
X6.2008Y-4.7606
X6.2008Y-4.8606
X6.2008Y-4.9606
X6.2657Y-5.2346
X6.2657Y-5.3346
X6.6142Y-3.5614
X6.6142Y-3.6614
X6.6142Y-3.7614
X6.6142Y-4.2913
X6.6142Y-4.3913
X6.6142Y-4.8787
X6.6142Y-4.9787
X6.6142Y-5.0787
T3
X4.4882Y-3.3071
X4.4882Y-5.3543
X6.5354Y-3.3071
X6.5354Y-5.3543
T0
M30
